<svg width="829" height="171" viewBox="0 0 829 171" fill="none" xmlns="http://www.w3.org/2000/svg">
<path d="M137.125 122.75C137.125 123.833 136.833 124.833 136.25 125.75C135.667 126.583 135.5 127.583 135.75 128.75C135.417 129.333 134.958 129.792 134.375 130.125C133.875 130.458 133.708 131.083 133.875 132C132.125 132.917 130.5 134.083 129 135.5C127.583 136.833 126.042 138.125 124.375 139.375C123.375 140.125 122.5 140.667 121.75 141C121.083 141.25 120.25 141.667 119.25 142.25L116.125 144.25C114.708 145 113.25 145.75 111.75 146.5C110.333 147.25 109.042 148.208 107.875 149.375C106.125 149.458 104.333 149.917 102.5 150.75C100.667 151.667 98.9167 152.458 97.25 153.125C96.5833 153.375 95.9167 153.542 95.25 153.625C94.5833 153.792 93.9167 154.042 93.25 154.375L91.25 155.25C90.0833 155.833 88.7083 156.417 87.125 157C85.5417 157.667 84.125 158 82.875 158C82.125 158.333 81.5 158.917 81 159.75C78.25 160.667 75.4167 161.375 72.5 161.875C69.5833 162.375 66.75 163.167 64 164.25C63.0833 164.667 62.125 165.208 61.125 165.875C60.2083 166.625 59.2083 166.958 58.125 166.875C57.875 167.292 57.7083 167.792 57.625 168.375C57.5417 168.958 57.4167 169.542 57.25 170.125H56.875C56.5417 170.125 56.375 169.958 56.375 169.625C56.4583 169.292 56.3333 169.125 56 169.125C55.75 169.125 55.5833 169.167 55.5 169.25C54.4167 169.5 53.375 169.708 52.375 169.875C51.4583 170.042 50.4167 170.125 49.25 170.125C48.5833 170.125 47.5 170.042 46 169.875C44.5833 169.708 43.5417 169.5 42.875 169.25C42.375 169 41.9583 168.542 41.625 167.875C41.2917 167.208 40.9583 166.5 40.625 165.75C40.375 165 40.125 164.208 39.875 163.375C39.7083 162.625 39.5417 162 39.375 161.5C39.625 160.583 40.0417 159.833 40.625 159.25C41.2083 158.667 41.6667 157.917 42 157C42.75 156.917 43.5 156.792 44.25 156.625C45 156.458 45.75 156.417 46.5 156.5C49.0833 155.75 51.6667 155 54.25 154.25C56.9167 153.583 59.5417 152.875 62.125 152.125C64.7083 151.375 67.25 150.542 69.75 149.625C72.25 148.708 74.6667 147.583 77 146.25H79.625C81.125 145.417 82.7917 144.708 84.625 144.125C86.4583 143.542 87.9583 142.583 89.125 141.25C91.875 140.667 94.75 139.875 97.75 138.875C100.75 137.875 103.25 136.292 105.25 134.125C106.5 133.958 107.583 133.667 108.5 133.25C109.417 132.75 110.292 132.25 111.125 131.75L113.625 130.125C114.458 129.542 115.417 129.083 116.5 128.75C117.167 128.083 117.792 127.375 118.375 126.625C118.958 125.875 119.667 125.25 120.5 124.75C120.25 123.417 119.583 122.417 118.5 121.75C117.417 121.083 116.458 120.292 115.625 119.375H112.875C110.708 118.042 108.375 117.042 105.875 116.375C103.458 115.625 101.042 114.833 98.625 114C98.4583 113.917 98.25 113.875 98 113.875C97.4167 113.875 97.0417 114.083 96.875 114.5C96.7917 114.917 96.4583 115.083 95.875 115C95.125 114.5 94.3333 114.208 93.5 114.125C92.6667 113.958 91.7917 113.875 90.875 113.875C89.7083 113.875 88.5417 113.958 87.375 114.125C86.2917 114.208 85.1667 114.25 84 114.25C83.4167 114.25 82.8333 114.208 82.25 114.125C81.6667 114.042 81.0833 113.833 80.5 113.5H78.875C77.125 113.5 75.375 113.583 73.625 113.75C71.9583 113.833 70.2917 113.875 68.625 113.875C67.7083 113.875 66.8333 113.875 66 113.875C65.1667 113.792 64.3333 113.667 63.5 113.5C61.75 114.333 59.875 114.917 57.875 115.25C55.875 115.583 53.7917 115.833 51.625 116C49.5417 116.167 47.4583 116.333 45.375 116.5C43.2917 116.583 41.2917 116.792 39.375 117.125C38.875 117.042 38.375 117 37.875 117C37.4583 116.917 37.0417 116.875 36.625 116.875C36.2083 116.875 35.75 116.917 35.25 117C34.8333 117 34.4167 117.042 34 117.125C32.9167 115.958 31.5833 115.125 30 114.625C28.5 114.042 27 113.667 25.5 113.5C24.3333 112.083 23.4583 110.667 22.875 109.25C22.375 107.75 22.0417 106.083 21.875 104.25H22.375C22.9583 104.25 23.2083 103.958 23.125 103.375C23.125 102.792 23.3333 102.292 23.75 101.875C24.1667 101.375 24.7083 101.042 25.375 100.875C26.125 100.625 26.8333 100.375 27.5 100.125C28.1667 99.875 28.7917 99.5833 29.375 99.25C30.0417 98.8333 30.5417 98.2083 30.875 97.375H32.5C32.8333 97.375 33.1667 97.4167 33.5 97.5C33.9167 97.5 34.25 97.625 34.5 97.875C34.8333 97.5417 35.25 97.25 35.75 97C36.25 96.75 36.7083 96.5 37.125 96.25C37.625 96 38.0417 95.7083 38.375 95.375C38.7083 95.0417 38.9167 94.5417 39 93.875C39.0833 94.125 39.2917 94.25 39.625 94.25C39.9583 94.25 40.25 94.1667 40.5 94C40.8333 93.8333 41.2083 93.7917 41.625 93.875C42.0417 92.7083 42.75 92.0833 43.75 92C44.75 91.9167 45.6667 91.625 46.5 91.125C47.0833 90.7917 47.625 90.4167 48.125 90C48.625 89.5 49.1667 89.0417 49.75 88.625L57.25 82.875L68.75 74.125C72.5833 71.2083 76.5 68.5 80.5 66C80.6667 65.5 80.9167 65.125 81.25 64.875C81.5833 64.625 81.9167 64.375 82.25 64.125C82.5833 63.7917 82.8333 63.4583 83 63.125C83.25 62.7917 83.3333 62.2917 83.25 61.625C84.4167 61.375 85.2917 60.9167 85.875 60.25C86.5417 59.5833 87.125 58.875 87.625 58.125C88.125 57.2917 88.625 56.5 89.125 55.75C89.7083 54.9167 90.4583 54.2917 91.375 53.875C91.2917 53.625 91.25 53.25 91.25 52.75C91.25 52.0833 91.2917 51.4167 91.375 50.75C91.5417 50.0833 91.875 49.5 92.375 49C91.625 47.25 90.3333 46 88.5 45.25C86.6667 44.4167 84.9167 43.7083 83.25 43.125H82.875C82.4583 43.125 82.2083 43.3333 82.125 43.75C82.125 44.0833 81.9167 44.3333 81.5 44.5C80.1667 44.1667 78.6667 44 77 44C75.3333 44 73.6667 44.125 72 44.375C70.4167 44.625 68.7917 44.6667 67.125 44.5C66.875 44.8333 66.5833 45.1667 66.25 45.5C66 45.8333 65.6667 46.125 65.25 46.375C63.5 46.4583 61.75 46.7083 60 47.125L54.75 48.375L51.875 49C51.4583 49.1667 51.1667 49.4583 51 49.875C50.8333 50.2917 50.7083 50.75 50.625 51.25C50.125 51.1667 49.7917 50.9583 49.625 50.625C49.5417 50.2917 49.25 50.0417 48.75 49.875C46.8333 51.0417 44.75 52 42.5 52.75C40.3333 53.5 38.375 54.6667 36.625 56.25C36.0417 55.5833 35.2083 55.25 34.125 55.25C33.2083 55.25 32.2083 55.5417 31.125 56.125C30.0417 56.7083 29.375 57.4583 29.125 58.375C28.2917 58.2083 27.6667 58.125 27.25 58.125C26.3333 58.125 25.5417 58.375 24.875 58.875C24.2917 59.375 23.7083 59.9583 23.125 60.625C22.5417 61.2083 21.9167 61.7917 21.25 62.375C20.5833 62.9583 19.75 63.2917 18.75 63.375C18.75 63.7917 18.75 64.25 18.75 64.75C18.8333 65.1667 18.875 65.625 18.875 66.125C18.875 69.875 18.6667 73.625 18.25 77.375C17.8333 81.0417 17.625 84.75 17.625 88.5C17.625 89.3333 17.6667 90.1667 17.75 91C17.8333 91.75 17.875 92.5833 17.875 93.5C17.875 93.75 17.6667 94.2917 17.25 95.125C16.9167 95.9583 16.6667 96.5833 16.5 97C16.8333 97.9167 16.9583 98.8333 16.875 99.75C16.875 100.667 17.0833 101.542 17.5 102.375C16.75 103.042 16.375 103.958 16.375 105.125C16.375 105.625 16.375 106.125 16.375 106.625C16.4583 107.125 16.5 107.625 16.5 108.125V109.625C16.25 111.292 16.0833 113 16 114.75C15.9167 116.417 15.875 118.083 15.875 119.75C15.875 120.5 15.875 121.792 15.875 123.625C15.9583 125.375 16.0833 127.375 16.25 129.625C16.4167 131.792 16.6667 134.042 17 136.375C17.3333 138.708 17.75 140.875 18.25 142.875C18.8333 144.792 19.5417 146.375 20.375 147.625C21.2083 148.875 22.2083 149.5 23.375 149.5C23.625 149.5 23.9167 149.458 24.25 149.375C24.6667 149.292 24.875 149.083 24.875 148.75C24.875 148.417 24.7917 148.125 24.625 147.875C24.5417 147.625 24.5 147.333 24.5 147L24.625 146.75C25.2917 147.083 26 147.292 26.75 147.375C27.5833 147.458 28.4167 147.542 29.25 147.625C30.0833 147.708 30.875 147.833 31.625 148C32.375 148.25 33.0417 148.708 33.625 149.375C33.2917 150.042 33.125 150.75 33.125 151.5C33.125 152.5 33.375 153.417 33.875 154.25C34.375 155.167 34.7083 156.083 34.875 157C33.2917 157.5 31.8333 158.042 30.5 158.625C29.25 159.292 28 159.875 26.75 160.375C25.5 160.958 24.1667 161.458 22.75 161.875C21.3333 162.375 19.7083 162.708 17.875 162.875C16.7083 162.125 15.7083 161.458 14.875 160.875C14.0417 160.292 12.9167 159.917 11.5 159.75C9.33333 156.833 7.54167 153.542 6.125 149.875C4.70833 146.292 3.58333 142.542 2.75 138.625C2 134.708 1.45833 130.792 1.125 126.875C0.875 122.875 0.75 119.125 0.75 115.625C0.75 111.792 0.875 108 1.125 104.25C1.45833 100.417 1.875 96.5833 2.375 92.75C2.54167 91.5833 2.70833 90.4167 2.875 89.25C3.04167 88 3.20833 86.7917 3.375 85.625C3.54167 85.2083 3.66667 84.75 3.75 84.25C3.91667 83.6667 4 83.1667 4 82.75C4 81.3333 3.95833 79.9167 3.875 78.5C3.79167 77.0833 3.75 75.7083 3.75 74.375C3.75 72.2917 3.875 70.1667 4.125 68C4.20833 67.5833 4.33333 67.0417 4.5 66.375C4.75 65.7083 4.875 65.125 4.875 64.625C4.875 63.9583 4.70833 63.5 4.375 63.25C4.04167 63 3.75 62.5833 3.5 62C3.75 61.1667 3.95833 60.375 4.125 59.625C4.29167 58.7917 4.375 57.9583 4.375 57.125C4.375 55.5417 4.08333 54.1667 3.5 53C3.91667 50.8333 4.54167 48.7083 5.375 46.625C6.20833 44.5417 7.66667 42.9583 9.75 41.875C11.4167 41.9583 13.0833 42.125 14.75 42.375C16.5 42.625 18 43.3333 19.25 44.5C19.8333 44.1667 20.5 43.9583 21.25 43.875L23.625 43.625C24.4583 43.5417 25.2083 43.4167 25.875 43.25C26.5417 43 27.125 42.5417 27.625 41.875C29.2917 41.5417 31.0833 41.0833 33 40.5C34.9167 39.8333 36.5833 39.0833 38 38.25H40.75C41.3333 37.8333 42 37.5417 42.75 37.375L45.125 36.75C45.9583 36.5 46.7083 36.25 47.375 36C48.125 35.75 48.7083 35.3333 49.125 34.75H49.625C51.5417 34.75 53.4167 34.3333 55.25 33.5C57.0833 32.6667 58.875 31.9167 60.625 31.25C61.0417 31.0833 61.6667 30.7917 62.5 30.375C63.4167 29.9583 64.0417 29.75 64.375 29.75C65.5417 29.5833 66.7083 29.5 67.875 29.5C69.0417 29.4167 70.2083 29.25 71.375 29C74.0417 28.5833 76.6667 28.125 79.25 27.625C81.9167 27.0417 84.5833 26.75 87.25 26.75C88.1667 26.75 89 26.7917 89.75 26.875C90.5833 26.875 91.4583 26.9167 92.375 27C92.4583 27.3333 92.6667 27.625 93 27.875C93.3333 28.0417 93.625 28.2083 93.875 28.375C94.2083 28.5417 94.5 28.7917 94.75 29.125C95 29.375 95.0833 29.75 95 30.25C95.1667 30.4167 95.3333 30.5 95.5 30.5C95.75 30.5 95.9583 30.375 96.125 30.125C96.375 29.875 96.7083 29.75 97.125 29.75H97.75C98.8333 30.9167 99.875 32.0417 100.875 33.125C101.958 34.125 103.292 34.9583 104.875 35.625C105.542 38.125 106.333 40.5833 107.25 43C108.167 45.4167 108.625 48 108.625 50.75C108.625 52.4167 108.375 54.0417 107.875 55.625C106.708 56.2083 105.875 57.125 105.375 58.375C104.875 59.625 104.417 60.8333 104 62C101.667 63.1667 99.7083 64.7083 98.125 66.625C96.5417 68.5417 94.9167 70.4583 93.25 72.375H91.25C90.9167 72.375 90.6667 72.5 90.5 72.75L89.375 74C88.625 74.6667 87.7917 75.3333 86.875 76C86.0417 76.6667 85.4167 77.5417 85 78.625C82.4167 80.0417 79.9167 81.625 77.5 83.375C75.1667 85.125 72.9167 86.9583 70.75 88.875C69.8333 89.625 68.9167 90.5 68 91.5C67.0833 92.4167 66.1667 93.2083 65.25 93.875C64.75 94.2917 64.1667 94.6667 63.5 95C62.9167 95.25 62.375 95.5833 61.875 96C60.7917 96.8333 59.7917 97.7083 58.875 98.625C57.9583 99.4583 57 100.25 56 101C59.75 100.833 63.5417 100.75 67.375 100.75C71.2083 100.667 75 100.583 78.75 100.5C80.6667 100.5 82.5417 100.458 84.375 100.375C86.2083 100.208 88.0833 100.125 90 100.125C90.3333 100.125 90.625 100.208 90.875 100.375C91.125 100.458 91.4167 100.542 91.75 100.625C93.1667 100.875 94.4167 101.167 95.5 101.5C99.5 102.25 103.5 102.917 107.5 103.5C111.5 104.083 115.417 105.042 119.25 106.375C120.333 106.792 121.125 107.25 121.625 107.75C122.208 108.25 123.208 108.375 124.625 108.125C125.792 109.292 127.042 110.208 128.375 110.875C129.792 111.542 131.208 112.125 132.625 112.625C133.708 114.292 134.708 115.875 135.625 117.375C136.625 118.875 137.125 120.667 137.125 122.75ZM223 64.5V65C222.417 65.1667 222.125 65.5833 222.125 66.25C221.208 66.6667 220.25 67 219.25 67.25C218.25 67.4167 217.292 67.7083 216.375 68.125C215.458 68.0417 214.5 68 213.5 68C212.583 67.9167 211.667 67.875 210.75 67.875C208.25 67.875 205.75 67.9583 203.25 68.125C200.75 68.2917 198.25 68.2917 195.75 68.125C194.583 68.7917 193.292 69.3333 191.875 69.75C190.542 70.0833 189.25 70.25 188 70.25C187 70.25 186.125 70.125 185.375 69.875C183.375 70.875 181.167 71.7083 178.75 72.375C176.417 73.0417 174.042 73.7083 171.625 74.375C169.208 74.9583 166.875 75.6667 164.625 76.5C162.458 77.25 160.542 78.3333 158.875 79.75C158.708 80.9167 158.583 82.0833 158.5 83.25C158.417 84.3333 158.375 85.4167 158.375 86.5C158.375 87.6667 158.417 88.75 158.5 89.75C158.667 90.75 158.958 91.75 159.375 92.75C159.792 92.9167 160.25 93.0417 160.75 93.125C161.333 93.2083 161.833 93.25 162.25 93.25C162.667 93.25 163.083 93.2083 163.5 93.125C163.917 92.9583 164.208 92.6667 164.375 92.25C165.625 92.0833 166.875 92.0417 168.125 92.125C169.375 92.125 170.625 92.125 171.875 92.125C173.125 92.125 174.333 92.0833 175.5 92C176.75 91.9167 177.958 91.7083 179.125 91.375C180.458 91.0417 181.75 90.8333 183 90.75C184.333 90.6667 185.625 90.5833 186.875 90.5C188.125 90.4167 189.417 90.2917 190.75 90.125C192.083 89.875 193.458 89.4167 194.875 88.75C195.958 89.1667 197.042 89.375 198.125 89.375C199.292 89.375 200.417 89.4583 201.5 89.625C202.083 90.0417 202.542 90.5 202.875 91C203.292 91.5 203.5 92.0833 203.5 92.75C203.5 93.9167 203.083 95.0833 202.25 96.25C201.417 97.4167 200.75 98.5 200.25 99.5H198.875C196.875 99.5 194.917 99.7917 193 100.375C191.167 100.875 189.292 101.5 187.375 102.25C185.542 102.917 183.667 103.542 181.75 104.125C179.917 104.625 178 104.875 176 104.875C175.667 104.875 175.458 105.083 175.375 105.5C175.375 105.833 175.292 106.083 175.125 106.25C174.708 106.167 174.083 106.125 173.25 106.125C171.333 106.125 169.5 106.333 167.75 106.75C166 107.167 164.208 107.375 162.375 107.375C161.875 107.375 161.375 107.375 160.875 107.375C160.375 107.292 159.875 107.208 159.375 107.125C158.958 107.792 158.417 108.25 157.75 108.5C157.083 108.667 156.458 109 155.875 109.5C155.625 110.25 155.458 111.167 155.375 112.25C155.375 113.333 155.333 114.458 155.25 115.625C155.25 116.708 155.167 117.75 155 118.75C154.833 119.75 154.5 120.542 154 121.125C154.083 121.542 154.417 121.708 155 121.625C155.583 121.458 155.875 121.708 155.875 122.375C155.875 123.125 155.792 123.917 155.625 124.75C155.458 125.583 155.375 126.417 155.375 127.25C155.375 128.833 155.542 130.583 155.875 132.5C156.292 134.333 156.875 136.042 157.625 137.625C158.458 139.208 159.542 140.542 160.875 141.625C162.208 142.625 163.875 143.125 165.875 143.125C167.208 143.125 168.458 142.875 169.625 142.375C170.792 141.875 171.75 141.042 172.5 139.875L173.125 139.75C173.458 139.75 173.75 139.792 174 139.875C174.333 139.958 174.667 140 175 140C175.5 140 176.125 139.708 176.875 139.125C177.708 138.458 178.583 137.708 179.5 136.875C180.5 136.042 181.5 135.25 182.5 134.5C183.5 133.667 184.458 133.083 185.375 132.75C185.958 131.583 186.5 130.417 187 129.25C187.583 128.083 188.417 127.167 189.5 126.5V122.875C190.333 121.958 191.208 121.125 192.125 120.375C193.125 119.625 193.875 118.667 194.375 117.5C194.792 117.667 195.167 117.792 195.5 117.875C195.917 117.958 196.333 118 196.75 118C197.167 118 197.583 117.958 198 117.875C198.5 117.792 198.958 117.667 199.375 117.5C200.042 118.417 200.542 119.458 200.875 120.625C201.292 121.708 201.792 122.75 202.375 123.75C201.625 125.25 200.75 127.042 199.75 129.125C198.75 131.208 197.667 133.292 196.5 135.375C195.333 137.458 194.083 139.458 192.75 141.375C191.5 143.208 190.25 144.625 189 145.625C188.75 145.875 188.208 146.167 187.375 146.5C186.458 147.167 185.625 147.792 184.875 148.375C184.125 149.042 183.417 149.792 182.75 150.625C180.333 151.375 178 152.375 175.75 153.625C173.583 154.875 171.417 156.083 169.25 157.25C168.25 157 167.167 156.875 166 156.875C165 156.875 164 156.917 163 157C162 157.167 160.917 157.25 159.75 157.25C159.417 156.833 158.917 156.542 158.25 156.375C157.667 156.292 157.458 155.875 157.625 155.125C154.792 154.958 152.5 154.167 150.75 152.75C149 151.417 147.5 149.75 146.25 147.75C145.083 145.75 144.125 143.583 143.375 141.25C142.625 138.917 141.833 136.667 141 134.5V134.125C141 133.708 141.167 133.458 141.5 133.375C141.833 133.292 142 133.042 142 132.625C142 132.458 141.958 132.333 141.875 132.25C141.625 131.333 141.417 130.542 141.25 129.875C141.083 129.208 141 128.417 141 127.5C141 126.167 141.083 124.875 141.25 123.625C141.417 122.292 141.5 120.958 141.5 119.625C141.5 118.292 141.333 117.125 141 116.125C141.333 115.708 141.625 115.167 141.875 114.5C142.042 113.75 142.167 113 142.25 112.25C142.333 111.5 142.375 110.75 142.375 110C142.458 109.25 142.583 108.583 142.75 108C142.417 107.083 142.125 106.292 141.875 105.625C141.625 104.875 141.5 104 141.5 103V102.125C142.333 100.708 143.042 99.25 143.625 97.75C144.208 96.25 144.833 94.7083 145.5 93.125V92.75C145.5 90.3333 145.417 87.9167 145.25 85.5C145.083 83.0833 145 80.6667 145 78.25V75.875C145 75.0417 145.042 74.25 145.125 73.5C145.792 73.1667 146.292 72.7083 146.625 72.125C146.958 71.5417 147.458 71.0833 148.125 70.75H152.25L153 69.5C153.25 69.0833 153.417 68.625 153.5 68.125C154.417 67.875 155.292 67.5417 156.125 67.125C157.042 66.625 157.875 66.125 158.625 65.625C159.792 64.9583 160.833 64.375 161.75 63.875C162.75 63.2917 163.708 62.8333 164.625 62.5C165.625 62.0833 166.667 61.75 167.75 61.5C168.833 61.25 170.083 61.0417 171.5 60.875C172.167 60.875 172.583 60.75 172.75 60.5C173 60.25 173.333 59.9583 173.75 59.625C174.75 59.7917 175.75 59.9583 176.75 60.125C177.75 60.2083 178.75 60.25 179.75 60.25C181.75 60.25 183.625 59.875 185.375 59.125C187.875 59.125 190.333 59.0833 192.75 59C195.25 58.9167 197.75 58.875 200.25 58.875C202.417 58.875 204.583 58.9583 206.75 59.125C208.917 59.2917 211.042 59.5833 213.125 60C213.875 59.75 214.708 59.625 215.625 59.625C216.625 59.625 217.625 59.75 218.625 60C219.708 60.1667 220.75 60.1667 221.75 60C221.833 60.9167 222.042 61.7083 222.375 62.375C222.792 62.9583 223 63.6667 223 64.5ZM299.25 61.875C299.083 62.875 298.833 63.75 298.5 64.5C298.25 65.1667 298.208 66.0833 298.375 67.25C297.542 67.3333 296.875 67.625 296.375 68.125C295.958 68.5417 295.583 69.0417 295.25 69.625C295 70.2083 294.708 70.8333 294.375 71.5C294.125 72.0833 293.792 72.625 293.375 73.125C294.042 76.125 294.417 79.1667 294.5 82.25C294.583 85.3333 294.792 88.375 295.125 91.375C295.542 95.2083 296.167 99 297 102.75C297.917 106.417 298.375 110.167 298.375 114C298.375 115.167 298.333 116.25 298.25 117.25C298.25 118.25 298.25 119.292 298.25 120.375C298.25 121.042 298.25 121.75 298.25 122.5C298.333 123.167 298.375 123.833 298.375 124.5C298.375 126.917 298.042 129.333 297.375 131.75C296.792 134.167 296.333 136.583 296 139C295 139.917 294.125 140.917 293.375 142C292.708 143.083 292 144.083 291.25 145C290.5 145.917 289.625 146.708 288.625 147.375C287.625 148.125 286.375 148.625 284.875 148.875C284.625 149.708 284.125 150.333 283.375 150.75C282.708 151.167 282.125 151.75 281.625 152.5H281.375C279.292 152.5 277.5 152.208 276 151.625C274.5 151.042 273.083 150.375 271.75 149.625C270.5 148.875 269.208 148.083 267.875 147.25C266.542 146.417 265 145.75 263.25 145.25C260.917 143.333 258.792 141.25 256.875 139C254.958 136.667 252.792 134.583 250.375 132.75C249.792 131.083 249 129.708 248 128.625C247.083 127.542 246.167 126.292 245.25 124.875C244.833 124.292 244.5 123.75 244.25 123.25C244.083 122.75 243.833 122.167 243.5 121.5C243.25 120.833 242.833 120.375 242.25 120.125C241.75 119.875 241.292 119.583 240.875 119.25C240.208 116.667 239.25 114.292 238 112.125C236.75 109.958 235.292 107.875 233.625 105.875C233.125 106.792 232.708 107.792 232.375 108.875C232.125 109.875 231.875 110.917 231.625 112C231.375 113 231.042 114.042 230.625 115.125C230.292 116.125 229.833 117.042 229.25 117.875V118.25C229.25 118.667 229.417 118.917 229.75 119C230.083 119.083 230.25 119.333 230.25 119.75C230.25 119.833 230.208 119.917 230.125 120C230.125 120.083 230.125 120.167 230.125 120.25C229.708 120.583 229.375 121 229.125 121.5C228.958 122 228.542 122.292 227.875 122.375C227.958 122.792 228 123.208 228 123.625V124.75C228 127.167 227.708 129.583 227.125 132C226.625 134.417 226.375 136.875 226.375 139.375V141C226.375 141.583 226.417 142.125 226.5 142.625C226.667 143.125 226.917 143.625 227.25 144.125C227.583 144.625 227.75 145.083 227.75 145.5C227.75 146.083 227.5 146.625 227 147.125C227.583 147.542 228.25 148 229 148.5C229.75 149 230.417 149.542 231 150.125C231.667 150.792 232.208 151.458 232.625 152.125C233.042 152.875 233.25 153.667 233.25 154.5C233.25 155.917 232.792 156.917 231.875 157.5C230.958 158.083 229.833 158.542 228.5 158.875C227.25 159.208 225.917 159.5 224.5 159.75C223.167 160.083 222.042 160.625 221.125 161.375H220.75C219.75 161.375 219 161.083 218.5 160.5C218 159.917 217.25 159.625 216.25 159.625C214.667 157.042 213.583 154.125 213 150.875C212.417 147.708 212.125 144.667 212.125 141.75C212.125 138.167 212.458 134.583 213.125 131C213.708 127.417 214.458 123.875 215.375 120.375C216.208 116.875 217.125 113.417 218.125 110C219.208 106.5 220.208 103 221.125 99.5L221.25 99.125C221.25 98.7083 221.125 98.4167 220.875 98.25C220.708 98.0833 220.625 97.8333 220.625 97.5C220.625 97.3333 220.667 97.25 220.75 97.25C221 96.4167 221.25 95.625 221.5 94.875C221.833 94.125 222.083 93.2917 222.25 92.375C222.75 90.0417 223.083 87.6667 223.25 85.25C223.5 82.75 223.625 80.2917 223.625 77.875C223.708 75.4583 223.792 73.0417 223.875 70.625C224.042 68.125 224.333 65.6667 224.75 63.25C225.417 62.5833 226.042 61.875 226.625 61.125C227.208 60.375 227.958 59.7083 228.875 59.125C230.542 59.2083 232.208 59.4583 233.875 59.875C235.542 60.2917 237.125 60.9583 238.625 61.875C239.625 65.4583 240.292 69.0417 240.625 72.625C241.042 76.2083 241.708 79.7917 242.625 83.375V83.75C242.625 84.1667 242.833 84.375 243.25 84.375C243.75 84.2917 244.125 84.4167 244.375 84.75C244.208 85 244.083 85.2917 244 85.625C244 85.9583 244 86.2917 244 86.625V88.75C244.167 89.4167 244.375 90.125 244.625 90.875C244.875 91.625 245.417 92.0833 246.25 92.25C246.667 94.9167 247.292 97.375 248.125 99.625C248.958 101.875 249.917 104.042 251 106.125C252.083 108.208 253.25 110.292 254.5 112.375C255.75 114.375 257.042 116.5 258.375 118.75C260.458 120.333 262.25 122.167 263.75 124.25C265.25 126.25 266.75 128.208 268.25 130.125C269.833 131.958 271.583 133.583 273.5 135C275.5 136.417 278.083 137.292 281.25 137.625C281.667 137.292 281.958 136.833 282.125 136.25L282.75 134.5C283 133.917 283.25 133.417 283.5 133C283.833 132.5 284.292 132.125 284.875 131.875C285.042 129.542 285.208 127.167 285.375 124.75C285.625 122.333 286.167 120.042 287 117.875C286.583 117.125 286.375 116.208 286.375 115.125C286.375 114.292 286.417 113.5 286.5 112.75C286.667 112 286.75 111.25 286.75 110.5C286.75 108.917 286.417 107.625 285.75 106.625C285.75 106.042 285.792 105.458 285.875 104.875C285.958 104.208 286.208 103.583 286.625 103C285.958 101.333 285.417 99.5833 285 97.75C284.667 95.9167 284.5 94.0417 284.5 92.125C284.5 91.0417 284.625 89.9167 284.875 88.75C284.375 87.5 284.042 86.0417 283.875 84.375L283.375 79.25C283.208 77.5 282.958 75.875 282.625 74.375C282.292 72.875 281.667 71.6667 280.75 70.75C281.25 70 281.5 69.125 281.5 68.125C281.5 66.4583 281.25 64.875 280.75 63.375C280.25 61.875 280 60.2917 280 58.625C280 57.4583 280.25 56.2917 280.75 55.125C282.583 55.2083 284.375 55.4167 286.125 55.75C287.958 56 289.75 56.125 291.5 56.125C292 56.7917 292.583 57.3333 293.25 57.75C293.917 58.1667 294.625 58.5833 295.375 59C296.125 59.3333 296.833 59.7083 297.5 60.125C298.25 60.5417 298.833 61.125 299.25 61.875ZM390.875 64.5V65C390.292 65.1667 390 65.5833 390 66.25C389.083 66.6667 388.125 67 387.125 67.25C386.125 67.4167 385.167 67.7083 384.25 68.125C383.333 68.0417 382.375 68 381.375 68C380.458 67.9167 379.542 67.875 378.625 67.875C376.125 67.875 373.625 67.9583 371.125 68.125C368.625 68.2917 366.125 68.2917 363.625 68.125C362.458 68.7917 361.167 69.3333 359.75 69.75C358.417 70.0833 357.125 70.25 355.875 70.25C354.875 70.25 354 70.125 353.25 69.875C351.25 70.875 349.042 71.7083 346.625 72.375C344.292 73.0417 341.917 73.7083 339.5 74.375C337.083 74.9583 334.75 75.6667 332.5 76.5C330.333 77.25 328.417 78.3333 326.75 79.75C326.583 80.9167 326.458 82.0833 326.375 83.25C326.292 84.3333 326.25 85.4167 326.25 86.5C326.25 87.6667 326.292 88.75 326.375 89.75C326.542 90.75 326.833 91.75 327.25 92.75C327.667 92.9167 328.125 93.0417 328.625 93.125C329.208 93.2083 329.708 93.25 330.125 93.25C330.542 93.25 330.958 93.2083 331.375 93.125C331.792 92.9583 332.083 92.6667 332.25 92.25C333.5 92.0833 334.75 92.0417 336 92.125C337.25 92.125 338.5 92.125 339.75 92.125C341 92.125 342.208 92.0833 343.375 92C344.625 91.9167 345.833 91.7083 347 91.375C348.333 91.0417 349.625 90.8333 350.875 90.75C352.208 90.6667 353.5 90.5833 354.75 90.5C356 90.4167 357.292 90.2917 358.625 90.125C359.958 89.875 361.333 89.4167 362.75 88.75C363.833 89.1667 364.917 89.375 366 89.375C367.167 89.375 368.292 89.4583 369.375 89.625C369.958 90.0417 370.417 90.5 370.75 91C371.167 91.5 371.375 92.0833 371.375 92.75C371.375 93.9167 370.958 95.0833 370.125 96.25C369.292 97.4167 368.625 98.5 368.125 99.5H366.75C364.75 99.5 362.792 99.7917 360.875 100.375C359.042 100.875 357.167 101.5 355.25 102.25C353.417 102.917 351.542 103.542 349.625 104.125C347.792 104.625 345.875 104.875 343.875 104.875C343.542 104.875 343.333 105.083 343.25 105.5C343.25 105.833 343.167 106.083 343 106.25C342.583 106.167 341.958 106.125 341.125 106.125C339.208 106.125 337.375 106.333 335.625 106.75C333.875 107.167 332.083 107.375 330.25 107.375C329.75 107.375 329.25 107.375 328.75 107.375C328.25 107.292 327.75 107.208 327.25 107.125C326.833 107.792 326.292 108.25 325.625 108.5C324.958 108.667 324.333 109 323.75 109.5C323.5 110.25 323.333 111.167 323.25 112.25C323.25 113.333 323.208 114.458 323.125 115.625C323.125 116.708 323.042 117.75 322.875 118.75C322.708 119.75 322.375 120.542 321.875 121.125C321.958 121.542 322.292 121.708 322.875 121.625C323.458 121.458 323.75 121.708 323.75 122.375C323.75 123.125 323.667 123.917 323.5 124.75C323.333 125.583 323.25 126.417 323.25 127.25C323.25 128.833 323.417 130.583 323.75 132.5C324.167 134.333 324.75 136.042 325.5 137.625C326.333 139.208 327.417 140.542 328.75 141.625C330.083 142.625 331.75 143.125 333.75 143.125C335.083 143.125 336.333 142.875 337.5 142.375C338.667 141.875 339.625 141.042 340.375 139.875L341 139.75C341.333 139.75 341.625 139.792 341.875 139.875C342.208 139.958 342.542 140 342.875 140C343.375 140 344 139.708 344.75 139.125C345.583 138.458 346.458 137.708 347.375 136.875C348.375 136.042 349.375 135.25 350.375 134.5C351.375 133.667 352.333 133.083 353.25 132.75C353.833 131.583 354.375 130.417 354.875 129.25C355.458 128.083 356.292 127.167 357.375 126.5V122.875C358.208 121.958 359.083 121.125 360 120.375C361 119.625 361.75 118.667 362.25 117.5C362.667 117.667 363.042 117.792 363.375 117.875C363.792 117.958 364.208 118 364.625 118C365.042 118 365.458 117.958 365.875 117.875C366.375 117.792 366.833 117.667 367.25 117.5C367.917 118.417 368.417 119.458 368.75 120.625C369.167 121.708 369.667 122.75 370.25 123.75C369.5 125.25 368.625 127.042 367.625 129.125C366.625 131.208 365.542 133.292 364.375 135.375C363.208 137.458 361.958 139.458 360.625 141.375C359.375 143.208 358.125 144.625 356.875 145.625C356.625 145.875 356.083 146.167 355.25 146.5C354.333 147.167 353.5 147.792 352.75 148.375C352 149.042 351.292 149.792 350.625 150.625C348.208 151.375 345.875 152.375 343.625 153.625C341.458 154.875 339.292 156.083 337.125 157.25C336.125 157 335.042 156.875 333.875 156.875C332.875 156.875 331.875 156.917 330.875 157C329.875 157.167 328.792 157.25 327.625 157.25C327.292 156.833 326.792 156.542 326.125 156.375C325.542 156.292 325.333 155.875 325.5 155.125C322.667 154.958 320.375 154.167 318.625 152.75C316.875 151.417 315.375 149.75 314.125 147.75C312.958 145.75 312 143.583 311.25 141.25C310.5 138.917 309.708 136.667 308.875 134.5V134.125C308.875 133.708 309.042 133.458 309.375 133.375C309.708 133.292 309.875 133.042 309.875 132.625C309.875 132.458 309.833 132.333 309.75 132.25C309.5 131.333 309.292 130.542 309.125 129.875C308.958 129.208 308.875 128.417 308.875 127.5C308.875 126.167 308.958 124.875 309.125 123.625C309.292 122.292 309.375 120.958 309.375 119.625C309.375 118.292 309.208 117.125 308.875 116.125C309.208 115.708 309.5 115.167 309.75 114.5C309.917 113.75 310.042 113 310.125 112.25C310.208 111.5 310.25 110.75 310.25 110C310.333 109.25 310.458 108.583 310.625 108C310.292 107.083 310 106.292 309.75 105.625C309.5 104.875 309.375 104 309.375 103V102.125C310.208 100.708 310.917 99.25 311.5 97.75C312.083 96.25 312.708 94.7083 313.375 93.125V92.75C313.375 90.3333 313.292 87.9167 313.125 85.5C312.958 83.0833 312.875 80.6667 312.875 78.25V75.875C312.875 75.0417 312.917 74.25 313 73.5C313.667 73.1667 314.167 72.7083 314.5 72.125C314.833 71.5417 315.333 71.0833 316 70.75H320.125L320.875 69.5C321.125 69.0833 321.292 68.625 321.375 68.125C322.292 67.875 323.167 67.5417 324 67.125C324.917 66.625 325.75 66.125 326.5 65.625C327.667 64.9583 328.708 64.375 329.625 63.875C330.625 63.2917 331.583 62.8333 332.5 62.5C333.5 62.0833 334.542 61.75 335.625 61.5C336.708 61.25 337.958 61.0417 339.375 60.875C340.042 60.875 340.458 60.75 340.625 60.5C340.875 60.25 341.208 59.9583 341.625 59.625C342.625 59.7917 343.625 59.9583 344.625 60.125C345.625 60.2083 346.625 60.25 347.625 60.25C349.625 60.25 351.5 59.875 353.25 59.125C355.75 59.125 358.208 59.0833 360.625 59C363.125 58.9167 365.625 58.875 368.125 58.875C370.292 58.875 372.458 58.9583 374.625 59.125C376.792 59.2917 378.917 59.5833 381 60C381.75 59.75 382.583 59.625 383.5 59.625C384.5 59.625 385.5 59.75 386.5 60C387.583 60.1667 388.625 60.1667 389.625 60C389.708 60.9167 389.917 61.7083 390.25 62.375C390.667 62.9583 390.875 63.6667 390.875 64.5Z" fill="white"/>
<path d="M507.875 30.875C507.875 33.7917 507.333 36.625 506.25 39.375C505.167 42.0417 504.375 44.7917 503.875 47.625C502.042 50.0417 500.333 52.5417 498.75 55.125C497.167 57.7083 495.542 60.2917 493.875 62.875C492.208 65.4583 490.458 67.9583 488.625 70.375C486.792 72.7083 484.708 74.8333 482.375 76.75C482.458 76.8333 482.5 77 482.5 77.25C482.5 77.75 482.25 78.1667 481.75 78.5C481.333 78.75 481.208 79.0833 481.375 79.5C479.292 81.6667 477.25 83.7917 475.25 85.875C473.25 87.9583 471.417 90.2917 469.75 92.875C467.917 93.7917 466.417 95.2917 465.25 97.375C464.75 97.375 464.375 97.5 464.125 97.75C463.875 97.9167 463.542 98.0833 463.125 98.25C460.458 101.5 457.667 104.583 454.75 107.5C451.833 110.417 448.708 113.083 445.375 115.5C444.125 116.417 442.875 117.25 441.625 118C440.375 118.75 439.167 119.542 438 120.375C437.25 120.875 436.5 121.458 435.75 122.125C435.083 122.792 434.375 123.417 433.625 124C431.208 126.083 428.833 127.833 426.5 129.25C424.167 130.583 421.417 131.5 418.25 132C418 132.917 417.875 133.917 417.875 135V138C417.875 139 417.833 140.042 417.75 141.125C417.667 142.125 417.375 143.083 416.875 144V144.375C416.875 145.208 417.083 146 417.5 146.75C417.917 147.583 418.125 148.417 418.125 149.25C418.125 149.833 417.833 150.333 417.25 150.75H420.5C420.5 151.917 420.833 152.917 421.5 153.75C422.25 154.583 422.625 155.208 422.625 155.625C422.625 157.042 422.458 158.583 422.125 160.25C421.875 162 421.042 163.167 419.625 163.75V164.5C419.625 165.333 419.542 166.125 419.375 166.875C419.208 167.708 418.833 168.5 418.25 169.25C417.75 169.25 417.25 169.25 416.75 169.25C416.333 169.333 415.917 169.375 415.5 169.375C412 169.375 408.875 168.542 406.125 166.875C405.208 164.708 404.583 162.458 404.25 160.125C404 157.875 403.875 155.583 403.875 153.25C403.875 148.667 404.208 144.125 404.875 139.625C405.542 135.125 406.083 130.625 406.5 126.125L408.375 122.5C408.542 120.167 408.833 117.833 409.25 115.5C409.667 113.083 410.083 110.708 410.5 108.375C410.917 106.042 411.25 103.708 411.5 101.375C411.833 99.0417 411.958 96.7083 411.875 94.375C412.542 92.9583 413 91.4583 413.25 89.875C413.583 88.2917 413.75 86.75 413.75 85.25C413.75 84.4167 413.708 83.5833 413.625 82.75C413.542 81.9167 413.292 81.125 412.875 80.375C413.375 80.0417 413.708 79.625 413.875 79.125C414.042 78.625 414.292 78.1667 414.625 77.75C414.875 74.5 415.083 71.2917 415.25 68.125C415.417 64.875 415.5 61.6667 415.5 58.5C415.5 56.75 415.458 55.0417 415.375 53.375C415.292 51.625 415.167 49.875 415 48.125C414.917 47.4583 414.75 46.6667 414.5 45.75C414.333 44.8333 414.25 44.125 414.25 43.625C414.25 42.9583 414.292 42.2917 414.375 41.625C414.458 40.875 414.5 40.125 414.5 39.375C414.5 38.5417 414.417 37.75 414.25 37C414.083 36.1667 413.792 35.4167 413.375 34.75C409.375 35.9167 405.792 37.5 402.625 39.5C399.458 41.4167 396.25 43.5833 393 46C391.667 46.9167 390.208 48 388.625 49.25C387.042 50.5 385.542 51.4583 384.125 52.125C383.875 52.2917 383.583 52.4167 383.25 52.5C382.833 52.5 382.5 52.5 382.25 52.5C381.333 52.5 380.5 52.4583 379.75 52.375C379 52.2083 378.25 52.125 377.5 52.125C376.333 50.9583 374.958 50.0417 373.375 49.375C373.125 48.375 373 47.2917 373 46.125C373 44.9583 373.125 43.8333 373.375 42.75C373.542 41.6667 373.833 40.5833 374.25 39.5C375.25 39.1667 376.333 38.7917 377.5 38.375C378.583 37.9583 379.667 37.5 380.75 37C381.75 36.4167 382.667 35.7917 383.5 35.125C384.333 34.375 385 33.4583 385.5 32.375C386 32.625 386.458 32.75 386.875 32.75C387.292 32.75 387.667 32.7083 388 32.625C388.333 32.5417 388.708 32.4583 389.125 32.375C390.625 31.4583 392.125 30.5 393.625 29.5C395.208 28.5 396.833 27.6667 398.5 27C399 26.8333 399.292 26.625 399.375 26.375C399.458 26.125 399.458 25.75 399.375 25.25C401.292 24.6667 403.292 24 405.375 23.25C407.458 22.4167 409.208 21.2917 410.625 19.875H412.875C414.125 18.9583 415.458 18.2083 416.875 17.625C418.292 17.0417 419.708 16.5 421.125 16C422.625 15.4167 424.083 14.8333 425.5 14.25C426.917 13.5833 428.25 12.75 429.5 11.75C430 11.5833 430.417 11.5 430.75 11.5C431.167 11.5 431.625 11.5833 432.125 11.75C432.958 11.3333 433.667 10.8333 434.25 10.25L436.25 8.25C437.583 8.25 438.792 8.125 439.875 7.875C440.958 7.625 442 7.29167 443 6.875C444 6.45833 444.958 6 445.875 5.5C446.875 4.91667 447.958 4.33333 449.125 3.75C449.625 3.91667 450 4.125 450.25 4.375C450.5 4.54167 450.917 4.625 451.5 4.625C452.333 4.04167 453.208 3.625 454.125 3.375C455.125 3.04167 456.125 2.79167 457.125 2.625C458.125 2.45833 459.083 2.25 460 2C461 1.75 461.875 1.29167 462.625 0.625C465.292 0.625 467.958 0.583333 470.625 0.5C473.375 0.333333 476.083 0.25 478.75 0.25C482.583 0.25 486.458 0.541667 490.375 1.125C494.375 1.70833 497.958 3.16667 501.125 5.5C502.375 8.5 504.167 11.0417 506.5 13.125C506.667 14.0417 506.833 14.9167 507 15.75C507.25 16.5 507.542 17.25 507.875 18C507.292 19.25 507 20.625 507 22.125C507 23.625 507.125 25.125 507.375 26.625C507.708 28.0417 507.875 29.4583 507.875 30.875ZM496.25 27.875C495.833 27.125 495.542 26.2917 495.375 25.375C495.292 24.375 495.292 23.4167 495.375 22.5C494.292 21.6667 493.458 20.5833 492.875 19.25C492.292 17.9167 491.458 16.9167 490.375 16.25C489.625 15.8333 488.542 15.5833 487.125 15.5C485.792 15.4167 484.667 15.25 483.75 15C482.667 14.6667 481.917 14.3333 481.5 14C481.167 13.6667 480.417 13.5 479.25 13.5C478.25 13.5 477.25 13.625 476.25 13.875C475.25 14.0417 474.25 14.125 473.25 14.125C472.417 14.125 471.625 13.9583 470.875 13.625C470.125 13.2917 469.333 13.125 468.5 13.125C467.583 13.125 466.708 13.4167 465.875 14C465.125 14.5833 464.208 14.75 463.125 14.5C462.625 14.9167 462.333 15.25 462.25 15.5C462.25 15.75 462.208 15.9583 462.125 16.125C462.042 16.2083 461.833 16.25 461.5 16.25H459.75C458 16.25 456.208 16.5 454.375 17C452.625 17.5 451.042 18.3333 449.625 19.5C449.375 19.4167 449.125 19.375 448.875 19.375C448.708 19.2917 448.5 19.25 448.25 19.25C446.833 19.25 445.458 19.6667 444.125 20.5C442.875 21.25 441.458 21.625 439.875 21.625C438.875 22.625 437.667 23.4167 436.25 24C434.833 24.5833 433.375 25.1667 431.875 25.75C430.458 26.25 429.125 26.875 427.875 27.625C426.625 28.2917 425.667 29.2917 425 30.625C424.917 31.2917 425.125 31.7083 425.625 31.875C426.125 32.0417 426.375 32.4583 426.375 33.125C426.375 33.7083 426.25 34.4167 426 35.25C425.833 36.0833 425.75 36.9167 425.75 37.75C425.75 39.6667 425.958 41.5417 426.375 43.375C426.792 45.2083 427.208 47.0833 427.625 49C427.208 49.25 426.917 49.625 426.75 50.125C426.583 50.625 426.292 51 425.875 51.25C427.042 54.75 427.625 58.3333 427.625 62C427.625 64.9167 427.292 67.7917 426.625 70.625C426.042 73.375 425.625 76.2083 425.375 79.125V79.25C425.375 79.75 425.542 80.0833 425.875 80.25C426.208 80.4167 426.375 80.7083 426.375 81.125C426.375 81.375 426.333 81.5833 426.25 81.75C425.333 87.4167 424.417 93.0833 423.5 98.75C422.667 104.417 421.958 110.125 421.375 115.875H422.375C424.542 115.875 426.458 115.25 428.125 114C429.875 112.667 431.333 111.208 432.5 109.625H434.5C440.5 104.375 446.25 98.9583 451.75 93.375C457.333 87.7917 462.625 81.7917 467.625 75.375C468.292 75.375 468.75 75.2083 469 74.875C469.25 74.5417 469.667 74.2917 470.25 74.125C472 71.7083 473.833 69.3333 475.75 67C477.667 64.5833 479.75 62.2917 482 60.125C482.083 59.2917 482.292 58.5417 482.625 57.875C483.042 57.2083 483.458 56.5833 483.875 56C484.292 55.4167 484.667 54.7917 485 54.125C485.333 53.4583 485.5 52.6667 485.5 51.75C485.917 51.5833 486.375 51.4167 486.875 51.25C487.375 51 487.833 50.6667 488.25 50.25C488.417 49.4167 488.708 48.6667 489.125 48C489.542 47.3333 489.75 46.5833 489.75 45.75C489.75 45.4167 489.667 45 489.5 44.5C490.833 43.9167 491.875 42.9583 492.625 41.625C493.375 40.2917 493.958 38.8333 494.375 37.25C494.792 35.5833 495.083 33.9167 495.25 32.25C495.5 30.5833 495.833 29.125 496.25 27.875ZM588.5 134.875C588.25 136.042 587.708 137 586.875 137.75C586.125 138.417 585.208 138.958 584.125 139.375C583.042 139.792 581.917 140.083 580.75 140.25C579.667 140.333 578.667 140.375 577.75 140.375C577.333 140.375 576.917 140.375 576.5 140.375C576.167 140.292 575.792 140.25 575.375 140.25C574.958 140.25 574.75 140.458 574.75 140.875C574.75 141.292 574.542 141.583 574.125 141.75C573.708 141.583 573.292 141.458 572.875 141.375C572.458 141.292 572.042 141.25 571.625 141.25C571.042 141.25 570.458 141.292 569.875 141.375C569.375 141.458 568.875 141.5 568.375 141.5C567.708 141.5 567.208 141.417 566.875 141.25C566.625 141.083 566.375 140.917 566.125 140.75C565.958 140.5 565.75 140.25 565.5 140C565.333 139.75 565.042 139.542 564.625 139.375C564.042 139.125 563.542 139.083 563.125 139.25C562.792 139.417 562.25 139.167 561.5 138.5C560.5 137.667 559.625 136.667 558.875 135.5C558.208 134.25 557.542 132.958 556.875 131.625C556.208 130.292 555.5 128.958 554.75 127.625C554 126.292 553.125 125.125 552.125 124.125H551.125C549.625 124.125 548.583 124.75 548 126C547.583 125.75 547.167 125.458 546.75 125.125C546.333 124.708 545.875 124.375 545.375 124.125C543.458 124.708 541.458 125.208 539.375 125.625C537.292 126.042 535.208 126.25 533.125 126.25H531.375C530.875 126.25 530.333 126.167 529.75 126C528.917 126.333 528.167 126.75 527.5 127.25C526.833 127.667 526.083 127.875 525.25 127.875C524.75 127.875 524.167 127.708 523.5 127.375C523 127.375 522.75 127.583 522.75 128C522.833 128.417 522.583 128.625 522 128.625H520.875C519.708 128.625 518.542 128.667 517.375 128.75C516.292 128.833 515.167 128.875 514 128.875C512.417 128.875 510.792 128.667 509.125 128.25C508.708 128.5 508.25 128.625 507.75 128.625C507.417 128.792 507.167 129.083 507 129.5C506.833 129.833 506.667 130.167 506.5 130.5C506.333 130.75 506.083 131 505.75 131.25C505.5 131.417 505.125 131.458 504.625 131.375C504.458 132.375 504.042 133.167 503.375 133.75C502.708 134.333 502.375 135.208 502.375 136.375C501.458 136.875 500.708 137.5 500.125 138.25C499.542 139 498.958 139.792 498.375 140.625C497.792 141.458 497.167 142.25 496.5 143C495.917 143.75 495.167 144.333 494.25 144.75C493.833 145.25 493.708 146.042 493.875 147.125C492.958 147.875 491.833 148.542 490.5 149.125C489.167 149.708 487.917 150 486.75 150C484.333 150 482.667 148.708 481.75 146.125C481.75 145.292 481.833 144.417 482 143.5C482.083 142.5 482.25 141.583 482.5 140.75C482.75 139.833 483.125 139.042 483.625 138.375C484.125 137.625 484.833 137.083 485.75 136.75C485.75 136 485.5 135.5 485 135.25C484.5 134.917 484.292 134.375 484.375 133.625C486.625 132.542 488.583 131.125 490.25 129.375C491.917 127.625 493.417 125.792 494.75 123.875C496.167 121.875 497.583 119.875 499 117.875C500.417 115.875 502 114.083 503.75 112.5V109.875C506.25 107.208 507.875 104.208 508.625 100.875C509.542 100.708 510.125 100.292 510.375 99.625C510.708 98.9583 510.875 98.1667 510.875 97.25C511.292 97.25 511.542 97.0833 511.625 96.75C511.792 96.3333 512.167 96.2083 512.75 96.375C513.5 94.375 514.333 92.5417 515.25 90.875C516.167 89.2083 517.083 87.5417 518 85.875C518.917 84.125 519.708 82.3333 520.375 80.5C521.125 78.6667 521.667 76.625 522 74.375C523.167 74.2917 523.792 73.75 523.875 72.75C524.042 71.6667 524.208 70.7083 524.375 69.875C525.625 68.7083 526.542 67.3333 527.125 65.75C527.792 64.1667 528.375 62.5417 528.875 60.875C529.375 59.125 529.917 57.4167 530.5 55.75C531.167 54 532.083 52.4583 533.25 51.125V50.75C533.25 50.3333 533.083 50.0833 532.75 50C532.417 49.8333 532.25 49.5417 532.25 49.125C532.333 49.0417 532.375 48.9583 532.375 48.875C533.375 48.4583 534.125 47.7917 534.625 46.875C535.125 45.875 535.875 45.1667 536.875 44.75C538.625 46.1667 540.167 47.0417 541.5 47.375C542.833 47.625 544.583 47.8333 546.75 48C547.833 49.1667 548.417 50.5833 548.5 52.25C548.667 53.8333 548.958 55.4167 549.375 57C550.042 59.6667 550.75 62.2917 551.5 64.875C552.333 67.375 552.958 69.9583 553.375 72.625C553.625 74.2083 554.083 75.7083 554.75 77.125C555.417 78.5417 555.875 80 556.125 81.5C556.292 82.6667 556.292 84 556.125 85.5C555.958 86.9167 556.125 88.1667 556.625 89.25L557.5 91.25C557.917 92.1667 558.25 93.125 558.5 94.125C558.833 95.125 559.125 96.125 559.375 97.125C560.042 99.625 560.625 102.333 561.125 105.25C561.708 108.083 562.583 110.667 563.75 113C564.167 113.833 564.792 114.417 565.625 114.75C566.542 115.083 567.542 115.333 568.625 115.5C569.708 115.583 570.75 115.625 571.75 115.625C572.833 115.542 573.75 115.5 574.5 115.5H575.75C576.25 115.5 576.75 115.583 577.25 115.75C577.583 116.417 577.75 117 577.75 117.5C577.75 118.5 577.417 119.292 576.75 119.875C576.083 120.458 575.75 121.125 575.75 121.875C575.75 122.292 575.917 122.75 576.25 123.25C575.917 123.167 575.417 123.125 574.75 123.125C572.833 123.125 570.958 123.458 569.125 124.125C569.792 125.542 570.667 126.75 571.75 127.75C572.917 128.667 574.125 129.542 575.375 130.375C576.208 129.708 577.083 129.375 578 129.375C579 129.375 579.917 129.625 580.75 130.125C581.667 130.542 582.625 130.75 583.625 130.75C584.375 130.75 584.917 130.625 585.25 130.375C585.917 131.125 586.458 131.917 586.875 132.75C587.292 133.5 587.833 134.208 588.5 134.875ZM549.375 114.875C549.208 113.458 548.917 112.458 548.5 111.875C548.167 111.208 547.875 110.417 547.625 109.5C547.292 108.333 547.042 107.083 546.875 105.75C546.792 104.417 546.625 103.125 546.375 101.875C545.792 99.0417 545.125 96.2083 544.375 93.375C543.708 90.5417 542.833 87.7917 541.75 85.125C542.083 84.625 542.25 84.1667 542.25 83.75V83.375C541.5 82.5417 540.958 81.5417 540.625 80.375C540.292 79.125 539.958 77.9167 539.625 76.75C539.375 75.5 539 74.375 538.5 73.375C538.083 72.2917 537.375 71.4167 536.375 70.75C536.125 71.25 536 71.8333 536 72.5C536 73.0833 536.042 73.625 536.125 74.125C536.292 74.625 536.375 75.1667 536.375 75.75C535.542 76.1667 534.917 76.8333 534.5 77.75C534.167 78.5833 533.583 79.25 532.75 79.75C532.083 82.4167 531.125 84.9583 529.875 87.375C528.625 89.7083 527.292 92.0417 525.875 94.375C524.542 96.7083 523.25 99.0833 522 101.5C520.75 103.833 519.75 106.292 519 108.875C517.917 109.625 517.167 110.583 516.75 111.75C516.417 112.917 516.25 114.083 516.25 115.25C517 115.667 517.833 115.917 518.75 116C519.75 116 520.708 116 521.625 116C522.542 116 523.417 116.083 524.25 116.25C525.083 116.417 525.833 116.833 526.5 117.5C527.583 117.167 528.75 116.958 530 116.875C531.333 116.708 532.417 116.333 533.25 115.75C534.917 116.333 536.708 116.625 538.625 116.625C539.625 116.625 540.583 116.542 541.5 116.375C542.5 116.208 543.458 116 544.375 115.75C545.125 115.917 545.708 116.208 546.125 116.625C546.542 116.958 547.167 117.083 548 117C548.417 116.667 548.667 116.333 548.75 116C548.833 115.583 549.042 115.208 549.375 114.875ZM614.5 126.875C614.083 127.542 613.583 128.167 613 128.75C612.417 129.25 611.875 129.792 611.375 130.375C610.792 130.625 610.125 130.75 609.375 130.75C608.708 130.75 608.042 130.75 607.375 130.75C606.792 130.667 606.208 130.667 605.625 130.75C605.125 130.75 604.708 130.917 604.375 131.25C603.708 131.083 603.208 130.792 602.875 130.375C602.542 129.875 601.958 129.583 601.125 129.5C600.792 129.417 600.458 129.417 600.125 129.5C598.875 128.083 597.708 126.583 596.625 125C595.625 123.417 594.667 121.917 593.75 120.5C593.667 117.417 593.417 114.292 593 111.125C592.917 110.375 592.792 109.625 592.625 108.875C592.458 108.125 592.333 107.417 592.25 106.75C592.25 105.917 592.292 105.125 592.375 104.375C592.542 103.542 592.667 102.792 592.75 102.125C593.083 99.7083 593.458 97.3333 593.875 95C594.292 92.6667 594.667 90.2917 595 87.875C595.333 85.7083 595.5 83.4583 595.5 81.125C595.5 78.7083 595.125 76.4583 594.375 74.375L594.25 73.75C594.417 73.0833 594.583 72.5417 594.75 72.125C595 71.625 595.167 71.0833 595.25 70.5C595.417 69.5833 595.208 68.9167 594.625 68.5C594.875 67.8333 595.292 67.4167 595.875 67.25C596.458 67 596.792 66.5 596.875 65.75C596.958 65.4167 596.958 65.0833 596.875 64.75C597.542 64.5 598.208 64.2917 598.875 64.125C599.625 63.875 600.333 63.8333 601 64C602.083 64.1667 603.042 64.5417 603.875 65.125C604.708 65.625 605.5 66.2083 606.25 66.875C607.583 70.875 608.125 75.125 607.875 79.625C607.625 84.0417 607.208 88.5 606.625 93C606.042 97.5 605.667 101.917 605.5 106.25C605.333 110.5 606 114.458 607.5 118.125L607.75 118.25C608.167 118.333 608.5 118.208 608.75 117.875C609 117.458 609.333 117.292 609.75 117.375C610.083 117.542 610.292 117.625 610.375 117.625C610.708 119.292 611.25 120.875 612 122.375C612.75 123.875 613.583 125.375 614.5 126.875ZM708.625 61.875C708.458 62.875 708.208 63.75 707.875 64.5C707.625 65.1667 707.583 66.0833 707.75 67.25C706.917 67.3333 706.25 67.625 705.75 68.125C705.333 68.5417 704.958 69.0417 704.625 69.625C704.375 70.2083 704.083 70.8333 703.75 71.5C703.5 72.0833 703.167 72.625 702.75 73.125C703.417 76.125 703.792 79.1667 703.875 82.25C703.958 85.3333 704.167 88.375 704.5 91.375C704.917 95.2083 705.542 99 706.375 102.75C707.292 106.417 707.75 110.167 707.75 114C707.75 115.167 707.708 116.25 707.625 117.25C707.625 118.25 707.625 119.292 707.625 120.375C707.625 121.042 707.625 121.75 707.625 122.5C707.708 123.167 707.75 123.833 707.75 124.5C707.75 126.917 707.417 129.333 706.75 131.75C706.167 134.167 705.708 136.583 705.375 139C704.375 139.917 703.5 140.917 702.75 142C702.083 143.083 701.375 144.083 700.625 145C699.875 145.917 699 146.708 698 147.375C697 148.125 695.75 148.625 694.25 148.875C694 149.708 693.5 150.333 692.75 150.75C692.083 151.167 691.5 151.75 691 152.5H690.75C688.667 152.5 686.875 152.208 685.375 151.625C683.875 151.042 682.458 150.375 681.125 149.625C679.875 148.875 678.583 148.083 677.25 147.25C675.917 146.417 674.375 145.75 672.625 145.25C670.292 143.333 668.167 141.25 666.25 139C664.333 136.667 662.167 134.583 659.75 132.75C659.167 131.083 658.375 129.708 657.375 128.625C656.458 127.542 655.542 126.292 654.625 124.875C654.208 124.292 653.875 123.75 653.625 123.25C653.458 122.75 653.208 122.167 652.875 121.5C652.625 120.833 652.208 120.375 651.625 120.125C651.125 119.875 650.667 119.583 650.25 119.25C649.583 116.667 648.625 114.292 647.375 112.125C646.125 109.958 644.667 107.875 643 105.875C642.5 106.792 642.083 107.792 641.75 108.875C641.5 109.875 641.25 110.917 641 112C640.75 113 640.417 114.042 640 115.125C639.667 116.125 639.208 117.042 638.625 117.875V118.25C638.625 118.667 638.792 118.917 639.125 119C639.458 119.083 639.625 119.333 639.625 119.75C639.625 119.833 639.583 119.917 639.5 120C639.5 120.083 639.5 120.167 639.5 120.25C639.083 120.583 638.75 121 638.5 121.5C638.333 122 637.917 122.292 637.25 122.375C637.333 122.792 637.375 123.208 637.375 123.625V124.75C637.375 127.167 637.083 129.583 636.5 132C636 134.417 635.75 136.875 635.75 139.375V141C635.75 141.583 635.792 142.125 635.875 142.625C636.042 143.125 636.292 143.625 636.625 144.125C636.958 144.625 637.125 145.083 637.125 145.5C637.125 146.083 636.875 146.625 636.375 147.125C636.958 147.542 637.625 148 638.375 148.5C639.125 149 639.792 149.542 640.375 150.125C641.042 150.792 641.583 151.458 642 152.125C642.417 152.875 642.625 153.667 642.625 154.5C642.625 155.917 642.167 156.917 641.25 157.5C640.333 158.083 639.208 158.542 637.875 158.875C636.625 159.208 635.292 159.5 633.875 159.75C632.542 160.083 631.417 160.625 630.5 161.375H630.125C629.125 161.375 628.375 161.083 627.875 160.5C627.375 159.917 626.625 159.625 625.625 159.625C624.042 157.042 622.958 154.125 622.375 150.875C621.792 147.708 621.5 144.667 621.5 141.75C621.5 138.167 621.833 134.583 622.5 131C623.083 127.417 623.833 123.875 624.75 120.375C625.583 116.875 626.5 113.417 627.5 110C628.583 106.5 629.583 103 630.5 99.5L630.625 99.125C630.625 98.7083 630.5 98.4167 630.25 98.25C630.083 98.0833 630 97.8333 630 97.5C630 97.3333 630.042 97.25 630.125 97.25C630.375 96.4167 630.625 95.625 630.875 94.875C631.208 94.125 631.458 93.2917 631.625 92.375C632.125 90.0417 632.458 87.6667 632.625 85.25C632.875 82.75 633 80.2917 633 77.875C633.083 75.4583 633.167 73.0417 633.25 70.625C633.417 68.125 633.708 65.6667 634.125 63.25C634.792 62.5833 635.417 61.875 636 61.125C636.583 60.375 637.333 59.7083 638.25 59.125C639.917 59.2083 641.583 59.4583 643.25 59.875C644.917 60.2917 646.5 60.9583 648 61.875C649 65.4583 649.667 69.0417 650 72.625C650.417 76.2083 651.083 79.7917 652 83.375V83.75C652 84.1667 652.208 84.375 652.625 84.375C653.125 84.2917 653.5 84.4167 653.75 84.75C653.583 85 653.458 85.2917 653.375 85.625C653.375 85.9583 653.375 86.2917 653.375 86.625V88.75C653.542 89.4167 653.75 90.125 654 90.875C654.25 91.625 654.792 92.0833 655.625 92.25C656.042 94.9167 656.667 97.375 657.5 99.625C658.333 101.875 659.292 104.042 660.375 106.125C661.458 108.208 662.625 110.292 663.875 112.375C665.125 114.375 666.417 116.5 667.75 118.75C669.833 120.333 671.625 122.167 673.125 124.25C674.625 126.25 676.125 128.208 677.625 130.125C679.208 131.958 680.958 133.583 682.875 135C684.875 136.417 687.458 137.292 690.625 137.625C691.042 137.292 691.333 136.833 691.5 136.25L692.125 134.5C692.375 133.917 692.625 133.417 692.875 133C693.208 132.5 693.667 132.125 694.25 131.875C694.417 129.542 694.583 127.167 694.75 124.75C695 122.333 695.542 120.042 696.375 117.875C695.958 117.125 695.75 116.208 695.75 115.125C695.75 114.292 695.792 113.5 695.875 112.75C696.042 112 696.125 111.25 696.125 110.5C696.125 108.917 695.792 107.625 695.125 106.625C695.125 106.042 695.167 105.458 695.25 104.875C695.333 104.208 695.583 103.583 696 103C695.333 101.333 694.792 99.5833 694.375 97.75C694.042 95.9167 693.875 94.0417 693.875 92.125C693.875 91.0417 694 89.9167 694.25 88.75C693.75 87.5 693.417 86.0417 693.25 84.375L692.75 79.25C692.583 77.5 692.333 75.875 692 74.375C691.667 72.875 691.042 71.6667 690.125 70.75C690.625 70 690.875 69.125 690.875 68.125C690.875 66.4583 690.625 64.875 690.125 63.375C689.625 61.875 689.375 60.2917 689.375 58.625C689.375 57.4583 689.625 56.2917 690.125 55.125C691.958 55.2083 693.75 55.4167 695.5 55.75C697.333 56 699.125 56.125 700.875 56.125C701.375 56.7917 701.958 57.3333 702.625 57.75C703.292 58.1667 704 58.5833 704.75 59C705.5 59.3333 706.208 59.7083 706.875 60.125C707.625 60.5417 708.208 61.125 708.625 61.875ZM828.75 63.625C828.417 64.7083 827.875 65.7083 827.125 66.625L825 69.25C824.333 70.0833 823.75 71 823.25 72C822.833 72.9167 822.708 74 822.875 75.25C822.708 75.25 822.5 75.25 822.25 75.25C822 75.1667 821.792 75.125 821.625 75.125C820.292 75.125 819.25 75.4583 818.5 76.125C817.833 76.7083 816.917 77.2083 815.75 77.625C815.583 77.125 815.375 76.6667 815.125 76.25C814.875 75.75 814.5 75.4167 814 75.25C812 75.6667 810 76 808 76.25C806 76.4167 804 76.6667 802 77C801.083 77.1667 800.167 77.4167 799.25 77.75C798.333 78 797.375 78.25 796.375 78.5C795.875 78.6667 795.333 78.75 794.75 78.75C794.167 78.6667 793.583 78.6667 793 78.75C791 78.8333 788.833 79 786.5 79.25C784.167 79.4167 782.083 80.0417 780.25 81.125C779.417 80.9583 778.542 80.8333 777.625 80.75C776.708 80.6667 775.792 80.625 774.875 80.625C772.875 80.625 770.667 80.8333 768.25 81.25C765.917 81.5833 763.833 82.2917 762 83.375C761.583 83.2083 761.125 83.0833 760.625 83C760.208 82.9167 759.708 82.875 759.125 82.875C758.958 82.875 758.833 82.9167 758.75 83C758.667 83 758.542 83 758.375 83C758.292 83.75 758.375 84.5 758.625 85.25C758.958 85.9167 759.5 86.4583 760.25 86.875C759.917 87.7917 759.75 88.7917 759.75 89.875C759.75 91.2917 759.833 92.7083 760 94.125C760.25 95.5417 760.375 96.9583 760.375 98.375C760.375 99.9583 760.167 101.208 759.75 102.125C760.583 104.625 761 107.292 761 110.125C761 111.125 760.917 112.125 760.75 113.125C760.667 114.042 760.625 115.042 760.625 116.125C760.625 117.042 760.958 117.792 761.625 118.375C762.292 118.875 762.625 119.583 762.625 120.5C762.625 120.833 762.542 121.167 762.375 121.5C763.542 121.25 764.667 120.917 765.75 120.5C766.833 120 767.958 119.75 769.125 119.75C769.792 119.75 770.417 119.875 771 120.125C771.667 120.375 772.25 120.708 772.75 121.125C772.667 121.542 772.583 122 772.5 122.5C772.5 123 772.5 123.5 772.5 124C772.5 124.917 772.5 125.792 772.5 126.625C772.583 127.375 772.667 128.208 772.75 129.125C772.083 130.292 771.292 131.333 770.375 132.25C769.542 133.167 768.958 134.333 768.625 135.75C767.375 135.75 766.25 136.042 765.25 136.625C764.333 137.125 763.458 137.708 762.625 138.375C761.792 138.958 760.958 139.542 760.125 140.125C759.292 140.625 758.375 140.875 757.375 140.875C756.125 140.875 755.25 140.708 754.75 140.375C754.25 139.958 753.875 139.542 753.625 139.125C753.375 138.708 753.125 138.333 752.875 138C752.708 137.667 752.292 137.542 751.625 137.625C751.458 136.542 751.125 135.542 750.625 134.625C750.125 133.625 749.583 132.667 749 131.75C748.5 130.833 747.958 129.917 747.375 129C746.875 128 746.5 127 746.25 126C745.75 123.833 745.542 121.583 745.625 119.25C745.708 116.917 745.333 114.667 744.5 112.5C744.667 111.333 744.792 110.167 744.875 109C744.958 107.75 745 106.542 745 105.375C745 103.042 744.917 100.75 744.75 98.5C744.667 96.1667 744.583 93.7917 744.5 91.375C743.917 90.625 743.542 89.7917 743.375 88.875C743.292 87.875 743.208 86.9167 743.125 86C742.875 85.75 742.583 85.5 742.25 85.25C742 85 741.833 84.6667 741.75 84.25C741.083 84.0833 740.583 84 740.25 84C739.083 84 738.083 84.2917 737.25 84.875C736.5 85.375 735.792 85.625 735.125 85.625C734.458 85.625 733.833 85.5417 733.25 85.375C732.667 85.2083 732.083 85.125 731.5 85.125C731 85.125 730.708 85.25 730.625 85.5C730.625 85.6667 730.458 85.8333 730.125 86C729.875 86.1667 729.292 86.3333 728.375 86.5C727.458 86.6667 726.417 86.8333 725.25 87C724.167 87.0833 723.083 87.1667 722 87.25C721 87.3333 720.333 87.375 720 87.375C718.667 87.375 717.667 87.125 717 86.625C716.25 86.0417 715.375 85.4167 714.375 84.75C714.542 84.25 714.625 83.9167 714.625 83.75C714.625 82.9167 714.375 82.25 713.875 81.75C713.375 81.1667 713.125 80.6667 713.125 80.25C713.125 79.3333 713.5 78.625 714.25 78.125C714.917 77.625 715.292 76.8333 715.375 75.75C717.292 74.9167 719.25 74.2917 721.25 73.875C723.25 73.4583 725.292 73.125 727.375 72.875C729.458 72.625 731.5 72.3333 733.5 72C735.583 71.6667 737.625 71.125 739.625 70.375C740.208 70.4583 740.75 70.5417 741.25 70.625C741.833 70.625 742.417 70.625 743 70.625C745.5 70.625 747.958 70.375 750.375 69.875C752.875 69.2917 755.417 69 758 69C758.667 69 759.333 69.0417 760 69.125C760.667 69.2083 761.333 69.3333 762 69.5C765.333 69 768.625 68.4583 771.875 67.875C775.208 67.2917 778.625 66.7917 782.125 66.375C783.792 66.2083 785.417 66.0833 787 66C788.667 65.8333 790.333 65.625 792 65.375C792.583 65.2917 793 65.1667 793.25 65C793.583 64.75 793.75 64.2917 793.75 63.625C794.5 63.9583 795.333 64.125 796.25 64.125C797.667 64.125 799.042 63.875 800.375 63.375C801.708 62.875 803.083 62.625 804.5 62.625C804.833 62.625 805.125 62.6667 805.375 62.75C805.625 62.75 805.875 62.75 806.125 62.75C806.708 62.75 807 62.5 807 62C807.083 61.4167 807.5 61.0417 808.25 60.875C808.833 60.7083 809.667 60.5833 810.75 60.5C811.833 60.4167 812.958 60.3333 814.125 60.25C815.375 60.0833 816.5 59.9167 817.5 59.75C818.583 59.5 819.375 59.1667 819.875 58.75L820.75 57.375C822.25 57.4583 823.333 58.125 824 59.375C824.75 60.5417 825.167 61.8333 825.25 63.25C825.583 63.5833 826.042 63.75 826.625 63.75C827.292 63.6667 827.875 63.625 828.375 63.625H828.75Z" fill="#FF9500"/>
</svg>
