<svg width="813" height="1163" viewBox="0 0 813 1163" fill="none" xmlns="http://www.w3.org/2000/svg">
<rect x="192" y="122" width="426" height="634" rx="70" fill="#FF9500"/>
<path d="M365.564 379C365.564 379 337.963 553.975 333.942 594.067C329.921 634.159 323.646 696.729 323.646 696.729C598.922 657.529 591.579 492.569 365.564 379Z" fill="black"/>
<path d="M354.139 177.201C354.139 177.201 344.608 272.229 338.501 333.119C332.394 394.008 322.864 489.037 322.864 489.037C615.043 363.642 577.329 295.938 354.139 177.201Z" fill="black"/>
<path d="M368.769 217.274L327.064 670.38L350.645 672.381L370.456 445.112L368.769 217.274Z" fill="black"/>
<path d="M331.431 165.059C331.431 165.059 325.529 276.575 321.747 348.03C317.966 419.484 312.064 531 312.064 531C567.013 338.753 524.828 260.769 331.431 165.059Z" fill="#FF9500"/>
<path d="M269.564 706L303.376 183.659L345.376 183.66L269.564 706Z" fill="white"/>
<path d="M206.504 929.398C206.504 930.245 206.276 931.026 205.82 931.742C205.365 932.393 205.234 933.174 205.43 934.086C205.169 934.542 204.811 934.9 204.355 935.16C203.965 935.421 203.835 935.909 203.965 936.625C202.598 937.341 201.328 938.253 200.156 939.359C199.049 940.401 197.845 941.41 196.543 942.387C195.762 942.973 195.078 943.396 194.492 943.656C193.971 943.852 193.32 944.177 192.539 944.633L190.098 946.195C188.991 946.781 187.852 947.367 186.68 947.953C185.573 948.539 184.564 949.288 183.652 950.199C182.285 950.264 180.885 950.622 179.453 951.273C178.021 951.99 176.654 952.608 175.352 953.129C174.831 953.324 174.31 953.454 173.789 953.52C173.268 953.65 172.747 953.845 172.227 954.105L170.664 954.789C169.753 955.245 168.678 955.701 167.441 956.156C166.204 956.677 165.098 956.938 164.121 956.938C163.535 957.198 163.047 957.654 162.656 958.305C160.508 959.021 158.294 959.574 156.016 959.965C153.737 960.355 151.523 960.974 149.375 961.82C148.659 962.146 147.91 962.569 147.129 963.09C146.413 963.676 145.632 963.936 144.785 963.871C144.59 964.197 144.46 964.587 144.395 965.043C144.329 965.499 144.232 965.954 144.102 966.41H143.809C143.548 966.41 143.418 966.28 143.418 966.02C143.483 965.759 143.385 965.629 143.125 965.629C142.93 965.629 142.799 965.661 142.734 965.727C141.888 965.922 141.074 966.085 140.293 966.215C139.577 966.345 138.763 966.41 137.852 966.41C137.331 966.41 136.484 966.345 135.312 966.215C134.206 966.085 133.392 965.922 132.871 965.727C132.48 965.531 132.155 965.173 131.895 964.652C131.634 964.132 131.374 963.578 131.113 962.992C130.918 962.406 130.723 961.788 130.527 961.137C130.397 960.551 130.267 960.062 130.137 959.672C130.332 958.956 130.658 958.37 131.113 957.914C131.569 957.458 131.927 956.872 132.188 956.156C132.773 956.091 133.359 955.993 133.945 955.863C134.531 955.733 135.117 955.701 135.703 955.766C137.721 955.18 139.74 954.594 141.758 954.008C143.841 953.487 145.892 952.934 147.91 952.348C149.928 951.762 151.914 951.111 153.867 950.395C155.82 949.678 157.708 948.799 159.531 947.758H161.582C162.754 947.107 164.056 946.553 165.488 946.098C166.921 945.642 168.092 944.893 169.004 943.852C171.152 943.396 173.398 942.777 175.742 941.996C178.086 941.215 180.039 939.978 181.602 938.285C182.578 938.155 183.424 937.927 184.141 937.602C184.857 937.211 185.54 936.82 186.191 936.43L188.145 935.16C188.796 934.704 189.544 934.346 190.391 934.086C190.911 933.565 191.4 933.012 191.855 932.426C192.311 931.84 192.865 931.352 193.516 930.961C193.32 929.919 192.799 929.138 191.953 928.617C191.107 928.096 190.358 927.478 189.707 926.762H187.559C185.866 925.72 184.043 924.939 182.09 924.418C180.202 923.832 178.314 923.214 176.426 922.562C176.296 922.497 176.133 922.465 175.938 922.465C175.482 922.465 175.189 922.628 175.059 922.953C174.993 923.279 174.733 923.409 174.277 923.344C173.691 922.953 173.073 922.725 172.422 922.66C171.771 922.53 171.087 922.465 170.371 922.465C169.46 922.465 168.548 922.53 167.637 922.66C166.79 922.725 165.911 922.758 165 922.758C164.544 922.758 164.089 922.725 163.633 922.66C163.177 922.595 162.721 922.432 162.266 922.172H160.996C159.629 922.172 158.262 922.237 156.895 922.367C155.592 922.432 154.29 922.465 152.988 922.465C152.272 922.465 151.589 922.465 150.938 922.465C150.286 922.4 149.635 922.302 148.984 922.172C147.617 922.823 146.152 923.279 144.59 923.539C143.027 923.799 141.4 923.995 139.707 924.125C138.079 924.255 136.452 924.385 134.824 924.516C133.197 924.581 131.634 924.743 130.137 925.004C129.746 924.939 129.355 924.906 128.965 924.906C128.639 924.841 128.314 924.809 127.988 924.809C127.663 924.809 127.305 924.841 126.914 924.906C126.589 924.906 126.263 924.939 125.938 925.004C125.091 924.092 124.049 923.441 122.812 923.051C121.641 922.595 120.469 922.302 119.297 922.172C118.385 921.065 117.702 919.958 117.246 918.852C116.855 917.68 116.595 916.378 116.465 914.945H116.855C117.311 914.945 117.507 914.717 117.441 914.262C117.441 913.806 117.604 913.415 117.93 913.09C118.255 912.699 118.678 912.439 119.199 912.309C119.785 912.113 120.339 911.918 120.859 911.723C121.38 911.527 121.868 911.299 122.324 911.039C122.845 910.714 123.236 910.225 123.496 909.574H124.766C125.026 909.574 125.286 909.607 125.547 909.672C125.872 909.672 126.133 909.77 126.328 909.965C126.589 909.704 126.914 909.477 127.305 909.281C127.695 909.086 128.053 908.891 128.379 908.695C128.77 908.5 129.095 908.272 129.355 908.012C129.616 907.751 129.779 907.361 129.844 906.84C129.909 907.035 130.072 907.133 130.332 907.133C130.592 907.133 130.82 907.068 131.016 906.938C131.276 906.807 131.569 906.775 131.895 906.84C132.22 905.928 132.773 905.44 133.555 905.375C134.336 905.31 135.052 905.082 135.703 904.691C136.159 904.431 136.582 904.138 136.973 903.812C137.363 903.422 137.786 903.064 138.242 902.738L144.102 898.246L153.086 891.41C156.081 889.132 159.141 887.016 162.266 885.062C162.396 884.672 162.591 884.379 162.852 884.184C163.112 883.988 163.372 883.793 163.633 883.598C163.893 883.337 164.089 883.077 164.219 882.816C164.414 882.556 164.479 882.165 164.414 881.645C165.326 881.449 166.009 881.091 166.465 880.57C166.986 880.049 167.441 879.496 167.832 878.91C168.223 878.259 168.613 877.641 169.004 877.055C169.46 876.404 170.046 875.915 170.762 875.59C170.697 875.395 170.664 875.102 170.664 874.711C170.664 874.19 170.697 873.669 170.762 873.148C170.892 872.628 171.152 872.172 171.543 871.781C170.957 870.414 169.948 869.438 168.516 868.852C167.083 868.201 165.716 867.647 164.414 867.191H164.121C163.796 867.191 163.6 867.354 163.535 867.68C163.535 867.94 163.372 868.135 163.047 868.266C162.005 868.005 160.833 867.875 159.531 867.875C158.229 867.875 156.927 867.973 155.625 868.168C154.388 868.363 153.118 868.396 151.816 868.266C151.621 868.526 151.393 868.786 151.133 869.047C150.938 869.307 150.677 869.535 150.352 869.73C148.984 869.796 147.617 869.991 146.25 870.316L142.148 871.293L139.902 871.781C139.577 871.911 139.349 872.139 139.219 872.465C139.089 872.79 138.991 873.148 138.926 873.539C138.535 873.474 138.275 873.311 138.145 873.051C138.079 872.79 137.852 872.595 137.461 872.465C135.964 873.376 134.336 874.125 132.578 874.711C130.885 875.297 129.355 876.208 127.988 877.445C127.533 876.924 126.882 876.664 126.035 876.664C125.319 876.664 124.538 876.892 123.691 877.348C122.845 877.803 122.324 878.389 122.129 879.105C121.478 878.975 120.99 878.91 120.664 878.91C119.948 878.91 119.329 879.105 118.809 879.496C118.353 879.887 117.897 880.342 117.441 880.863C116.986 881.319 116.497 881.775 115.977 882.23C115.456 882.686 114.805 882.947 114.023 883.012C114.023 883.337 114.023 883.695 114.023 884.086C114.089 884.411 114.121 884.77 114.121 885.16C114.121 888.09 113.958 891.02 113.633 893.949C113.307 896.814 113.145 899.711 113.145 902.641C113.145 903.292 113.177 903.943 113.242 904.594C113.307 905.18 113.34 905.831 113.34 906.547C113.34 906.742 113.177 907.165 112.852 907.816C112.591 908.467 112.396 908.956 112.266 909.281C112.526 909.997 112.624 910.714 112.559 911.43C112.559 912.146 112.721 912.829 113.047 913.48C112.461 914.001 112.168 914.717 112.168 915.629C112.168 916.02 112.168 916.41 112.168 916.801C112.233 917.191 112.266 917.582 112.266 917.973V919.145C112.07 920.447 111.94 921.781 111.875 923.148C111.81 924.451 111.777 925.753 111.777 927.055C111.777 927.641 111.777 928.65 111.777 930.082C111.842 931.449 111.94 933.012 112.07 934.77C112.201 936.462 112.396 938.22 112.656 940.043C112.917 941.866 113.242 943.559 113.633 945.121C114.089 946.618 114.642 947.855 115.293 948.832C115.944 949.809 116.725 950.297 117.637 950.297C117.832 950.297 118.06 950.264 118.32 950.199C118.646 950.134 118.809 949.971 118.809 949.711C118.809 949.451 118.743 949.223 118.613 949.027C118.548 948.832 118.516 948.604 118.516 948.344L118.613 948.148C119.134 948.409 119.688 948.572 120.273 948.637C120.924 948.702 121.576 948.767 122.227 948.832C122.878 948.897 123.496 948.995 124.082 949.125C124.668 949.32 125.189 949.678 125.645 950.199C125.384 950.72 125.254 951.273 125.254 951.859C125.254 952.641 125.449 953.357 125.84 954.008C126.23 954.724 126.491 955.44 126.621 956.156C125.384 956.547 124.245 956.97 123.203 957.426C122.227 957.947 121.25 958.402 120.273 958.793C119.297 959.249 118.255 959.639 117.148 959.965C116.042 960.355 114.772 960.616 113.34 960.746C112.428 960.16 111.647 959.639 110.996 959.184C110.345 958.728 109.466 958.435 108.359 958.305C106.667 956.026 105.267 953.454 104.16 950.59C103.053 947.79 102.174 944.861 101.523 941.801C100.938 938.741 100.514 935.681 100.254 932.621C100.059 929.496 99.9609 926.566 99.9609 923.832C99.9609 920.837 100.059 917.875 100.254 914.945C100.514 911.951 100.84 908.956 101.23 905.961C101.361 905.049 101.491 904.138 101.621 903.227C101.751 902.25 101.882 901.306 102.012 900.395C102.142 900.069 102.24 899.711 102.305 899.32C102.435 898.865 102.5 898.474 102.5 898.148C102.5 897.042 102.467 895.935 102.402 894.828C102.337 893.721 102.305 892.647 102.305 891.605C102.305 889.978 102.402 888.318 102.598 886.625C102.663 886.299 102.76 885.876 102.891 885.355C103.086 884.835 103.184 884.379 103.184 883.988C103.184 883.467 103.053 883.109 102.793 882.914C102.533 882.719 102.305 882.393 102.109 881.938C102.305 881.286 102.467 880.668 102.598 880.082C102.728 879.431 102.793 878.78 102.793 878.129C102.793 876.892 102.565 875.818 102.109 874.906C102.435 873.214 102.923 871.553 103.574 869.926C104.225 868.298 105.365 867.061 106.992 866.215C108.294 866.28 109.596 866.41 110.898 866.605C112.266 866.801 113.438 867.354 114.414 868.266C114.87 868.005 115.391 867.842 115.977 867.777L117.832 867.582C118.483 867.517 119.069 867.419 119.59 867.289C120.111 867.094 120.566 866.736 120.957 866.215C122.259 865.954 123.659 865.596 125.156 865.141C126.654 864.62 127.956 864.034 129.062 863.383H131.211C131.667 863.057 132.188 862.829 132.773 862.699L134.629 862.211C135.28 862.016 135.866 861.82 136.387 861.625C136.973 861.43 137.428 861.104 137.754 860.648H138.145C139.642 860.648 141.107 860.323 142.539 859.672C143.971 859.021 145.371 858.435 146.738 857.914C147.064 857.784 147.552 857.556 148.203 857.23C148.919 856.905 149.408 856.742 149.668 856.742C150.579 856.612 151.491 856.547 152.402 856.547C153.314 856.482 154.225 856.352 155.137 856.156C157.22 855.831 159.271 855.473 161.289 855.082C163.372 854.626 165.456 854.398 167.539 854.398C168.255 854.398 168.906 854.431 169.492 854.496C170.143 854.496 170.827 854.529 171.543 854.594C171.608 854.854 171.771 855.082 172.031 855.277C172.292 855.408 172.52 855.538 172.715 855.668C172.975 855.798 173.203 855.993 173.398 856.254C173.594 856.449 173.659 856.742 173.594 857.133C173.724 857.263 173.854 857.328 173.984 857.328C174.18 857.328 174.342 857.23 174.473 857.035C174.668 856.84 174.928 856.742 175.254 856.742H175.742C176.589 857.654 177.402 858.533 178.184 859.379C179.03 860.16 180.072 860.811 181.309 861.332C181.829 863.285 182.448 865.206 183.164 867.094C183.88 868.982 184.238 871 184.238 873.148C184.238 874.451 184.043 875.72 183.652 876.957C182.741 877.413 182.09 878.129 181.699 879.105C181.309 880.082 180.951 881.026 180.625 881.938C178.802 882.849 177.272 884.053 176.035 885.551C174.798 887.048 173.529 888.546 172.227 890.043H170.664C170.404 890.043 170.208 890.141 170.078 890.336L169.199 891.312C168.613 891.833 167.962 892.354 167.246 892.875C166.595 893.396 166.107 894.079 165.781 894.926C163.763 896.033 161.81 897.27 159.922 898.637C158.099 900.004 156.341 901.436 154.648 902.934C153.932 903.52 153.216 904.203 152.5 904.984C151.784 905.701 151.068 906.319 150.352 906.84C149.961 907.165 149.505 907.458 148.984 907.719C148.529 907.914 148.105 908.174 147.715 908.5C146.868 909.151 146.087 909.835 145.371 910.551C144.655 911.202 143.906 911.82 143.125 912.406C146.055 912.276 149.017 912.211 152.012 912.211C155.007 912.146 157.969 912.081 160.898 912.016C162.396 912.016 163.861 911.983 165.293 911.918C166.725 911.788 168.19 911.723 169.688 911.723C169.948 911.723 170.176 911.788 170.371 911.918C170.566 911.983 170.794 912.048 171.055 912.113C172.161 912.309 173.138 912.536 173.984 912.797C177.109 913.383 180.234 913.904 183.359 914.359C186.484 914.815 189.544 915.564 192.539 916.605C193.385 916.931 194.004 917.289 194.395 917.68C194.85 918.07 195.632 918.168 196.738 917.973C197.65 918.884 198.626 919.6 199.668 920.121C200.775 920.642 201.882 921.098 202.988 921.488C203.835 922.79 204.616 924.027 205.332 925.199C206.113 926.371 206.504 927.771 206.504 929.398ZM273.594 883.891V884.281C273.138 884.411 272.91 884.737 272.91 885.258C272.194 885.583 271.445 885.844 270.664 886.039C269.883 886.169 269.134 886.397 268.418 886.723C267.702 886.658 266.953 886.625 266.172 886.625C265.456 886.56 264.74 886.527 264.023 886.527C262.07 886.527 260.117 886.592 258.164 886.723C256.211 886.853 254.258 886.853 252.305 886.723C251.393 887.243 250.384 887.667 249.277 887.992C248.236 888.253 247.227 888.383 246.25 888.383C245.469 888.383 244.785 888.285 244.199 888.09C242.637 888.871 240.911 889.522 239.023 890.043C237.201 890.564 235.345 891.085 233.457 891.605C231.569 892.061 229.746 892.615 227.988 893.266C226.296 893.852 224.798 894.698 223.496 895.805C223.366 896.716 223.268 897.628 223.203 898.539C223.138 899.385 223.105 900.232 223.105 901.078C223.105 901.99 223.138 902.836 223.203 903.617C223.333 904.398 223.561 905.18 223.887 905.961C224.212 906.091 224.57 906.189 224.961 906.254C225.417 906.319 225.807 906.352 226.133 906.352C226.458 906.352 226.784 906.319 227.109 906.254C227.435 906.124 227.663 905.896 227.793 905.57C228.77 905.44 229.746 905.408 230.723 905.473C231.699 905.473 232.676 905.473 233.652 905.473C234.629 905.473 235.573 905.44 236.484 905.375C237.461 905.31 238.405 905.147 239.316 904.887C240.358 904.626 241.367 904.464 242.344 904.398C243.385 904.333 244.395 904.268 245.371 904.203C246.348 904.138 247.357 904.04 248.398 903.91C249.44 903.715 250.514 903.357 251.621 902.836C252.467 903.161 253.314 903.324 254.16 903.324C255.072 903.324 255.951 903.389 256.797 903.52C257.253 903.845 257.611 904.203 257.871 904.594C258.197 904.984 258.359 905.44 258.359 905.961C258.359 906.872 258.034 907.784 257.383 908.695C256.732 909.607 256.211 910.453 255.82 911.234H254.746C253.184 911.234 251.654 911.462 250.156 911.918C248.724 912.309 247.259 912.797 245.762 913.383C244.329 913.904 242.865 914.392 241.367 914.848C239.935 915.238 238.438 915.434 236.875 915.434C236.615 915.434 236.452 915.596 236.387 915.922C236.387 916.182 236.322 916.378 236.191 916.508C235.866 916.443 235.378 916.41 234.727 916.41C233.229 916.41 231.797 916.573 230.43 916.898C229.062 917.224 227.663 917.387 226.23 917.387C225.84 917.387 225.449 917.387 225.059 917.387C224.668 917.322 224.277 917.257 223.887 917.191C223.561 917.712 223.138 918.07 222.617 918.266C222.096 918.396 221.608 918.656 221.152 919.047C220.957 919.633 220.827 920.349 220.762 921.195C220.762 922.042 220.729 922.921 220.664 923.832C220.664 924.678 220.599 925.492 220.469 926.273C220.339 927.055 220.078 927.673 219.688 928.129C219.753 928.454 220.013 928.585 220.469 928.52C220.924 928.389 221.152 928.585 221.152 929.105C221.152 929.691 221.087 930.31 220.957 930.961C220.827 931.612 220.762 932.263 220.762 932.914C220.762 934.151 220.892 935.518 221.152 937.016C221.478 938.448 221.934 939.783 222.52 941.02C223.171 942.257 224.017 943.298 225.059 944.145C226.1 944.926 227.402 945.316 228.965 945.316C230.007 945.316 230.983 945.121 231.895 944.73C232.806 944.34 233.555 943.689 234.141 942.777L234.629 942.68C234.889 942.68 235.117 942.712 235.312 942.777C235.573 942.842 235.833 942.875 236.094 942.875C236.484 942.875 236.973 942.647 237.559 942.191C238.21 941.671 238.893 941.085 239.609 940.434C240.391 939.783 241.172 939.164 241.953 938.578C242.734 937.927 243.483 937.471 244.199 937.211C244.655 936.299 245.078 935.388 245.469 934.477C245.924 933.565 246.576 932.849 247.422 932.328V929.496C248.073 928.78 248.757 928.129 249.473 927.543C250.254 926.957 250.84 926.208 251.23 925.297C251.556 925.427 251.849 925.525 252.109 925.59C252.435 925.655 252.76 925.688 253.086 925.688C253.411 925.688 253.737 925.655 254.062 925.59C254.453 925.525 254.811 925.427 255.137 925.297C255.658 926.013 256.048 926.827 256.309 927.738C256.634 928.585 257.025 929.398 257.48 930.18C256.895 931.352 256.211 932.751 255.43 934.379C254.648 936.007 253.802 937.634 252.891 939.262C251.979 940.889 251.003 942.452 249.961 943.949C248.984 945.382 248.008 946.488 247.031 947.27C246.836 947.465 246.413 947.693 245.762 947.953C245.046 948.474 244.395 948.962 243.809 949.418C243.223 949.939 242.669 950.525 242.148 951.176C240.26 951.762 238.438 952.543 236.68 953.52C234.987 954.496 233.294 955.44 231.602 956.352C230.82 956.156 229.974 956.059 229.062 956.059C228.281 956.059 227.5 956.091 226.719 956.156C225.938 956.286 225.091 956.352 224.18 956.352C223.919 956.026 223.529 955.798 223.008 955.668C222.552 955.603 222.389 955.277 222.52 954.691C220.306 954.561 218.516 953.943 217.148 952.836C215.781 951.794 214.609 950.492 213.633 948.93C212.721 947.367 211.973 945.674 211.387 943.852C210.801 942.029 210.182 940.271 209.531 938.578V938.285C209.531 937.96 209.661 937.764 209.922 937.699C210.182 937.634 210.312 937.439 210.312 937.113C210.312 936.983 210.28 936.885 210.215 936.82C210.02 936.104 209.857 935.486 209.727 934.965C209.596 934.444 209.531 933.826 209.531 933.109C209.531 932.068 209.596 931.059 209.727 930.082C209.857 929.04 209.922 927.999 209.922 926.957C209.922 925.915 209.792 925.004 209.531 924.223C209.792 923.897 210.02 923.474 210.215 922.953C210.345 922.367 210.443 921.781 210.508 921.195C210.573 920.609 210.605 920.023 210.605 919.438C210.671 918.852 210.768 918.331 210.898 917.875C210.638 917.159 210.41 916.54 210.215 916.02C210.02 915.434 209.922 914.75 209.922 913.969V913.285C210.573 912.178 211.126 911.039 211.582 909.867C212.038 908.695 212.526 907.491 213.047 906.254V905.961C213.047 904.073 212.982 902.185 212.852 900.297C212.721 898.409 212.656 896.521 212.656 894.633V892.777C212.656 892.126 212.689 891.508 212.754 890.922C213.275 890.661 213.665 890.303 213.926 889.848C214.186 889.392 214.577 889.034 215.098 888.773H218.32L218.906 887.797C219.102 887.471 219.232 887.113 219.297 886.723C220.013 886.527 220.697 886.267 221.348 885.941C222.064 885.551 222.715 885.16 223.301 884.77C224.212 884.249 225.026 883.793 225.742 883.402C226.523 882.947 227.272 882.589 227.988 882.328C228.77 882.003 229.583 881.742 230.43 881.547C231.276 881.352 232.253 881.189 233.359 881.059C233.88 881.059 234.206 880.961 234.336 880.766C234.531 880.57 234.792 880.342 235.117 880.082C235.898 880.212 236.68 880.342 237.461 880.473C238.242 880.538 239.023 880.57 239.805 880.57C241.367 880.57 242.832 880.277 244.199 879.691C246.152 879.691 248.073 879.659 249.961 879.594C251.914 879.529 253.867 879.496 255.82 879.496C257.513 879.496 259.206 879.561 260.898 879.691C262.591 879.822 264.251 880.049 265.879 880.375C266.465 880.18 267.116 880.082 267.832 880.082C268.613 880.082 269.395 880.18 270.176 880.375C271.022 880.505 271.836 880.505 272.617 880.375C272.682 881.091 272.845 881.71 273.105 882.23C273.431 882.686 273.594 883.24 273.594 883.891ZM333.164 881.84C333.034 882.621 332.839 883.305 332.578 883.891C332.383 884.411 332.35 885.128 332.48 886.039C331.829 886.104 331.309 886.332 330.918 886.723C330.592 887.048 330.299 887.439 330.039 887.895C329.844 888.35 329.616 888.839 329.355 889.359C329.16 889.815 328.9 890.238 328.574 890.629C329.095 892.973 329.388 895.349 329.453 897.758C329.518 900.167 329.681 902.543 329.941 904.887C330.267 907.882 330.755 910.844 331.406 913.773C332.122 916.638 332.48 919.568 332.48 922.562C332.48 923.474 332.448 924.32 332.383 925.102C332.383 925.883 332.383 926.697 332.383 927.543C332.383 928.064 332.383 928.617 332.383 929.203C332.448 929.724 332.48 930.245 332.48 930.766C332.48 932.654 332.22 934.542 331.699 936.43C331.243 938.318 330.885 940.206 330.625 942.094C329.844 942.81 329.16 943.591 328.574 944.438C328.053 945.284 327.5 946.065 326.914 946.781C326.328 947.497 325.645 948.116 324.863 948.637C324.082 949.223 323.105 949.613 321.934 949.809C321.738 950.46 321.348 950.948 320.762 951.273C320.241 951.599 319.785 952.055 319.395 952.641H319.199C317.572 952.641 316.172 952.413 315 951.957C313.828 951.501 312.721 950.98 311.68 950.395C310.703 949.809 309.694 949.19 308.652 948.539C307.611 947.888 306.406 947.367 305.039 946.977C303.216 945.479 301.556 943.852 300.059 942.094C298.561 940.271 296.868 938.643 294.98 937.211C294.525 935.909 293.906 934.835 293.125 933.988C292.409 933.142 291.693 932.165 290.977 931.059C290.651 930.603 290.391 930.18 290.195 929.789C290.065 929.398 289.87 928.943 289.609 928.422C289.414 927.901 289.089 927.543 288.633 927.348C288.242 927.152 287.884 926.924 287.559 926.664C287.038 924.646 286.289 922.79 285.312 921.098C284.336 919.405 283.197 917.777 281.895 916.215C281.504 916.931 281.178 917.712 280.918 918.559C280.723 919.34 280.527 920.154 280.332 921C280.137 921.781 279.876 922.595 279.551 923.441C279.29 924.223 278.932 924.939 278.477 925.59V925.883C278.477 926.208 278.607 926.404 278.867 926.469C279.128 926.534 279.258 926.729 279.258 927.055C279.258 927.12 279.225 927.185 279.16 927.25C279.16 927.315 279.16 927.38 279.16 927.445C278.835 927.706 278.574 928.031 278.379 928.422C278.249 928.812 277.923 929.04 277.402 929.105C277.467 929.431 277.5 929.757 277.5 930.082V930.961C277.5 932.849 277.272 934.737 276.816 936.625C276.426 938.513 276.23 940.434 276.23 942.387V943.656C276.23 944.112 276.263 944.535 276.328 944.926C276.458 945.316 276.654 945.707 276.914 946.098C277.174 946.488 277.305 946.846 277.305 947.172C277.305 947.628 277.109 948.051 276.719 948.441C277.174 948.767 277.695 949.125 278.281 949.516C278.867 949.906 279.388 950.329 279.844 950.785C280.365 951.306 280.788 951.827 281.113 952.348C281.439 952.934 281.602 953.552 281.602 954.203C281.602 955.31 281.243 956.091 280.527 956.547C279.811 957.003 278.932 957.361 277.891 957.621C276.914 957.882 275.872 958.109 274.766 958.305C273.724 958.565 272.845 958.988 272.129 959.574H271.836C271.055 959.574 270.469 959.346 270.078 958.891C269.688 958.435 269.102 958.207 268.32 958.207C267.083 956.189 266.237 953.91 265.781 951.371C265.326 948.897 265.098 946.521 265.098 944.242C265.098 941.443 265.358 938.643 265.879 935.844C266.335 933.044 266.921 930.277 267.637 927.543C268.288 924.809 269.004 922.107 269.785 919.438C270.632 916.703 271.413 913.969 272.129 911.234L272.227 910.941C272.227 910.616 272.129 910.388 271.934 910.258C271.803 910.128 271.738 909.932 271.738 909.672C271.738 909.542 271.771 909.477 271.836 909.477C272.031 908.826 272.227 908.207 272.422 907.621C272.682 907.035 272.878 906.384 273.008 905.668C273.398 903.845 273.659 901.99 273.789 900.102C273.984 898.148 274.082 896.228 274.082 894.34C274.147 892.452 274.212 890.564 274.277 888.676C274.408 886.723 274.635 884.802 274.961 882.914C275.482 882.393 275.97 881.84 276.426 881.254C276.882 880.668 277.467 880.147 278.184 879.691C279.486 879.757 280.788 879.952 282.09 880.277C283.392 880.603 284.629 881.124 285.801 881.84C286.582 884.639 287.103 887.439 287.363 890.238C287.689 893.038 288.21 895.837 288.926 898.637V898.93C288.926 899.255 289.089 899.418 289.414 899.418C289.805 899.353 290.098 899.451 290.293 899.711C290.163 899.906 290.065 900.134 290 900.395C290 900.655 290 900.915 290 901.176V902.836C290.13 903.357 290.293 903.91 290.488 904.496C290.684 905.082 291.107 905.44 291.758 905.57C292.083 907.654 292.572 909.574 293.223 911.332C293.874 913.09 294.622 914.783 295.469 916.41C296.315 918.038 297.227 919.665 298.203 921.293C299.18 922.855 300.189 924.516 301.23 926.273C302.858 927.51 304.258 928.943 305.43 930.57C306.602 932.133 307.773 933.663 308.945 935.16C310.182 936.592 311.549 937.862 313.047 938.969C314.609 940.076 316.628 940.759 319.102 941.02C319.427 940.759 319.655 940.401 319.785 939.945L320.273 938.578C320.469 938.122 320.664 937.732 320.859 937.406C321.12 937.016 321.478 936.723 321.934 936.527C322.064 934.704 322.194 932.849 322.324 930.961C322.52 929.073 322.943 927.283 323.594 925.59C323.268 925.004 323.105 924.288 323.105 923.441C323.105 922.79 323.138 922.172 323.203 921.586C323.333 921 323.398 920.414 323.398 919.828C323.398 918.591 323.138 917.582 322.617 916.801C322.617 916.345 322.65 915.889 322.715 915.434C322.78 914.913 322.975 914.424 323.301 913.969C322.78 912.667 322.357 911.299 322.031 909.867C321.771 908.435 321.641 906.97 321.641 905.473C321.641 904.626 321.738 903.747 321.934 902.836C321.543 901.859 321.283 900.72 321.152 899.418L320.762 895.414C320.632 894.047 320.436 892.777 320.176 891.605C319.915 890.434 319.427 889.49 318.711 888.773C319.102 888.188 319.297 887.504 319.297 886.723C319.297 885.421 319.102 884.184 318.711 883.012C318.32 881.84 318.125 880.603 318.125 879.301C318.125 878.389 318.32 877.478 318.711 876.566C320.143 876.632 321.543 876.794 322.91 877.055C324.342 877.25 325.742 877.348 327.109 877.348C327.5 877.868 327.956 878.292 328.477 878.617C328.997 878.943 329.551 879.268 330.137 879.594C330.723 879.854 331.276 880.147 331.797 880.473C332.383 880.798 332.839 881.254 333.164 881.84ZM404.746 883.891V884.281C404.29 884.411 404.062 884.737 404.062 885.258C403.346 885.583 402.598 885.844 401.816 886.039C401.035 886.169 400.286 886.397 399.57 886.723C398.854 886.658 398.105 886.625 397.324 886.625C396.608 886.56 395.892 886.527 395.176 886.527C393.223 886.527 391.27 886.592 389.316 886.723C387.363 886.853 385.41 886.853 383.457 886.723C382.546 887.243 381.536 887.667 380.43 887.992C379.388 888.253 378.379 888.383 377.402 888.383C376.621 888.383 375.938 888.285 375.352 888.09C373.789 888.871 372.064 889.522 370.176 890.043C368.353 890.564 366.497 891.085 364.609 891.605C362.721 892.061 360.898 892.615 359.141 893.266C357.448 893.852 355.951 894.698 354.648 895.805C354.518 896.716 354.421 897.628 354.355 898.539C354.29 899.385 354.258 900.232 354.258 901.078C354.258 901.99 354.29 902.836 354.355 903.617C354.486 904.398 354.714 905.18 355.039 905.961C355.365 906.091 355.723 906.189 356.113 906.254C356.569 906.319 356.96 906.352 357.285 906.352C357.611 906.352 357.936 906.319 358.262 906.254C358.587 906.124 358.815 905.896 358.945 905.57C359.922 905.44 360.898 905.408 361.875 905.473C362.852 905.473 363.828 905.473 364.805 905.473C365.781 905.473 366.725 905.44 367.637 905.375C368.613 905.31 369.557 905.147 370.469 904.887C371.51 904.626 372.52 904.464 373.496 904.398C374.538 904.333 375.547 904.268 376.523 904.203C377.5 904.138 378.509 904.04 379.551 903.91C380.592 903.715 381.667 903.357 382.773 902.836C383.62 903.161 384.466 903.324 385.312 903.324C386.224 903.324 387.103 903.389 387.949 903.52C388.405 903.845 388.763 904.203 389.023 904.594C389.349 904.984 389.512 905.44 389.512 905.961C389.512 906.872 389.186 907.784 388.535 908.695C387.884 909.607 387.363 910.453 386.973 911.234H385.898C384.336 911.234 382.806 911.462 381.309 911.918C379.876 912.309 378.411 912.797 376.914 913.383C375.482 913.904 374.017 914.392 372.52 914.848C371.087 915.238 369.59 915.434 368.027 915.434C367.767 915.434 367.604 915.596 367.539 915.922C367.539 916.182 367.474 916.378 367.344 916.508C367.018 916.443 366.53 916.41 365.879 916.41C364.382 916.41 362.949 916.573 361.582 916.898C360.215 917.224 358.815 917.387 357.383 917.387C356.992 917.387 356.602 917.387 356.211 917.387C355.82 917.322 355.43 917.257 355.039 917.191C354.714 917.712 354.29 918.07 353.77 918.266C353.249 918.396 352.76 918.656 352.305 919.047C352.109 919.633 351.979 920.349 351.914 921.195C351.914 922.042 351.882 922.921 351.816 923.832C351.816 924.678 351.751 925.492 351.621 926.273C351.491 927.055 351.23 927.673 350.84 928.129C350.905 928.454 351.165 928.585 351.621 928.52C352.077 928.389 352.305 928.585 352.305 929.105C352.305 929.691 352.24 930.31 352.109 930.961C351.979 931.612 351.914 932.263 351.914 932.914C351.914 934.151 352.044 935.518 352.305 937.016C352.63 938.448 353.086 939.783 353.672 941.02C354.323 942.257 355.169 943.298 356.211 944.145C357.253 944.926 358.555 945.316 360.117 945.316C361.159 945.316 362.135 945.121 363.047 944.73C363.958 944.34 364.707 943.689 365.293 942.777L365.781 942.68C366.042 942.68 366.27 942.712 366.465 942.777C366.725 942.842 366.986 942.875 367.246 942.875C367.637 942.875 368.125 942.647 368.711 942.191C369.362 941.671 370.046 941.085 370.762 940.434C371.543 939.783 372.324 939.164 373.105 938.578C373.887 937.927 374.635 937.471 375.352 937.211C375.807 936.299 376.23 935.388 376.621 934.477C377.077 933.565 377.728 932.849 378.574 932.328V929.496C379.225 928.78 379.909 928.129 380.625 927.543C381.406 926.957 381.992 926.208 382.383 925.297C382.708 925.427 383.001 925.525 383.262 925.59C383.587 925.655 383.913 925.688 384.238 925.688C384.564 925.688 384.889 925.655 385.215 925.59C385.605 925.525 385.964 925.427 386.289 925.297C386.81 926.013 387.201 926.827 387.461 927.738C387.786 928.585 388.177 929.398 388.633 930.18C388.047 931.352 387.363 932.751 386.582 934.379C385.801 936.007 384.954 937.634 384.043 939.262C383.132 940.889 382.155 942.452 381.113 943.949C380.137 945.382 379.16 946.488 378.184 947.27C377.988 947.465 377.565 947.693 376.914 947.953C376.198 948.474 375.547 948.962 374.961 949.418C374.375 949.939 373.822 950.525 373.301 951.176C371.413 951.762 369.59 952.543 367.832 953.52C366.139 954.496 364.447 955.44 362.754 956.352C361.973 956.156 361.126 956.059 360.215 956.059C359.434 956.059 358.652 956.091 357.871 956.156C357.09 956.286 356.243 956.352 355.332 956.352C355.072 956.026 354.681 955.798 354.16 955.668C353.704 955.603 353.542 955.277 353.672 954.691C351.458 954.561 349.668 953.943 348.301 952.836C346.934 951.794 345.762 950.492 344.785 948.93C343.874 947.367 343.125 945.674 342.539 943.852C341.953 942.029 341.335 940.271 340.684 938.578V938.285C340.684 937.96 340.814 937.764 341.074 937.699C341.335 937.634 341.465 937.439 341.465 937.113C341.465 936.983 341.432 936.885 341.367 936.82C341.172 936.104 341.009 935.486 340.879 934.965C340.749 934.444 340.684 933.826 340.684 933.109C340.684 932.068 340.749 931.059 340.879 930.082C341.009 929.04 341.074 927.999 341.074 926.957C341.074 925.915 340.944 925.004 340.684 924.223C340.944 923.897 341.172 923.474 341.367 922.953C341.497 922.367 341.595 921.781 341.66 921.195C341.725 920.609 341.758 920.023 341.758 919.438C341.823 918.852 341.921 918.331 342.051 917.875C341.79 917.159 341.562 916.54 341.367 916.02C341.172 915.434 341.074 914.75 341.074 913.969V913.285C341.725 912.178 342.279 911.039 342.734 909.867C343.19 908.695 343.678 907.491 344.199 906.254V905.961C344.199 904.073 344.134 902.185 344.004 900.297C343.874 898.409 343.809 896.521 343.809 894.633V892.777C343.809 892.126 343.841 891.508 343.906 890.922C344.427 890.661 344.818 890.303 345.078 889.848C345.339 889.392 345.729 889.034 346.25 888.773H349.473L350.059 887.797C350.254 887.471 350.384 887.113 350.449 886.723C351.165 886.527 351.849 886.267 352.5 885.941C353.216 885.551 353.867 885.16 354.453 884.77C355.365 884.249 356.178 883.793 356.895 883.402C357.676 882.947 358.424 882.589 359.141 882.328C359.922 882.003 360.736 881.742 361.582 881.547C362.428 881.352 363.405 881.189 364.512 881.059C365.033 881.059 365.358 880.961 365.488 880.766C365.684 880.57 365.944 880.342 366.27 880.082C367.051 880.212 367.832 880.342 368.613 880.473C369.395 880.538 370.176 880.57 370.957 880.57C372.52 880.57 373.984 880.277 375.352 879.691C377.305 879.691 379.225 879.659 381.113 879.594C383.066 879.529 385.02 879.496 386.973 879.496C388.665 879.496 390.358 879.561 392.051 879.691C393.743 879.822 395.404 880.049 397.031 880.375C397.617 880.18 398.268 880.082 398.984 880.082C399.766 880.082 400.547 880.18 401.328 880.375C402.174 880.505 402.988 880.505 403.77 880.375C403.835 881.091 403.997 881.71 404.258 882.23C404.583 882.686 404.746 883.24 404.746 883.891Z" fill="black"/>
<path d="M496.152 857.621C496.152 859.9 495.729 862.113 494.883 864.262C494.036 866.345 493.418 868.493 493.027 870.707C491.595 872.595 490.26 874.548 489.023 876.566C487.786 878.585 486.517 880.603 485.215 882.621C483.913 884.639 482.546 886.592 481.113 888.48C479.681 890.303 478.053 891.964 476.23 893.461C476.296 893.526 476.328 893.656 476.328 893.852C476.328 894.242 476.133 894.568 475.742 894.828C475.417 895.023 475.319 895.284 475.449 895.609C473.822 897.302 472.227 898.962 470.664 900.59C469.102 902.217 467.669 904.04 466.367 906.059C464.935 906.775 463.763 907.947 462.852 909.574C462.461 909.574 462.168 909.672 461.973 909.867C461.777 909.997 461.517 910.128 461.191 910.258C459.108 912.797 456.927 915.206 454.648 917.484C452.37 919.763 449.928 921.846 447.324 923.734C446.348 924.451 445.371 925.102 444.395 925.688C443.418 926.273 442.474 926.892 441.562 927.543C440.977 927.934 440.391 928.389 439.805 928.91C439.284 929.431 438.73 929.919 438.145 930.375C436.257 932.003 434.401 933.37 432.578 934.477C430.755 935.518 428.607 936.234 426.133 936.625C425.938 937.341 425.84 938.122 425.84 938.969V941.312C425.84 942.094 425.807 942.908 425.742 943.754C425.677 944.535 425.449 945.284 425.059 946V946.293C425.059 946.944 425.221 947.562 425.547 948.148C425.872 948.799 426.035 949.451 426.035 950.102C426.035 950.557 425.807 950.948 425.352 951.273H427.891C427.891 952.185 428.151 952.966 428.672 953.617C429.258 954.268 429.551 954.757 429.551 955.082C429.551 956.189 429.421 957.393 429.16 958.695C428.965 960.062 428.314 960.974 427.207 961.43V962.016C427.207 962.667 427.142 963.285 427.012 963.871C426.882 964.522 426.589 965.141 426.133 965.727C425.742 965.727 425.352 965.727 424.961 965.727C424.635 965.792 424.31 965.824 423.984 965.824C421.25 965.824 418.809 965.173 416.66 963.871C415.944 962.178 415.456 960.421 415.195 958.598C415 956.84 414.902 955.049 414.902 953.227C414.902 949.646 415.163 946.098 415.684 942.582C416.204 939.066 416.628 935.551 416.953 932.035L418.418 929.203C418.548 927.38 418.776 925.557 419.102 923.734C419.427 921.846 419.753 919.991 420.078 918.168C420.404 916.345 420.664 914.522 420.859 912.699C421.12 910.876 421.217 909.053 421.152 907.23C421.673 906.124 422.031 904.952 422.227 903.715C422.487 902.478 422.617 901.273 422.617 900.102C422.617 899.451 422.585 898.799 422.52 898.148C422.454 897.497 422.259 896.879 421.934 896.293C422.324 896.033 422.585 895.707 422.715 895.316C422.845 894.926 423.04 894.568 423.301 894.242C423.496 891.703 423.659 889.197 423.789 886.723C423.919 884.184 423.984 881.677 423.984 879.203C423.984 877.836 423.952 876.501 423.887 875.199C423.822 873.832 423.724 872.465 423.594 871.098C423.529 870.577 423.398 869.958 423.203 869.242C423.073 868.526 423.008 867.973 423.008 867.582C423.008 867.061 423.04 866.54 423.105 866.02C423.171 865.434 423.203 864.848 423.203 864.262C423.203 863.611 423.138 862.992 423.008 862.406C422.878 861.755 422.65 861.169 422.324 860.648C419.199 861.56 416.4 862.797 413.926 864.359C411.452 865.857 408.945 867.549 406.406 869.438C405.365 870.154 404.225 871 402.988 871.977C401.751 872.953 400.579 873.702 399.473 874.223C399.277 874.353 399.049 874.451 398.789 874.516C398.464 874.516 398.203 874.516 398.008 874.516C397.292 874.516 396.641 874.483 396.055 874.418C395.469 874.288 394.883 874.223 394.297 874.223C393.385 873.311 392.311 872.595 391.074 872.074C390.879 871.293 390.781 870.447 390.781 869.535C390.781 868.624 390.879 867.745 391.074 866.898C391.204 866.052 391.432 865.206 391.758 864.359C392.539 864.099 393.385 863.806 394.297 863.48C395.143 863.155 395.99 862.797 396.836 862.406C397.617 861.951 398.333 861.462 398.984 860.941C399.635 860.355 400.156 859.639 400.547 858.793C400.938 858.988 401.296 859.086 401.621 859.086C401.947 859.086 402.24 859.053 402.5 858.988C402.76 858.923 403.053 858.858 403.379 858.793C404.551 858.077 405.723 857.328 406.895 856.547C408.132 855.766 409.401 855.115 410.703 854.594C411.094 854.464 411.322 854.301 411.387 854.105C411.452 853.91 411.452 853.617 411.387 853.227C412.884 852.771 414.447 852.25 416.074 851.664C417.702 851.013 419.069 850.134 420.176 849.027H421.934C422.91 848.311 423.952 847.725 425.059 847.27C426.165 846.814 427.272 846.391 428.379 846C429.551 845.544 430.69 845.089 431.797 844.633C432.904 844.112 433.945 843.461 434.922 842.68C435.312 842.549 435.638 842.484 435.898 842.484C436.224 842.484 436.582 842.549 436.973 842.68C437.624 842.354 438.177 841.964 438.633 841.508L440.195 839.945C441.237 839.945 442.181 839.848 443.027 839.652C443.874 839.457 444.688 839.197 445.469 838.871C446.25 838.546 446.999 838.188 447.715 837.797C448.496 837.341 449.342 836.885 450.254 836.43C450.645 836.56 450.938 836.723 451.133 836.918C451.328 837.048 451.654 837.113 452.109 837.113C452.76 836.658 453.444 836.332 454.16 836.137C454.941 835.876 455.723 835.681 456.504 835.551C457.285 835.421 458.034 835.258 458.75 835.062C459.531 834.867 460.215 834.509 460.801 833.988C462.884 833.988 464.967 833.956 467.051 833.891C469.199 833.76 471.315 833.695 473.398 833.695C476.393 833.695 479.421 833.923 482.48 834.379C485.605 834.835 488.405 835.974 490.879 837.797C491.855 840.141 493.255 842.126 495.078 843.754C495.208 844.47 495.339 845.154 495.469 845.805C495.664 846.391 495.892 846.977 496.152 847.562C495.697 848.539 495.469 849.613 495.469 850.785C495.469 851.957 495.566 853.129 495.762 854.301C496.022 855.408 496.152 856.514 496.152 857.621ZM487.07 855.277C486.745 854.691 486.517 854.04 486.387 853.324C486.322 852.543 486.322 851.794 486.387 851.078C485.54 850.427 484.889 849.581 484.434 848.539C483.978 847.497 483.327 846.716 482.48 846.195C481.895 845.87 481.048 845.674 479.941 845.609C478.9 845.544 478.021 845.414 477.305 845.219C476.458 844.958 475.872 844.698 475.547 844.438C475.286 844.177 474.701 844.047 473.789 844.047C473.008 844.047 472.227 844.145 471.445 844.34C470.664 844.47 469.883 844.535 469.102 844.535C468.451 844.535 467.832 844.405 467.246 844.145C466.66 843.884 466.042 843.754 465.391 843.754C464.674 843.754 463.991 843.982 463.34 844.438C462.754 844.893 462.038 845.023 461.191 844.828C460.801 845.154 460.573 845.414 460.508 845.609C460.508 845.805 460.475 845.967 460.41 846.098C460.345 846.163 460.182 846.195 459.922 846.195H458.555C457.188 846.195 455.788 846.391 454.355 846.781C452.988 847.172 451.751 847.823 450.645 848.734C450.449 848.669 450.254 848.637 450.059 848.637C449.928 848.572 449.766 848.539 449.57 848.539C448.464 848.539 447.389 848.865 446.348 849.516C445.371 850.102 444.264 850.395 443.027 850.395C442.246 851.176 441.302 851.794 440.195 852.25C439.089 852.706 437.949 853.161 436.777 853.617C435.671 854.008 434.629 854.496 433.652 855.082C432.676 855.603 431.927 856.384 431.406 857.426C431.341 857.947 431.504 858.272 431.895 858.402C432.285 858.533 432.48 858.858 432.48 859.379C432.48 859.835 432.383 860.388 432.188 861.039C432.057 861.69 431.992 862.341 431.992 862.992C431.992 864.49 432.155 865.954 432.48 867.387C432.806 868.819 433.132 870.284 433.457 871.781C433.132 871.977 432.904 872.27 432.773 872.66C432.643 873.051 432.415 873.344 432.09 873.539C433.001 876.273 433.457 879.073 433.457 881.938C433.457 884.216 433.197 886.462 432.676 888.676C432.22 890.824 431.895 893.038 431.699 895.316V895.414C431.699 895.805 431.829 896.065 432.09 896.195C432.35 896.326 432.48 896.553 432.48 896.879C432.48 897.074 432.448 897.237 432.383 897.367C431.667 901.794 430.951 906.221 430.234 910.648C429.583 915.076 429.03 919.535 428.574 924.027H429.355C431.048 924.027 432.546 923.539 433.848 922.562C435.215 921.521 436.354 920.382 437.266 919.145H438.828C443.516 915.043 448.008 910.811 452.305 906.449C456.667 902.087 460.801 897.4 464.707 892.387C465.228 892.387 465.586 892.257 465.781 891.996C465.977 891.736 466.302 891.54 466.758 891.41C468.125 889.522 469.557 887.667 471.055 885.844C472.552 883.956 474.18 882.165 475.938 880.473C476.003 879.822 476.165 879.236 476.426 878.715C476.751 878.194 477.077 877.706 477.402 877.25C477.728 876.794 478.021 876.306 478.281 875.785C478.542 875.264 478.672 874.646 478.672 873.93C478.997 873.799 479.355 873.669 479.746 873.539C480.137 873.344 480.495 873.083 480.82 872.758C480.951 872.107 481.178 871.521 481.504 871C481.829 870.479 481.992 869.893 481.992 869.242C481.992 868.982 481.927 868.656 481.797 868.266C482.839 867.81 483.652 867.061 484.238 866.02C484.824 864.978 485.28 863.839 485.605 862.602C485.931 861.299 486.159 859.997 486.289 858.695C486.484 857.393 486.745 856.254 487.07 855.277ZM559.141 938.871C558.945 939.783 558.522 940.531 557.871 941.117C557.285 941.638 556.569 942.061 555.723 942.387C554.876 942.712 553.997 942.94 553.086 943.07C552.24 943.135 551.458 943.168 550.742 943.168C550.417 943.168 550.091 943.168 549.766 943.168C549.505 943.103 549.212 943.07 548.887 943.07C548.561 943.07 548.398 943.233 548.398 943.559C548.398 943.884 548.236 944.112 547.91 944.242C547.585 944.112 547.259 944.014 546.934 943.949C546.608 943.884 546.283 943.852 545.957 943.852C545.501 943.852 545.046 943.884 544.59 943.949C544.199 944.014 543.809 944.047 543.418 944.047C542.897 944.047 542.507 943.982 542.246 943.852C542.051 943.721 541.855 943.591 541.66 943.461C541.53 943.266 541.367 943.07 541.172 942.875C541.042 942.68 540.814 942.517 540.488 942.387C540.033 942.191 539.642 942.159 539.316 942.289C539.056 942.419 538.633 942.224 538.047 941.703C537.266 941.052 536.582 940.271 535.996 939.359C535.475 938.383 534.954 937.374 534.434 936.332C533.913 935.29 533.359 934.249 532.773 933.207C532.188 932.165 531.504 931.254 530.723 930.473H529.941C528.77 930.473 527.956 930.961 527.5 931.938C527.174 931.742 526.849 931.514 526.523 931.254C526.198 930.928 525.84 930.668 525.449 930.473C523.952 930.928 522.389 931.319 520.762 931.645C519.134 931.97 517.507 932.133 515.879 932.133H514.512C514.121 932.133 513.698 932.068 513.242 931.938C512.591 932.198 512.005 932.523 511.484 932.914C510.964 933.24 510.378 933.402 509.727 933.402C509.336 933.402 508.88 933.272 508.359 933.012C507.969 933.012 507.773 933.174 507.773 933.5C507.839 933.826 507.643 933.988 507.188 933.988H506.309C505.397 933.988 504.486 934.021 503.574 934.086C502.728 934.151 501.849 934.184 500.938 934.184C499.701 934.184 498.431 934.021 497.129 933.695C496.803 933.891 496.445 933.988 496.055 933.988C495.794 934.118 495.599 934.346 495.469 934.672C495.339 934.932 495.208 935.193 495.078 935.453C494.948 935.648 494.753 935.844 494.492 936.039C494.297 936.169 494.004 936.202 493.613 936.137C493.483 936.918 493.158 937.536 492.637 937.992C492.116 938.448 491.855 939.132 491.855 940.043C491.139 940.434 490.553 940.922 490.098 941.508C489.642 942.094 489.186 942.712 488.73 943.363C488.275 944.014 487.786 944.633 487.266 945.219C486.81 945.805 486.224 946.26 485.508 946.586C485.182 946.977 485.085 947.595 485.215 948.441C484.499 949.027 483.62 949.548 482.578 950.004C481.536 950.46 480.56 950.688 479.648 950.688C477.76 950.688 476.458 949.678 475.742 947.66C475.742 947.009 475.807 946.326 475.938 945.609C476.003 944.828 476.133 944.112 476.328 943.461C476.523 942.745 476.816 942.126 477.207 941.605C477.598 941.02 478.151 940.596 478.867 940.336C478.867 939.75 478.672 939.359 478.281 939.164C477.891 938.904 477.728 938.48 477.793 937.895C479.551 937.048 481.081 935.941 482.383 934.574C483.685 933.207 484.857 931.775 485.898 930.277C487.005 928.715 488.112 927.152 489.219 925.59C490.326 924.027 491.562 922.628 492.93 921.391V919.34C494.883 917.257 496.152 914.913 496.738 912.309C497.454 912.178 497.91 911.853 498.105 911.332C498.366 910.811 498.496 910.193 498.496 909.477C498.822 909.477 499.017 909.346 499.082 909.086C499.212 908.76 499.505 908.663 499.961 908.793C500.547 907.23 501.198 905.798 501.914 904.496C502.63 903.194 503.346 901.892 504.062 900.59C504.779 899.223 505.397 897.823 505.918 896.391C506.504 894.958 506.927 893.363 507.188 891.605C508.099 891.54 508.587 891.117 508.652 890.336C508.783 889.49 508.913 888.741 509.043 888.09C510.02 887.178 510.736 886.104 511.191 884.867C511.712 883.63 512.168 882.361 512.559 881.059C512.949 879.691 513.372 878.357 513.828 877.055C514.349 875.688 515.065 874.483 515.977 873.441V873.148C515.977 872.823 515.846 872.628 515.586 872.562C515.326 872.432 515.195 872.204 515.195 871.879C515.26 871.814 515.293 871.749 515.293 871.684C516.074 871.358 516.66 870.837 517.051 870.121C517.441 869.34 518.027 868.786 518.809 868.461C520.176 869.568 521.38 870.251 522.422 870.512C523.464 870.707 524.831 870.87 526.523 871C527.37 871.911 527.826 873.018 527.891 874.32C528.021 875.557 528.249 876.794 528.574 878.031C529.095 880.115 529.648 882.165 530.234 884.184C530.885 886.137 531.374 888.155 531.699 890.238C531.895 891.475 532.253 892.647 532.773 893.754C533.294 894.861 533.652 896 533.848 897.172C533.978 898.083 533.978 899.125 533.848 900.297C533.717 901.404 533.848 902.38 534.238 903.227L534.922 904.789C535.247 905.505 535.508 906.254 535.703 907.035C535.964 907.816 536.191 908.598 536.387 909.379C536.908 911.332 537.363 913.448 537.754 915.727C538.21 917.94 538.893 919.958 539.805 921.781C540.13 922.432 540.618 922.888 541.27 923.148C541.986 923.409 542.767 923.604 543.613 923.734C544.46 923.799 545.273 923.832 546.055 923.832C546.901 923.767 547.617 923.734 548.203 923.734H549.18C549.57 923.734 549.961 923.799 550.352 923.93C550.612 924.451 550.742 924.906 550.742 925.297C550.742 926.078 550.482 926.697 549.961 927.152C549.44 927.608 549.18 928.129 549.18 928.715C549.18 929.04 549.31 929.398 549.57 929.789C549.31 929.724 548.919 929.691 548.398 929.691C546.901 929.691 545.436 929.952 544.004 930.473C544.525 931.579 545.208 932.523 546.055 933.305C546.966 934.021 547.91 934.704 548.887 935.355C549.538 934.835 550.221 934.574 550.938 934.574C551.719 934.574 552.435 934.77 553.086 935.16C553.802 935.486 554.551 935.648 555.332 935.648C555.918 935.648 556.341 935.551 556.602 935.355C557.122 935.941 557.546 936.56 557.871 937.211C558.197 937.797 558.62 938.35 559.141 938.871ZM528.574 923.246C528.444 922.139 528.216 921.358 527.891 920.902C527.63 920.382 527.402 919.763 527.207 919.047C526.947 918.135 526.751 917.159 526.621 916.117C526.556 915.076 526.426 914.066 526.23 913.09C525.775 910.876 525.254 908.663 524.668 906.449C524.147 904.236 523.464 902.087 522.617 900.004C522.878 899.613 523.008 899.255 523.008 898.93V898.637C522.422 897.986 521.999 897.204 521.738 896.293C521.478 895.316 521.217 894.372 520.957 893.461C520.762 892.484 520.469 891.605 520.078 890.824C519.753 889.978 519.199 889.294 518.418 888.773C518.223 889.164 518.125 889.62 518.125 890.141C518.125 890.596 518.158 891.02 518.223 891.41C518.353 891.801 518.418 892.224 518.418 892.68C517.767 893.005 517.279 893.526 516.953 894.242C516.693 894.893 516.237 895.414 515.586 895.805C515.065 897.888 514.316 899.874 513.34 901.762C512.363 903.585 511.322 905.408 510.215 907.23C509.173 909.053 508.164 910.909 507.188 912.797C506.211 914.62 505.43 916.54 504.844 918.559C503.997 919.145 503.411 919.893 503.086 920.805C502.826 921.716 502.695 922.628 502.695 923.539C503.281 923.865 503.932 924.06 504.648 924.125C505.43 924.125 506.178 924.125 506.895 924.125C507.611 924.125 508.294 924.19 508.945 924.32C509.596 924.451 510.182 924.776 510.703 925.297C511.549 925.036 512.461 924.874 513.438 924.809C514.479 924.678 515.326 924.385 515.977 923.93C517.279 924.385 518.678 924.613 520.176 924.613C520.957 924.613 521.706 924.548 522.422 924.418C523.203 924.288 523.952 924.125 524.668 923.93C525.254 924.06 525.71 924.288 526.035 924.613C526.361 924.874 526.849 924.971 527.5 924.906C527.826 924.646 528.021 924.385 528.086 924.125C528.151 923.799 528.314 923.507 528.574 923.246ZM579.453 932.621C579.128 933.142 578.737 933.63 578.281 934.086C577.826 934.477 577.402 934.9 577.012 935.355C576.556 935.551 576.035 935.648 575.449 935.648C574.928 935.648 574.408 935.648 573.887 935.648C573.431 935.583 572.975 935.583 572.52 935.648C572.129 935.648 571.803 935.779 571.543 936.039C571.022 935.909 570.632 935.681 570.371 935.355C570.111 934.965 569.655 934.737 569.004 934.672C568.743 934.607 568.483 934.607 568.223 934.672C567.246 933.565 566.335 932.393 565.488 931.156C564.707 929.919 563.958 928.747 563.242 927.641C563.177 925.232 562.982 922.79 562.656 920.316C562.591 919.73 562.493 919.145 562.363 918.559C562.233 917.973 562.135 917.419 562.07 916.898C562.07 916.247 562.103 915.629 562.168 915.043C562.298 914.392 562.396 913.806 562.461 913.285C562.721 911.397 563.014 909.542 563.34 907.719C563.665 905.896 563.958 904.04 564.219 902.152C564.479 900.46 564.609 898.702 564.609 896.879C564.609 894.991 564.316 893.233 563.73 891.605L563.633 891.117C563.763 890.596 563.893 890.173 564.023 889.848C564.219 889.457 564.349 889.034 564.414 888.578C564.544 887.862 564.382 887.341 563.926 887.016C564.121 886.495 564.447 886.169 564.902 886.039C565.358 885.844 565.618 885.453 565.684 884.867C565.749 884.607 565.749 884.346 565.684 884.086C566.204 883.891 566.725 883.728 567.246 883.598C567.832 883.402 568.385 883.37 568.906 883.5C569.753 883.63 570.501 883.923 571.152 884.379C571.803 884.77 572.422 885.225 573.008 885.746C574.049 888.871 574.473 892.191 574.277 895.707C574.082 899.158 573.757 902.641 573.301 906.156C572.845 909.672 572.552 913.122 572.422 916.508C572.292 919.828 572.812 922.921 573.984 925.785L574.18 925.883C574.505 925.948 574.766 925.85 574.961 925.59C575.156 925.264 575.417 925.134 575.742 925.199C576.003 925.329 576.165 925.395 576.23 925.395C576.491 926.697 576.914 927.934 577.5 929.105C578.086 930.277 578.737 931.449 579.453 932.621ZM652.988 881.84C652.858 882.621 652.663 883.305 652.402 883.891C652.207 884.411 652.174 885.128 652.305 886.039C651.654 886.104 651.133 886.332 650.742 886.723C650.417 887.048 650.124 887.439 649.863 887.895C649.668 888.35 649.44 888.839 649.18 889.359C648.984 889.815 648.724 890.238 648.398 890.629C648.919 892.973 649.212 895.349 649.277 897.758C649.342 900.167 649.505 902.543 649.766 904.887C650.091 907.882 650.579 910.844 651.23 913.773C651.947 916.638 652.305 919.568 652.305 922.562C652.305 923.474 652.272 924.32 652.207 925.102C652.207 925.883 652.207 926.697 652.207 927.543C652.207 928.064 652.207 928.617 652.207 929.203C652.272 929.724 652.305 930.245 652.305 930.766C652.305 932.654 652.044 934.542 651.523 936.43C651.068 938.318 650.71 940.206 650.449 942.094C649.668 942.81 648.984 943.591 648.398 944.438C647.878 945.284 647.324 946.065 646.738 946.781C646.152 947.497 645.469 948.116 644.688 948.637C643.906 949.223 642.93 949.613 641.758 949.809C641.562 950.46 641.172 950.948 640.586 951.273C640.065 951.599 639.609 952.055 639.219 952.641H639.023C637.396 952.641 635.996 952.413 634.824 951.957C633.652 951.501 632.546 950.98 631.504 950.395C630.527 949.809 629.518 949.19 628.477 948.539C627.435 947.888 626.23 947.367 624.863 946.977C623.04 945.479 621.38 943.852 619.883 942.094C618.385 940.271 616.693 938.643 614.805 937.211C614.349 935.909 613.73 934.835 612.949 933.988C612.233 933.142 611.517 932.165 610.801 931.059C610.475 930.603 610.215 930.18 610.02 929.789C609.889 929.398 609.694 928.943 609.434 928.422C609.238 927.901 608.913 927.543 608.457 927.348C608.066 927.152 607.708 926.924 607.383 926.664C606.862 924.646 606.113 922.79 605.137 921.098C604.16 919.405 603.021 917.777 601.719 916.215C601.328 916.931 601.003 917.712 600.742 918.559C600.547 919.34 600.352 920.154 600.156 921C599.961 921.781 599.701 922.595 599.375 923.441C599.115 924.223 598.757 924.939 598.301 925.59V925.883C598.301 926.208 598.431 926.404 598.691 926.469C598.952 926.534 599.082 926.729 599.082 927.055C599.082 927.12 599.049 927.185 598.984 927.25C598.984 927.315 598.984 927.38 598.984 927.445C598.659 927.706 598.398 928.031 598.203 928.422C598.073 928.812 597.747 929.04 597.227 929.105C597.292 929.431 597.324 929.757 597.324 930.082V930.961C597.324 932.849 597.096 934.737 596.641 936.625C596.25 938.513 596.055 940.434 596.055 942.387V943.656C596.055 944.112 596.087 944.535 596.152 944.926C596.283 945.316 596.478 945.707 596.738 946.098C596.999 946.488 597.129 946.846 597.129 947.172C597.129 947.628 596.934 948.051 596.543 948.441C596.999 948.767 597.52 949.125 598.105 949.516C598.691 949.906 599.212 950.329 599.668 950.785C600.189 951.306 600.612 951.827 600.938 952.348C601.263 952.934 601.426 953.552 601.426 954.203C601.426 955.31 601.068 956.091 600.352 956.547C599.635 957.003 598.757 957.361 597.715 957.621C596.738 957.882 595.697 958.109 594.59 958.305C593.548 958.565 592.669 958.988 591.953 959.574H591.66C590.879 959.574 590.293 959.346 589.902 958.891C589.512 958.435 588.926 958.207 588.145 958.207C586.908 956.189 586.061 953.91 585.605 951.371C585.15 948.897 584.922 946.521 584.922 944.242C584.922 941.443 585.182 938.643 585.703 935.844C586.159 933.044 586.745 930.277 587.461 927.543C588.112 924.809 588.828 922.107 589.609 919.438C590.456 916.703 591.237 913.969 591.953 911.234L592.051 910.941C592.051 910.616 591.953 910.388 591.758 910.258C591.628 910.128 591.562 909.932 591.562 909.672C591.562 909.542 591.595 909.477 591.66 909.477C591.855 908.826 592.051 908.207 592.246 907.621C592.507 907.035 592.702 906.384 592.832 905.668C593.223 903.845 593.483 901.99 593.613 900.102C593.809 898.148 593.906 896.228 593.906 894.34C593.971 892.452 594.036 890.564 594.102 888.676C594.232 886.723 594.46 884.802 594.785 882.914C595.306 882.393 595.794 881.84 596.25 881.254C596.706 880.668 597.292 880.147 598.008 879.691C599.31 879.757 600.612 879.952 601.914 880.277C603.216 880.603 604.453 881.124 605.625 881.84C606.406 884.639 606.927 887.439 607.188 890.238C607.513 893.038 608.034 895.837 608.75 898.637V898.93C608.75 899.255 608.913 899.418 609.238 899.418C609.629 899.353 609.922 899.451 610.117 899.711C609.987 899.906 609.889 900.134 609.824 900.395C609.824 900.655 609.824 900.915 609.824 901.176V902.836C609.954 903.357 610.117 903.91 610.312 904.496C610.508 905.082 610.931 905.44 611.582 905.57C611.908 907.654 612.396 909.574 613.047 911.332C613.698 913.09 614.447 914.783 615.293 916.41C616.139 918.038 617.051 919.665 618.027 921.293C619.004 922.855 620.013 924.516 621.055 926.273C622.682 927.51 624.082 928.943 625.254 930.57C626.426 932.133 627.598 933.663 628.77 935.16C630.007 936.592 631.374 937.862 632.871 938.969C634.434 940.076 636.452 940.759 638.926 941.02C639.251 940.759 639.479 940.401 639.609 939.945L640.098 938.578C640.293 938.122 640.488 937.732 640.684 937.406C640.944 937.016 641.302 936.723 641.758 936.527C641.888 934.704 642.018 932.849 642.148 930.961C642.344 929.073 642.767 927.283 643.418 925.59C643.092 925.004 642.93 924.288 642.93 923.441C642.93 922.79 642.962 922.172 643.027 921.586C643.158 921 643.223 920.414 643.223 919.828C643.223 918.591 642.962 917.582 642.441 916.801C642.441 916.345 642.474 915.889 642.539 915.434C642.604 914.913 642.799 914.424 643.125 913.969C642.604 912.667 642.181 911.299 641.855 909.867C641.595 908.435 641.465 906.97 641.465 905.473C641.465 904.626 641.562 903.747 641.758 902.836C641.367 901.859 641.107 900.72 640.977 899.418L640.586 895.414C640.456 894.047 640.26 892.777 640 891.605C639.74 890.434 639.251 889.49 638.535 888.773C638.926 888.188 639.121 887.504 639.121 886.723C639.121 885.421 638.926 884.184 638.535 883.012C638.145 881.84 637.949 880.603 637.949 879.301C637.949 878.389 638.145 877.478 638.535 876.566C639.967 876.632 641.367 876.794 642.734 877.055C644.167 877.25 645.566 877.348 646.934 877.348C647.324 877.868 647.78 878.292 648.301 878.617C648.822 878.943 649.375 879.268 649.961 879.594C650.547 879.854 651.1 880.147 651.621 880.473C652.207 880.798 652.663 881.254 652.988 881.84ZM746.836 883.207C746.576 884.053 746.152 884.835 745.566 885.551L743.906 887.602C743.385 888.253 742.93 888.969 742.539 889.75C742.214 890.466 742.116 891.312 742.246 892.289C742.116 892.289 741.953 892.289 741.758 892.289C741.562 892.224 741.4 892.191 741.27 892.191C740.228 892.191 739.414 892.452 738.828 892.973C738.307 893.428 737.591 893.819 736.68 894.145C736.549 893.754 736.387 893.396 736.191 893.07C735.996 892.68 735.703 892.419 735.312 892.289C733.75 892.615 732.188 892.875 730.625 893.07C729.062 893.201 727.5 893.396 725.938 893.656C725.221 893.786 724.505 893.982 723.789 894.242C723.073 894.438 722.324 894.633 721.543 894.828C721.152 894.958 720.729 895.023 720.273 895.023C719.818 894.958 719.362 894.958 718.906 895.023C717.344 895.089 715.651 895.219 713.828 895.414C712.005 895.544 710.378 896.033 708.945 896.879C708.294 896.749 707.611 896.651 706.895 896.586C706.178 896.521 705.462 896.488 704.746 896.488C703.184 896.488 701.458 896.651 699.57 896.977C697.747 897.237 696.12 897.79 694.688 898.637C694.362 898.507 694.004 898.409 693.613 898.344C693.288 898.279 692.897 898.246 692.441 898.246C692.311 898.246 692.214 898.279 692.148 898.344C692.083 898.344 691.986 898.344 691.855 898.344C691.79 898.93 691.855 899.516 692.051 900.102C692.311 900.622 692.734 901.046 693.32 901.371C693.06 902.087 692.93 902.868 692.93 903.715C692.93 904.822 692.995 905.928 693.125 907.035C693.32 908.142 693.418 909.249 693.418 910.355C693.418 911.592 693.255 912.569 692.93 913.285C693.581 915.238 693.906 917.322 693.906 919.535C693.906 920.316 693.841 921.098 693.711 921.879C693.646 922.595 693.613 923.376 693.613 924.223C693.613 924.939 693.874 925.525 694.395 925.98C694.915 926.371 695.176 926.924 695.176 927.641C695.176 927.901 695.111 928.161 694.98 928.422C695.892 928.227 696.771 927.966 697.617 927.641C698.464 927.25 699.342 927.055 700.254 927.055C700.775 927.055 701.263 927.152 701.719 927.348C702.24 927.543 702.695 927.803 703.086 928.129C703.021 928.454 702.956 928.812 702.891 929.203C702.891 929.594 702.891 929.984 702.891 930.375C702.891 931.091 702.891 931.775 702.891 932.426C702.956 933.012 703.021 933.663 703.086 934.379C702.565 935.29 701.947 936.104 701.23 936.82C700.579 937.536 700.124 938.448 699.863 939.555C698.887 939.555 698.008 939.783 697.227 940.238C696.51 940.629 695.827 941.085 695.176 941.605C694.525 942.061 693.874 942.517 693.223 942.973C692.572 943.363 691.855 943.559 691.074 943.559C690.098 943.559 689.414 943.428 689.023 943.168C688.633 942.842 688.34 942.517 688.145 942.191C687.949 941.866 687.754 941.573 687.559 941.312C687.428 941.052 687.103 940.954 686.582 941.02C686.452 940.173 686.191 939.392 685.801 938.676C685.41 937.895 684.987 937.146 684.531 936.43C684.141 935.714 683.717 934.997 683.262 934.281C682.871 933.5 682.578 932.719 682.383 931.938C681.992 930.245 681.829 928.487 681.895 926.664C681.96 924.841 681.667 923.083 681.016 921.391C681.146 920.479 681.243 919.568 681.309 918.656C681.374 917.68 681.406 916.736 681.406 915.824C681.406 914.001 681.341 912.211 681.211 910.453C681.146 908.63 681.081 906.775 681.016 904.887C680.56 904.301 680.267 903.65 680.137 902.934C680.072 902.152 680.007 901.404 679.941 900.688C679.746 900.492 679.518 900.297 679.258 900.102C679.062 899.906 678.932 899.646 678.867 899.32C678.346 899.19 677.956 899.125 677.695 899.125C676.784 899.125 676.003 899.353 675.352 899.809C674.766 900.199 674.212 900.395 673.691 900.395C673.171 900.395 672.682 900.329 672.227 900.199C671.771 900.069 671.315 900.004 670.859 900.004C670.469 900.004 670.241 900.102 670.176 900.297C670.176 900.427 670.046 900.557 669.785 900.688C669.59 900.818 669.134 900.948 668.418 901.078C667.702 901.208 666.888 901.339 665.977 901.469C665.13 901.534 664.284 901.599 663.438 901.664C662.656 901.729 662.135 901.762 661.875 901.762C660.833 901.762 660.052 901.566 659.531 901.176C658.945 900.72 658.262 900.232 657.48 899.711C657.611 899.32 657.676 899.06 657.676 898.93C657.676 898.279 657.48 897.758 657.09 897.367C656.699 896.911 656.504 896.521 656.504 896.195C656.504 895.479 656.797 894.926 657.383 894.535C657.904 894.145 658.197 893.526 658.262 892.68C659.759 892.029 661.289 891.54 662.852 891.215C664.414 890.889 666.009 890.629 667.637 890.434C669.264 890.238 670.859 890.01 672.422 889.75C674.049 889.49 675.645 889.066 677.207 888.48C677.663 888.546 678.086 888.611 678.477 888.676C678.932 888.676 679.388 888.676 679.844 888.676C681.797 888.676 683.717 888.48 685.605 888.09C687.559 887.634 689.544 887.406 691.562 887.406C692.083 887.406 692.604 887.439 693.125 887.504C693.646 887.569 694.167 887.667 694.688 887.797C697.292 887.406 699.863 886.983 702.402 886.527C705.007 886.072 707.676 885.681 710.41 885.355C711.712 885.225 712.982 885.128 714.219 885.062C715.521 884.932 716.823 884.77 718.125 884.574C718.581 884.509 718.906 884.411 719.102 884.281C719.362 884.086 719.492 883.728 719.492 883.207C720.078 883.467 720.729 883.598 721.445 883.598C722.552 883.598 723.626 883.402 724.668 883.012C725.71 882.621 726.784 882.426 727.891 882.426C728.151 882.426 728.379 882.458 728.574 882.523C728.77 882.523 728.965 882.523 729.16 882.523C729.616 882.523 729.844 882.328 729.844 881.938C729.909 881.482 730.234 881.189 730.82 881.059C731.276 880.928 731.927 880.831 732.773 880.766C733.62 880.701 734.499 880.635 735.41 880.57C736.387 880.44 737.266 880.31 738.047 880.18C738.893 879.984 739.512 879.724 739.902 879.398L740.586 878.324C741.758 878.389 742.604 878.91 743.125 879.887C743.711 880.798 744.036 881.807 744.102 882.914C744.362 883.174 744.72 883.305 745.176 883.305C745.697 883.24 746.152 883.207 746.543 883.207H746.836Z" fill="#FF9500"/>
<path d="M312.96 1041.28V1045H284.34V1002.4H312.42V1006.12H288.54V1021.48H309.36V1025.02H288.54V1041.28H312.96ZM328.191 1045L315.531 1013.74H319.791L330.471 1040.92L341.211 1013.74H345.231L332.571 1045H328.191ZM363.328 1045.6C361.088 1045.6 359.008 1045.18 357.088 1044.34C355.168 1043.46 353.508 1042.28 352.108 1040.8C350.708 1039.28 349.608 1037.54 348.808 1035.58C348.048 1033.62 347.668 1031.52 347.668 1029.28C347.668 1026.36 348.328 1023.68 349.648 1021.24C351.008 1018.8 352.868 1016.86 355.228 1015.42C357.588 1013.94 360.268 1013.2 363.268 1013.2C366.348 1013.2 369.028 1013.94 371.308 1015.42C373.628 1016.9 375.448 1018.86 376.768 1021.3C378.088 1023.7 378.748 1026.34 378.748 1029.22C378.748 1029.54 378.748 1029.86 378.748 1030.18C378.748 1030.46 378.728 1030.68 378.688 1030.84H351.928C352.128 1033.08 352.748 1035.08 353.788 1036.84C354.868 1038.56 356.248 1039.94 357.928 1040.98C359.648 1041.98 361.508 1042.48 363.508 1042.48C365.548 1042.48 367.468 1041.96 369.268 1040.92C371.108 1039.88 372.388 1038.52 373.108 1036.84L376.648 1037.8C376.008 1039.28 375.028 1040.62 373.708 1041.82C372.388 1043.02 370.828 1043.96 369.028 1044.64C367.268 1045.28 365.368 1045.6 363.328 1045.6ZM351.808 1027.9H374.908C374.748 1025.62 374.128 1023.62 373.048 1021.9C372.008 1020.18 370.628 1018.84 368.908 1017.88C367.228 1016.88 365.368 1016.38 363.328 1016.38C361.288 1016.38 359.428 1016.88 357.748 1017.88C356.068 1018.84 354.688 1020.2 353.608 1021.96C352.568 1023.68 351.968 1025.66 351.808 1027.9ZM411.323 1045H407.243V1027.54C407.243 1023.86 406.703 1021.18 405.623 1019.5C404.543 1017.78 402.843 1016.92 400.523 1016.92C398.923 1016.92 397.343 1017.32 395.783 1018.12C394.223 1018.88 392.843 1019.94 391.643 1021.3C390.483 1022.62 389.643 1024.14 389.123 1025.86V1045H385.043V1013.74H388.763V1020.82C389.603 1019.3 390.703 1017.98 392.063 1016.86C393.423 1015.7 394.963 1014.8 396.683 1014.16C398.403 1013.52 400.183 1013.2 402.023 1013.2C403.743 1013.2 405.203 1013.52 406.403 1014.16C407.603 1014.8 408.563 1015.72 409.283 1016.92C410.003 1018.08 410.523 1019.5 410.843 1021.18C411.163 1022.82 411.323 1024.66 411.323 1026.7V1045ZM434.73 1043.5C434.41 1043.62 433.91 1043.84 433.23 1044.16C432.55 1044.48 431.73 1044.76 430.77 1045C429.81 1045.24 428.77 1045.36 427.65 1045.36C426.49 1045.36 425.39 1045.14 424.35 1044.7C423.35 1044.26 422.55 1043.6 421.95 1042.72C421.35 1041.8 421.05 1040.68 421.05 1039.36V1016.98H416.73V1013.74H421.05V1003.18H425.13V1013.74H432.33V1016.98H425.13V1038.22C425.21 1039.34 425.61 1040.18 426.33 1040.74C427.09 1041.3 427.95 1041.58 428.91 1041.58C430.03 1041.58 431.05 1041.4 431.97 1041.04C432.89 1040.64 433.45 1040.36 433.65 1040.2L434.73 1043.5ZM452.621 1045.6C450.381 1045.6 448.301 1045.18 446.381 1044.34C444.501 1043.46 442.861 1042.28 441.461 1040.8C440.101 1039.28 439.041 1037.56 438.281 1035.64C437.521 1033.68 437.141 1031.62 437.141 1029.46C437.141 1027.22 437.521 1025.14 438.281 1023.22C439.041 1021.26 440.121 1019.54 441.521 1018.06C442.921 1016.54 444.561 1015.36 446.441 1014.52C448.361 1013.64 450.441 1013.2 452.681 1013.2C454.921 1013.2 456.981 1013.64 458.861 1014.52C460.741 1015.36 462.381 1016.54 463.781 1018.06C465.181 1019.54 466.261 1021.26 467.021 1023.22C467.781 1025.14 468.161 1027.22 468.161 1029.46C468.161 1031.62 467.781 1033.68 467.021 1035.64C466.261 1037.56 465.181 1039.28 463.781 1040.8C462.421 1042.28 460.781 1043.46 458.861 1044.34C456.981 1045.18 454.901 1045.6 452.621 1045.6ZM441.281 1029.52C441.281 1031.84 441.781 1033.96 442.781 1035.88C443.821 1037.76 445.201 1039.26 446.921 1040.38C448.641 1041.46 450.541 1042 452.621 1042C454.701 1042 456.601 1041.44 458.321 1040.32C460.041 1039.2 461.421 1037.68 462.461 1035.76C463.501 1033.8 464.021 1031.68 464.021 1029.4C464.021 1027.08 463.501 1024.96 462.461 1023.04C461.421 1021.12 460.041 1019.6 458.321 1018.48C456.601 1017.36 454.701 1016.8 452.621 1016.8C450.541 1016.8 448.641 1017.38 446.921 1018.54C445.241 1019.7 443.881 1021.24 442.841 1023.16C441.801 1025.04 441.281 1027.16 441.281 1029.52ZM485.244 1045.6C482.684 1045.6 480.304 1045.18 478.104 1044.34C475.904 1043.5 474.004 1042.22 472.404 1040.5L474.084 1037.62C475.844 1039.26 477.604 1040.46 479.364 1041.22C481.164 1041.94 483.064 1042.3 485.064 1042.3C487.504 1042.3 489.484 1041.82 491.004 1040.86C492.524 1039.86 493.284 1038.44 493.284 1036.6C493.284 1035.36 492.904 1034.42 492.144 1033.78C491.424 1033.1 490.364 1032.56 488.964 1032.16C487.604 1031.72 485.964 1031.26 484.044 1030.78C481.884 1030.18 480.064 1029.56 478.584 1028.92C477.144 1028.24 476.044 1027.4 475.284 1026.4C474.564 1025.36 474.204 1024.02 474.204 1022.38C474.204 1020.34 474.704 1018.66 475.704 1017.34C476.744 1015.98 478.144 1014.96 479.904 1014.28C481.704 1013.56 483.704 1013.2 485.904 1013.2C488.304 1013.2 490.424 1013.58 492.264 1014.34C494.104 1015.1 495.604 1016.16 496.764 1017.52L494.784 1020.28C493.664 1019 492.324 1018.06 490.764 1017.46C489.244 1016.82 487.544 1016.5 485.664 1016.5C484.384 1016.5 483.164 1016.68 482.004 1017.04C480.844 1017.36 479.884 1017.92 479.124 1018.72C478.404 1019.48 478.044 1020.54 478.044 1021.9C478.044 1023.02 478.324 1023.9 478.884 1024.54C479.444 1025.14 480.284 1025.66 481.404 1026.1C482.524 1026.5 483.904 1026.94 485.544 1027.42C487.904 1028.06 489.964 1028.72 491.724 1029.4C493.484 1030.04 494.844 1030.88 495.804 1031.92C496.764 1032.96 497.244 1034.42 497.244 1036.3C497.244 1039.22 496.144 1041.5 493.944 1043.14C491.744 1044.78 488.844 1045.6 485.244 1045.6Z" fill="black"/>
</svg>
