<svg width="227" height="43" viewBox="0 0 227 43" fill="none" xmlns="http://www.w3.org/2000/svg">
<path d="M0.0481928 42V0.722892H32.506V7.37349H8.6506V17.7831H30.6988V24.4337H8.6506V35.3494H33.6627V42H0.0481928ZM57.3585 42H47.5272L36.1778 10.2651H44.9248L50.4188 28.0482C50.7079 29.012 51.4067 31.4458 52.5152 35.3494C52.7079 34.5301 53.0935 33.1325 53.6718 31.1566C54.2983 29.1325 56.5633 22.1687 60.467 10.2651H69.0694L57.3585 42ZM86.4333 42.5783C81.6622 42.5783 77.9996 41.1807 75.4454 38.3855C72.8911 35.5422 71.614 31.4217 71.614 26.0241C71.614 20.7711 72.9152 16.747 75.5176 13.9518C78.1201 11.1084 81.8068 9.68674 86.5779 9.68674C91.108 9.68674 94.5779 11.2048 96.9875 14.241C99.3972 17.2771 100.602 21.6867 100.602 27.4699V27.759H80.2887C80.2887 30.8434 80.843 33.1807 81.9514 34.7711C83.108 36.3133 84.7466 37.0843 86.867 37.0843C89.7586 37.0843 91.5899 35.8313 92.361 33.3253L100.168 33.9759C97.9032 39.7108 93.3249 42.5783 86.4333 42.5783ZM86.4333 14.8916C84.5056 14.8916 83.0116 15.5663 81.9514 16.9157C80.9393 18.2651 80.4092 20.1446 80.361 22.5542H92.6502C92.5056 20 91.8791 18.0964 90.7707 16.8434C89.7104 15.5422 88.2646 14.8916 86.4333 14.8916ZM127.364 42V24.2169C127.364 18.6265 125.484 15.8313 121.725 15.8313C119.749 15.8313 118.135 16.6988 116.882 18.4337C115.677 20.1205 115.074 22.3133 115.074 25.012V42H106.833V17.4217C106.833 15.7349 106.809 14.3373 106.761 13.2289C106.713 12.1205 106.665 11.1325 106.617 10.2651H114.424C114.472 10.6506 114.544 11.6627 114.641 13.3012C114.785 14.8916 114.857 16 114.857 16.6265H114.93C116.038 14.2169 117.436 12.4578 119.123 11.3494C120.809 10.241 122.809 9.68674 125.123 9.68674C128.496 9.68674 131.074 10.7229 132.857 12.7952C134.689 14.8675 135.604 17.9036 135.604 21.9036V42H127.364ZM151.492 42.506C149.083 42.506 147.227 41.8554 145.926 40.5542C144.625 39.253 143.974 37.253 143.974 34.5542V15.8313H139.926V10.2651H144.336L146.938 2.89157H152.071V10.2651H158.071V15.8313H152.071V32.3133C152.071 33.8554 152.36 35.012 152.938 35.7831C153.565 36.506 154.48 36.8675 155.685 36.8675C156.312 36.8675 157.227 36.7229 158.432 36.4337V41.5663C156.408 42.1928 154.095 42.506 151.492 42.506ZM193.521 26.0964C193.521 31.253 192.075 35.3012 189.184 38.241C186.34 41.1325 182.413 42.5783 177.4 42.5783C172.437 42.5783 168.533 41.1325 165.69 38.241C162.894 35.3012 161.497 31.253 161.497 26.0964C161.497 20.988 162.894 16.988 165.69 14.0964C168.533 11.1566 172.485 9.68674 177.545 9.68674C182.702 9.68674 186.653 11.1084 189.4 13.9518C192.147 16.747 193.521 20.7952 193.521 26.0964ZM184.846 26.0964C184.846 22.3373 184.22 19.6145 182.967 17.9277C181.762 16.241 180.003 15.3976 177.69 15.3976C172.678 15.3976 170.172 18.9639 170.172 26.0964C170.172 29.6145 170.774 32.3133 171.979 34.1928C173.232 36.0241 174.991 36.9398 177.256 36.9398C182.316 36.9398 184.846 33.3253 184.846 26.0964ZM226.686 32.747C226.686 35.8313 225.409 38.241 222.855 39.9759C220.349 41.7108 216.879 42.5783 212.445 42.5783C208.108 42.5783 204.782 41.9036 202.469 40.5542C200.156 39.1566 198.614 37.012 197.842 34.1205L205.071 33.0361C205.505 34.5301 206.228 35.5904 207.24 36.2169C208.252 36.8434 209.987 37.1566 212.445 37.1566C214.758 37.1566 216.445 36.8675 217.505 36.2892C218.565 35.6627 219.095 34.7229 219.095 33.4699C219.095 32.4578 218.662 31.6627 217.794 31.0843C216.975 30.506 215.553 30 213.529 29.5663C208.903 28.6506 205.77 27.8072 204.132 27.0361C202.493 26.2169 201.24 25.1807 200.373 23.9277C199.553 22.6747 199.144 21.1325 199.144 19.3012C199.144 16.2651 200.3 13.9036 202.614 12.2169C204.927 10.5301 208.228 9.68674 212.517 9.68674C216.276 9.68674 219.312 10.4337 221.626 11.9277C223.939 13.3735 225.361 15.4699 225.891 18.2169L218.662 19.012C218.421 17.7108 217.842 16.747 216.927 16.1205C216.011 15.494 214.541 15.1807 212.517 15.1807C210.541 15.1807 209.071 15.4217 208.108 15.9036C207.144 16.3855 206.662 17.2289 206.662 18.4337C206.662 19.3494 207.023 20.0723 207.746 20.6024C208.517 21.1325 209.794 21.5663 211.577 21.9036C214.035 22.4337 216.228 22.9639 218.156 23.494C220.132 24.0241 221.698 24.6747 222.855 25.4458C224.011 26.1687 224.927 27.1084 225.602 28.2651C226.324 29.4217 226.686 30.9157 226.686 32.747Z" fill="black"/>
</svg>
