<svg width="3783" height="1026" viewBox="0 0 3783 1026" fill="none" xmlns="http://www.w3.org/2000/svg">
<g clip-path="url(#clip0_34_6)">
<rect x="95" y="40" width="426" height="634" rx="70" fill="#FF9500"/>
<path d="M268.563 297C268.563 297 240.962 471.975 236.941 512.067C232.92 552.159 226.645 614.729 226.645 614.729C501.921 575.529 494.579 410.569 268.563 297Z" fill="black"/>
<path d="M257.14 95.2009C257.14 95.2009 247.609 190.229 241.502 251.119C235.395 312.008 225.865 407.037 225.865 407.037C518.044 281.642 480.329 213.938 257.14 95.2009Z" fill="black"/>
<path d="M271.769 135.274L230.063 588.38L253.645 590.381L273.455 363.112L271.769 135.274Z" fill="black"/>
<path d="M234.431 83.0589C234.431 83.0589 228.529 194.575 224.747 266.03C220.966 337.484 215.064 449 215.064 449C470.013 256.753 427.828 178.769 234.431 83.0589Z" fill="#FF9500"/>
<path d="M172.564 624L206.376 101.659L248.376 101.66L172.564 624Z" fill="white"/>
<path d="M1084.76 458.895C1084.76 461.857 1083.97 464.591 1082.37 467.098C1080.78 469.376 1080.32 472.111 1081 475.301C1080.09 476.896 1078.84 478.149 1077.24 479.061C1075.88 479.972 1075.42 481.681 1075.88 484.188C1071.09 486.694 1066.65 489.884 1062.55 493.758C1058.67 497.404 1054.46 500.936 1049.9 504.354C1047.17 506.404 1044.77 507.885 1042.72 508.797C1040.9 509.48 1038.62 510.62 1035.89 512.215L1027.34 517.684C1023.47 519.734 1019.48 521.785 1015.38 523.836C1011.51 525.887 1007.97 528.507 1004.78 531.697C999.998 531.925 995.099 533.178 990.086 535.457C985.073 537.964 980.288 540.128 975.73 541.951C973.908 542.635 972.085 543.09 970.262 543.318C968.439 543.774 966.616 544.458 964.793 545.369L959.324 547.762C956.134 549.357 952.374 550.952 948.045 552.547C943.715 554.37 939.842 555.281 936.424 555.281C934.373 556.193 932.664 557.788 931.297 560.066C923.777 562.573 916.03 564.51 908.055 565.877C900.079 567.244 892.332 569.409 884.812 572.371C882.306 573.51 879.686 574.992 876.951 576.814C874.445 578.865 871.71 579.777 868.748 579.549C868.064 580.688 867.609 582.055 867.381 583.65C867.153 585.245 866.811 586.84 866.355 588.436H865.33C864.419 588.436 863.963 587.98 863.963 587.068C864.191 586.157 863.849 585.701 862.938 585.701C862.254 585.701 861.798 585.815 861.57 586.043C858.608 586.727 855.76 587.296 853.025 587.752C850.519 588.208 847.671 588.436 844.48 588.436C842.658 588.436 839.695 588.208 835.594 587.752C831.72 587.296 828.872 586.727 827.049 586.043C825.682 585.359 824.542 584.106 823.631 582.283C822.719 580.46 821.808 578.523 820.896 576.473C820.213 574.422 819.529 572.257 818.846 569.979C818.39 567.928 817.934 566.219 817.479 564.852C818.162 562.345 819.301 560.294 820.896 558.699C822.492 557.104 823.745 555.053 824.656 552.547C826.707 552.319 828.758 551.977 830.809 551.521C832.859 551.066 834.91 550.952 836.961 551.18C844.025 549.129 851.089 547.078 858.152 545.027C865.444 543.204 872.622 541.268 879.686 539.217C886.749 537.166 893.699 534.887 900.535 532.381C907.371 529.874 913.979 526.798 920.359 523.152H927.537C931.639 520.874 936.196 518.937 941.209 517.342C946.222 515.747 950.324 513.126 953.514 509.48C961.033 507.885 968.895 505.721 977.098 502.986C985.301 500.252 992.137 495.923 997.605 489.998C1001.02 489.542 1003.99 488.745 1006.49 487.605C1009 486.238 1011.39 484.871 1013.67 483.504L1020.51 479.061C1022.78 477.465 1025.4 476.212 1028.37 475.301C1030.19 473.478 1031.9 471.541 1033.49 469.49C1035.09 467.439 1037.03 465.73 1039.3 464.363C1038.62 460.717 1036.8 457.983 1033.84 456.16C1030.87 454.337 1028.25 452.173 1025.97 449.666H1018.46C1012.53 446.02 1006.15 443.286 999.314 441.463C992.706 439.412 986.098 437.247 979.49 434.969C979.035 434.741 978.465 434.627 977.781 434.627C976.186 434.627 975.161 435.197 974.705 436.336C974.477 437.475 973.566 437.931 971.971 437.703C969.92 436.336 967.755 435.538 965.477 435.311C963.198 434.855 960.805 434.627 958.299 434.627C955.109 434.627 951.919 434.855 948.729 435.311C945.766 435.538 942.69 435.652 939.5 435.652C937.905 435.652 936.31 435.538 934.715 435.311C933.12 435.083 931.525 434.513 929.93 433.602H925.486C920.701 433.602 915.916 433.829 911.131 434.285C906.574 434.513 902.016 434.627 897.459 434.627C894.952 434.627 892.56 434.627 890.281 434.627C888.003 434.399 885.724 434.057 883.445 433.602C878.66 435.88 873.533 437.475 868.064 438.387C862.596 439.298 856.899 439.982 850.975 440.438C845.278 440.893 839.581 441.349 833.885 441.805C828.188 442.033 822.719 442.602 817.479 443.514C816.111 443.286 814.744 443.172 813.377 443.172C812.238 442.944 811.098 442.83 809.959 442.83C808.82 442.83 807.566 442.944 806.199 443.172C805.06 443.172 803.921 443.286 802.781 443.514C799.819 440.324 796.173 438.045 791.844 436.678C787.742 435.083 783.641 434.057 779.539 433.602C776.349 429.728 773.956 425.854 772.361 421.98C770.994 417.879 770.083 413.322 769.627 408.309H770.994C772.589 408.309 773.273 407.511 773.045 405.916C773.045 404.321 773.615 402.954 774.754 401.814C775.893 400.447 777.374 399.536 779.197 399.08C781.248 398.396 783.185 397.713 785.008 397.029C786.831 396.346 788.54 395.548 790.135 394.637C791.958 393.497 793.325 391.788 794.236 389.51H798.68C799.591 389.51 800.503 389.624 801.414 389.852C802.553 389.852 803.465 390.193 804.148 390.877C805.06 389.965 806.199 389.168 807.566 388.484C808.934 387.801 810.187 387.117 811.326 386.434C812.693 385.75 813.833 384.952 814.744 384.041C815.656 383.13 816.225 381.762 816.453 379.939C816.681 380.623 817.251 380.965 818.162 380.965C819.074 380.965 819.871 380.737 820.555 380.281C821.466 379.826 822.492 379.712 823.631 379.939C824.77 376.749 826.707 375.04 829.441 374.812C832.176 374.585 834.682 373.787 836.961 372.42C838.556 371.508 840.037 370.483 841.404 369.344C842.771 367.977 844.253 366.723 845.848 365.584L866.355 349.861L897.801 325.936C908.283 317.96 918.992 310.555 929.93 303.719C930.385 302.352 931.069 301.326 931.98 300.643C932.892 299.959 933.803 299.275 934.715 298.592C935.626 297.68 936.31 296.769 936.766 295.857C937.449 294.946 937.677 293.579 937.449 291.756C940.639 291.072 943.032 289.819 944.627 287.996C946.45 286.173 948.045 284.236 949.412 282.186C950.779 279.907 952.146 277.742 953.514 275.691C955.109 273.413 957.16 271.704 959.666 270.564C959.438 269.881 959.324 268.855 959.324 267.488C959.324 265.665 959.438 263.842 959.666 262.02C960.122 260.197 961.033 258.602 962.4 257.234C960.35 252.449 956.818 249.031 951.805 246.98C946.792 244.702 942.007 242.765 937.449 241.17H936.424C935.285 241.17 934.601 241.74 934.373 242.879C934.373 243.79 933.803 244.474 932.664 244.93C929.018 244.018 924.917 243.562 920.359 243.562C915.802 243.562 911.245 243.904 906.688 244.588C902.358 245.271 897.915 245.385 893.357 244.93C892.674 245.841 891.876 246.753 890.965 247.664C890.281 248.576 889.37 249.373 888.23 250.057C883.445 250.285 878.66 250.968 873.875 252.107L859.52 255.525L851.658 257.234C850.519 257.69 849.721 258.488 849.266 259.627C848.81 260.766 848.468 262.02 848.24 263.387C846.873 263.159 845.962 262.589 845.506 261.678C845.278 260.766 844.48 260.083 843.113 259.627C837.872 262.817 832.176 265.438 826.023 267.488C820.099 269.539 814.744 272.729 809.959 277.059C808.364 275.236 806.085 274.324 803.123 274.324C800.617 274.324 797.882 275.122 794.92 276.717C791.958 278.312 790.135 280.363 789.451 282.869C787.173 282.413 785.464 282.186 784.324 282.186C781.818 282.186 779.653 282.869 777.83 284.236C776.235 285.604 774.64 287.199 773.045 289.021C771.45 290.617 769.741 292.212 767.918 293.807C766.095 295.402 763.816 296.313 761.082 296.541C761.082 297.68 761.082 298.934 761.082 300.301C761.31 301.44 761.424 302.693 761.424 304.061C761.424 314.314 760.854 324.568 759.715 334.822C758.576 344.848 758.006 354.988 758.006 365.242C758.006 367.521 758.12 369.799 758.348 372.078C758.576 374.129 758.689 376.408 758.689 378.914C758.689 379.598 758.12 381.079 756.98 383.357C756.069 385.636 755.385 387.345 754.93 388.484C755.841 390.991 756.183 393.497 755.955 396.004C755.955 398.51 756.525 400.903 757.664 403.182C755.613 405.005 754.588 407.511 754.588 410.701C754.588 412.068 754.588 413.436 754.588 414.803C754.816 416.17 754.93 417.537 754.93 418.904V423.006C754.246 427.563 753.79 432.234 753.562 437.02C753.335 441.577 753.221 446.134 753.221 450.691C753.221 452.742 753.221 456.274 753.221 461.287C753.449 466.072 753.79 471.541 754.246 477.693C754.702 483.618 755.385 489.77 756.297 496.15C757.208 502.531 758.348 508.455 759.715 513.924C761.31 519.165 763.247 523.494 765.525 526.912C767.804 530.33 770.538 532.039 773.729 532.039C774.412 532.039 775.21 531.925 776.121 531.697C777.26 531.469 777.83 530.9 777.83 529.988C777.83 529.077 777.602 528.279 777.146 527.596C776.919 526.912 776.805 526.115 776.805 525.203L777.146 524.52C778.969 525.431 780.906 526.001 782.957 526.229C785.236 526.456 787.514 526.684 789.793 526.912C792.072 527.14 794.236 527.482 796.287 527.938C798.338 528.621 800.161 529.874 801.756 531.697C800.844 533.52 800.389 535.457 800.389 537.508C800.389 540.242 801.072 542.749 802.439 545.027C803.807 547.534 804.718 550.04 805.174 552.547C800.844 553.914 796.857 555.395 793.211 556.99C789.793 558.813 786.375 560.408 782.957 561.775C779.539 563.37 775.893 564.738 772.02 565.877C768.146 567.244 763.702 568.156 758.689 568.611C755.499 566.561 752.765 564.738 750.486 563.143C748.208 561.548 745.132 560.522 741.258 560.066C735.333 552.091 730.434 543.09 726.561 533.064C722.687 523.266 719.611 513.012 717.332 502.303C715.281 491.593 713.8 480.883 712.889 470.174C712.205 459.236 711.863 448.982 711.863 439.412C711.863 428.93 712.205 418.562 712.889 408.309C713.8 397.827 714.939 387.345 716.307 376.863C716.762 373.673 717.218 370.483 717.674 367.293C718.13 363.875 718.585 360.571 719.041 357.381C719.497 356.242 719.839 354.988 720.066 353.621C720.522 352.026 720.75 350.659 720.75 349.52C720.75 345.646 720.636 341.772 720.408 337.898C720.18 334.025 720.066 330.265 720.066 326.619C720.066 320.923 720.408 315.112 721.092 309.188C721.32 308.048 721.661 306.567 722.117 304.744C722.801 302.921 723.143 301.326 723.143 299.959C723.143 298.136 722.687 296.883 721.775 296.199C720.864 295.516 720.066 294.376 719.383 292.781C720.066 290.503 720.636 288.338 721.092 286.287C721.548 284.008 721.775 281.73 721.775 279.451C721.775 275.122 720.978 271.362 719.383 268.172C720.522 262.247 722.231 256.437 724.51 250.74C726.788 245.044 730.776 240.714 736.473 237.752C741.03 237.98 745.587 238.436 750.145 239.119C754.93 239.803 759.031 241.74 762.449 244.93C764.044 244.018 765.867 243.449 767.918 243.221L774.412 242.537C776.691 242.309 778.742 241.967 780.564 241.512C782.387 240.828 783.982 239.575 785.35 237.752C789.907 236.84 794.806 235.587 800.047 233.992C805.288 232.169 809.845 230.118 813.719 227.84H821.238C822.833 226.701 824.656 225.903 826.707 225.447L833.201 223.738C835.48 223.055 837.531 222.371 839.354 221.688C841.404 221.004 842.999 219.865 844.139 218.27H845.506C850.747 218.27 855.874 217.13 860.887 214.852C865.9 212.573 870.799 210.522 875.584 208.699C876.723 208.243 878.432 207.446 880.711 206.307C883.217 205.167 884.926 204.598 885.838 204.598C889.028 204.142 892.218 203.914 895.408 203.914C898.598 203.686 901.788 203.23 904.979 202.547C912.27 201.408 919.448 200.154 926.512 198.787C933.803 197.192 941.095 196.395 948.387 196.395C950.893 196.395 953.172 196.508 955.223 196.736C957.501 196.736 959.894 196.85 962.4 197.078C962.628 197.99 963.198 198.787 964.109 199.471C965.021 199.926 965.818 200.382 966.502 200.838C967.413 201.294 968.211 201.977 968.895 202.889C969.578 203.572 969.806 204.598 969.578 205.965C970.034 206.421 970.49 206.648 970.945 206.648C971.629 206.648 972.199 206.307 972.654 205.623C973.338 204.939 974.249 204.598 975.389 204.598H977.098C980.06 207.788 982.908 210.864 985.643 213.826C988.605 216.561 992.251 218.839 996.58 220.662C998.403 227.498 1000.57 234.22 1003.07 240.828C1005.58 247.436 1006.83 254.5 1006.83 262.02C1006.83 266.577 1006.15 271.02 1004.78 275.35C1001.59 276.945 999.314 279.451 997.947 282.869C996.58 286.287 995.327 289.591 994.188 292.781C987.807 295.971 982.452 300.187 978.123 305.428C973.794 310.669 969.35 315.91 964.793 321.15H959.324C958.413 321.15 957.729 321.492 957.273 322.176L954.197 325.594C952.146 327.417 949.868 329.24 947.361 331.062C945.083 332.885 943.374 335.278 942.234 338.24C935.171 342.114 928.335 346.443 921.727 351.229C915.346 356.014 909.194 361.027 903.27 366.268C900.763 368.318 898.257 370.711 895.75 373.445C893.243 375.952 890.737 378.117 888.23 379.939C886.863 381.079 885.268 382.104 883.445 383.016C881.85 383.699 880.369 384.611 879.002 385.75C876.04 388.029 873.305 390.421 870.799 392.928C868.292 395.206 865.672 397.371 862.938 399.422C873.191 398.966 883.559 398.738 894.041 398.738C904.523 398.51 914.891 398.283 925.145 398.055C930.385 398.055 935.512 397.941 940.525 397.713C945.538 397.257 950.665 397.029 955.906 397.029C956.818 397.029 957.615 397.257 958.299 397.713C958.982 397.941 959.78 398.169 960.691 398.396C964.565 399.08 967.983 399.878 970.945 400.789C981.883 402.84 992.82 404.663 1003.76 406.258C1014.7 407.853 1025.4 410.473 1035.89 414.119C1038.85 415.258 1041.01 416.512 1042.38 417.879C1043.98 419.246 1046.71 419.588 1050.58 418.904C1053.77 422.094 1057.19 424.601 1060.84 426.424C1064.71 428.247 1068.59 429.842 1072.46 431.209C1075.42 435.766 1078.16 440.096 1080.66 444.197C1083.4 448.299 1084.76 453.198 1084.76 458.895ZM1319.58 299.617V300.984C1317.98 301.44 1317.19 302.579 1317.19 304.402C1314.68 305.542 1312.06 306.453 1309.32 307.137C1306.59 307.592 1303.97 308.39 1301.46 309.529C1298.96 309.301 1296.34 309.188 1293.6 309.188C1291.1 308.96 1288.59 308.846 1286.08 308.846C1279.25 308.846 1272.41 309.074 1265.57 309.529C1258.74 309.985 1251.9 309.985 1245.07 309.529C1241.88 311.352 1238.34 312.833 1234.47 313.973C1230.82 314.884 1227.29 315.34 1223.88 315.34C1221.14 315.34 1218.75 314.998 1216.7 314.314C1211.23 317.049 1205.19 319.327 1198.58 321.15C1192.2 322.973 1185.71 324.796 1179.1 326.619C1172.49 328.214 1166.11 330.151 1159.96 332.43C1154.03 334.48 1148.79 337.443 1144.24 341.316C1143.78 344.507 1143.44 347.697 1143.21 350.887C1142.98 353.849 1142.87 356.811 1142.87 359.773C1142.87 362.964 1142.98 365.926 1143.21 368.66C1143.67 371.395 1144.46 374.129 1145.6 376.863C1146.74 377.319 1148 377.661 1149.36 377.889C1150.96 378.117 1152.33 378.23 1153.46 378.23C1154.6 378.23 1155.74 378.117 1156.88 377.889C1158.02 377.433 1158.82 376.635 1159.28 375.496C1162.69 375.04 1166.11 374.926 1169.53 375.154C1172.95 375.154 1176.37 375.154 1179.78 375.154C1183.2 375.154 1186.51 375.04 1189.7 374.812C1193.11 374.585 1196.42 374.015 1199.61 373.104C1203.25 372.192 1206.79 371.622 1210.2 371.395C1213.85 371.167 1217.38 370.939 1220.8 370.711C1224.22 370.483 1227.75 370.141 1231.39 369.686C1235.04 369.002 1238.8 367.749 1242.67 365.926C1245.64 367.065 1248.6 367.635 1251.56 367.635C1254.75 367.635 1257.83 367.863 1260.79 368.318C1262.38 369.458 1263.64 370.711 1264.55 372.078C1265.69 373.445 1266.26 375.04 1266.26 376.863C1266.26 380.053 1265.12 383.243 1262.84 386.434C1260.56 389.624 1258.74 392.586 1257.37 395.32H1253.61C1248.14 395.32 1242.79 396.118 1237.55 397.713C1232.53 399.08 1227.41 400.789 1222.17 402.84C1217.15 404.663 1212.03 406.372 1206.79 407.967C1201.77 409.334 1196.53 410.018 1191.06 410.018C1190.15 410.018 1189.58 410.587 1189.35 411.727C1189.35 412.638 1189.13 413.322 1188.67 413.777C1187.53 413.549 1185.82 413.436 1183.54 413.436C1178.3 413.436 1173.29 414.005 1168.5 415.145C1163.72 416.284 1158.82 416.854 1153.81 416.854C1152.44 416.854 1151.07 416.854 1149.71 416.854C1148.34 416.626 1146.97 416.398 1145.6 416.17C1144.46 417.993 1142.98 419.246 1141.16 419.93C1139.34 420.385 1137.63 421.297 1136.03 422.664C1135.35 424.715 1134.89 427.221 1134.67 430.184C1134.67 433.146 1134.55 436.222 1134.32 439.412C1134.32 442.374 1134.1 445.223 1133.64 447.957C1133.18 450.691 1132.27 452.856 1130.91 454.451C1131.13 455.59 1132.05 456.046 1133.64 455.818C1135.24 455.363 1136.03 456.046 1136.03 457.869C1136.03 459.92 1135.81 462.085 1135.35 464.363C1134.89 466.642 1134.67 468.921 1134.67 471.199C1134.67 475.529 1135.12 480.314 1136.03 485.555C1137.17 490.568 1138.77 495.239 1140.82 499.568C1143.1 503.898 1146.06 507.544 1149.71 510.506C1153.35 513.24 1157.91 514.607 1163.38 514.607C1167.02 514.607 1170.44 513.924 1173.63 512.557C1176.82 511.189 1179.44 508.911 1181.49 505.721L1183.2 505.379C1184.11 505.379 1184.91 505.493 1185.59 505.721C1186.51 505.949 1187.42 506.062 1188.33 506.062C1189.7 506.062 1191.4 505.265 1193.46 503.67C1195.73 501.847 1198.13 499.796 1200.63 497.518C1203.37 495.239 1206.1 493.074 1208.84 491.023C1211.57 488.745 1214.19 487.15 1216.7 486.238C1218.29 483.048 1219.77 479.858 1221.14 476.668C1222.74 473.478 1225.01 470.971 1227.98 469.148V459.236C1230.26 456.73 1232.65 454.451 1235.15 452.4C1237.89 450.35 1239.94 447.729 1241.31 444.539C1242.45 444.995 1243.47 445.337 1244.38 445.564C1245.52 445.792 1246.66 445.906 1247.8 445.906C1248.94 445.906 1250.08 445.792 1251.22 445.564C1252.59 445.337 1253.84 444.995 1254.98 444.539C1256.8 447.046 1258.17 449.894 1259.08 453.084C1260.22 456.046 1261.59 458.895 1263.18 461.629C1261.13 465.73 1258.74 470.63 1256 476.326C1253.27 482.023 1250.31 487.719 1247.12 493.416C1243.93 499.113 1240.51 504.581 1236.86 509.822C1233.45 514.835 1230.03 518.709 1226.61 521.443C1225.93 522.127 1224.44 522.924 1222.17 523.836C1219.66 525.659 1217.38 527.368 1215.33 528.963C1213.28 530.786 1211.34 532.837 1209.52 535.115C1202.91 537.166 1196.53 539.9 1190.38 543.318C1184.45 546.736 1178.53 550.04 1172.61 553.23C1169.87 552.547 1166.91 552.205 1163.72 552.205C1160.98 552.205 1158.25 552.319 1155.52 552.547C1152.78 553.003 1149.82 553.23 1146.63 553.23C1145.72 552.091 1144.35 551.294 1142.53 550.838C1140.93 550.61 1140.36 549.471 1140.82 547.42C1133.07 546.964 1126.8 544.799 1122.02 540.926C1117.23 537.28 1113.13 532.723 1109.71 527.254C1106.52 521.785 1103.9 515.861 1101.85 509.48C1099.8 503.1 1097.64 496.948 1095.36 491.023V489.998C1095.36 488.859 1095.82 488.175 1096.73 487.947C1097.64 487.719 1098.09 487.036 1098.09 485.896C1098.09 485.441 1097.98 485.099 1097.75 484.871C1097.07 482.365 1096.5 480.2 1096.04 478.377C1095.59 476.554 1095.36 474.389 1095.36 471.883C1095.36 468.237 1095.59 464.705 1096.04 461.287C1096.5 457.641 1096.73 453.995 1096.73 450.35C1096.73 446.704 1096.27 443.514 1095.36 440.779C1096.27 439.64 1097.07 438.159 1097.75 436.336C1098.21 434.285 1098.55 432.234 1098.78 430.184C1099.01 428.133 1099.12 426.082 1099.12 424.031C1099.35 421.98 1099.69 420.158 1100.14 418.562C1099.23 416.056 1098.44 413.891 1097.75 412.068C1097.07 410.018 1096.73 407.625 1096.73 404.891V402.498C1099.01 398.624 1100.94 394.637 1102.54 390.535C1104.13 386.434 1105.84 382.218 1107.66 377.889V376.863C1107.66 370.255 1107.44 363.647 1106.98 357.039C1106.52 350.431 1106.3 343.823 1106.3 337.215V330.721C1106.3 328.442 1106.41 326.277 1106.64 324.227C1108.46 323.315 1109.83 322.062 1110.74 320.467C1111.65 318.872 1113.02 317.618 1114.84 316.707H1126.12L1128.17 313.289C1128.86 312.15 1129.31 310.896 1129.54 309.529C1132.05 308.846 1134.44 307.934 1136.72 306.795C1139.22 305.428 1141.5 304.061 1143.55 302.693C1146.74 300.87 1149.59 299.275 1152.1 297.908C1154.83 296.313 1157.45 295.06 1159.96 294.148C1162.69 293.009 1165.54 292.098 1168.5 291.414C1171.47 290.73 1174.88 290.161 1178.76 289.705C1180.58 289.705 1181.72 289.363 1182.18 288.68C1182.86 287.996 1183.77 287.199 1184.91 286.287C1187.64 286.743 1190.38 287.199 1193.11 287.654C1195.85 287.882 1198.58 287.996 1201.32 287.996C1206.79 287.996 1211.91 286.971 1216.7 284.92C1223.53 284.92 1230.26 284.806 1236.86 284.578C1243.7 284.35 1250.54 284.236 1257.37 284.236C1263.3 284.236 1269.22 284.464 1275.14 284.92C1281.07 285.376 1286.88 286.173 1292.58 287.312C1294.63 286.629 1296.91 286.287 1299.41 286.287C1302.15 286.287 1304.88 286.629 1307.62 287.312C1310.58 287.768 1313.43 287.768 1316.16 287.312C1316.39 289.819 1316.96 291.984 1317.87 293.807C1319.01 295.402 1319.58 297.339 1319.58 299.617ZM1528.07 292.439C1527.62 295.174 1526.93 297.566 1526.02 299.617C1525.34 301.44 1525.23 303.947 1525.68 307.137C1523.4 307.365 1521.58 308.162 1520.21 309.529C1519.07 310.669 1518.05 312.036 1517.14 313.631C1516.45 315.226 1515.66 316.935 1514.74 318.758C1514.06 320.353 1513.15 321.834 1512.01 323.201C1513.83 331.404 1514.86 339.721 1515.09 348.152C1515.31 356.583 1515.88 364.9 1516.79 373.104C1517.93 383.585 1519.64 393.953 1521.92 404.207C1524.43 414.233 1525.68 424.487 1525.68 434.969C1525.68 438.159 1525.57 441.121 1525.34 443.855C1525.34 446.59 1525.34 449.438 1525.34 452.4C1525.34 454.223 1525.34 456.16 1525.34 458.211C1525.57 460.034 1525.68 461.857 1525.68 463.68C1525.68 470.288 1524.77 476.896 1522.95 483.504C1521.35 490.112 1520.1 496.72 1519.19 503.328C1516.45 505.835 1514.06 508.569 1512.01 511.531C1510.19 514.493 1508.25 517.228 1506.2 519.734C1504.15 522.241 1501.76 524.406 1499.02 526.229C1496.29 528.279 1492.87 529.646 1488.77 530.33C1488.08 532.609 1486.72 534.318 1484.67 535.457C1482.84 536.596 1481.25 538.191 1479.88 540.242H1479.2C1473.5 540.242 1468.6 539.445 1464.5 537.85C1460.4 536.255 1456.52 534.432 1452.88 532.381C1449.46 530.33 1445.93 528.165 1442.28 525.887C1438.64 523.608 1434.42 521.785 1429.64 520.418C1423.26 515.177 1417.45 509.48 1412.21 503.328C1406.96 496.948 1401.04 491.251 1394.43 486.238C1392.84 481.681 1390.67 477.921 1387.94 474.959C1385.43 471.997 1382.92 468.579 1380.42 464.705C1379.28 463.11 1378.37 461.629 1377.68 460.262C1377.23 458.895 1376.54 457.299 1375.63 455.477C1374.95 453.654 1373.81 452.4 1372.21 451.717C1370.85 451.033 1369.59 450.236 1368.46 449.324C1366.63 442.26 1364.01 435.766 1360.59 429.842C1357.18 423.917 1353.19 418.221 1348.63 412.752C1347.26 415.258 1346.12 417.993 1345.21 420.955C1344.53 423.689 1343.85 426.538 1343.16 429.5C1342.48 432.234 1341.57 435.083 1340.43 438.045C1339.52 440.779 1338.26 443.286 1336.67 445.564V446.59C1336.67 447.729 1337.12 448.413 1338.04 448.641C1338.95 448.868 1339.4 449.552 1339.4 450.691C1339.4 450.919 1339.29 451.147 1339.06 451.375C1339.06 451.603 1339.06 451.831 1339.06 452.059C1337.92 452.97 1337.01 454.109 1336.33 455.477C1335.87 456.844 1334.73 457.641 1332.91 457.869C1333.14 459.008 1333.25 460.148 1333.25 461.287V464.363C1333.25 470.971 1332.45 477.579 1330.86 484.188C1329.49 490.796 1328.81 497.518 1328.81 504.354V508.797C1328.81 510.392 1328.92 511.873 1329.15 513.24C1329.6 514.607 1330.29 515.975 1331.2 517.342C1332.11 518.709 1332.57 519.962 1332.57 521.102C1332.57 522.697 1331.88 524.178 1330.52 525.545C1332.11 526.684 1333.93 527.938 1335.98 529.305C1338.04 530.672 1339.86 532.153 1341.45 533.748C1343.28 535.571 1344.76 537.394 1345.9 539.217C1347.04 541.268 1347.61 543.432 1347.61 545.711C1347.61 549.585 1346.35 552.319 1343.85 553.914C1341.34 555.509 1338.26 556.762 1334.62 557.674C1331.2 558.585 1327.55 559.383 1323.68 560.066C1320.03 560.978 1316.96 562.459 1314.45 564.51H1313.43C1310.69 564.51 1308.64 563.712 1307.27 562.117C1305.91 560.522 1303.86 559.725 1301.12 559.725C1296.79 552.661 1293.83 544.686 1292.23 535.799C1290.64 527.14 1289.84 518.823 1289.84 510.848C1289.84 501.049 1290.75 491.251 1292.58 481.453C1294.17 471.655 1296.22 461.971 1298.73 452.4C1301.01 442.83 1303.51 433.374 1306.25 424.031C1309.21 414.461 1311.94 404.891 1314.45 395.32L1314.79 394.295C1314.79 393.156 1314.45 392.358 1313.77 391.902C1313.31 391.447 1313.08 390.763 1313.08 389.852C1313.08 389.396 1313.2 389.168 1313.43 389.168C1314.11 386.889 1314.79 384.725 1315.48 382.674C1316.39 380.623 1317.07 378.344 1317.53 375.838C1318.89 369.458 1319.81 362.964 1320.26 356.355C1320.95 349.52 1321.29 342.798 1321.29 336.189C1321.51 329.581 1321.74 322.973 1321.97 316.365C1322.43 309.529 1323.22 302.807 1324.36 296.199C1326.19 294.376 1327.9 292.439 1329.49 290.389C1331.09 288.338 1333.14 286.515 1335.64 284.92C1340.2 285.148 1344.76 285.831 1349.31 286.971C1353.87 288.11 1358.2 289.933 1362.3 292.439C1365.04 302.238 1366.86 312.036 1367.77 321.834C1368.91 331.632 1370.73 341.43 1373.24 351.229V352.254C1373.24 353.393 1373.81 353.963 1374.95 353.963C1376.32 353.735 1377.34 354.077 1378.03 354.988C1377.57 355.672 1377.23 356.469 1377 357.381C1377 358.292 1377 359.204 1377 360.115V365.926C1377.46 367.749 1378.03 369.686 1378.71 371.736C1379.39 373.787 1380.87 375.04 1383.15 375.496C1384.29 382.788 1386 389.51 1388.28 395.662C1390.56 401.814 1393.18 407.739 1396.14 413.436C1399.1 419.132 1402.29 424.829 1405.71 430.525C1409.13 435.994 1412.66 441.805 1416.31 447.957C1422 452.286 1426.9 457.299 1431 462.996C1435.11 468.465 1439.21 473.82 1443.31 479.061C1447.64 484.074 1452.42 488.517 1457.66 492.391C1463.13 496.264 1470.2 498.657 1478.86 499.568C1479.99 498.657 1480.79 497.404 1481.25 495.809L1482.96 491.023C1483.64 489.428 1484.32 488.061 1485.01 486.922C1485.92 485.555 1487.17 484.529 1488.77 483.846C1489.22 477.465 1489.68 470.971 1490.13 464.363C1490.82 457.755 1492.3 451.489 1494.58 445.564C1493.44 443.514 1492.87 441.007 1492.87 438.045C1492.87 435.766 1492.98 433.602 1493.21 431.551C1493.67 429.5 1493.89 427.449 1493.89 425.398C1493.89 421.069 1492.98 417.537 1491.16 414.803C1491.16 413.208 1491.27 411.613 1491.5 410.018C1491.73 408.195 1492.41 406.486 1493.55 404.891C1491.73 400.333 1490.25 395.548 1489.11 390.535C1488.2 385.522 1487.74 380.395 1487.74 375.154C1487.74 372.192 1488.08 369.116 1488.77 365.926C1487.4 362.508 1486.49 358.52 1486.03 353.963L1484.67 339.949C1484.21 335.164 1483.53 330.721 1482.62 326.619C1481.7 322.518 1479.99 319.214 1477.49 316.707C1478.86 314.656 1479.54 312.264 1479.54 309.529C1479.54 304.972 1478.86 300.643 1477.49 296.541C1476.12 292.439 1475.44 288.11 1475.44 283.553C1475.44 280.363 1476.12 277.173 1477.49 273.982C1482.5 274.21 1487.4 274.78 1492.19 275.691C1497.2 276.375 1502.1 276.717 1506.88 276.717C1508.25 278.54 1509.85 280.021 1511.67 281.16C1513.49 282.299 1515.43 283.439 1517.48 284.578C1519.53 285.49 1521.47 286.515 1523.29 287.654C1525.34 288.794 1526.93 290.389 1528.07 292.439ZM1778.61 299.617V300.984C1777.02 301.44 1776.22 302.579 1776.22 304.402C1773.71 305.542 1771.09 306.453 1768.36 307.137C1765.62 307.592 1763 308.39 1760.5 309.529C1757.99 309.301 1755.37 309.188 1752.63 309.188C1750.13 308.96 1747.62 308.846 1745.12 308.846C1738.28 308.846 1731.44 309.074 1724.61 309.529C1717.77 309.985 1710.94 309.985 1704.1 309.529C1700.91 311.352 1697.38 312.833 1693.5 313.973C1689.86 314.884 1686.33 315.34 1682.91 315.34C1680.17 315.34 1677.78 314.998 1675.73 314.314C1670.26 317.049 1664.22 319.327 1657.62 321.15C1651.24 322.973 1644.74 324.796 1638.13 326.619C1631.52 328.214 1625.14 330.151 1618.99 332.43C1613.07 334.48 1607.83 337.443 1603.27 341.316C1602.81 344.507 1602.47 347.697 1602.24 350.887C1602.02 353.849 1601.9 356.811 1601.9 359.773C1601.9 362.964 1602.02 365.926 1602.24 368.66C1602.7 371.395 1603.5 374.129 1604.64 376.863C1605.78 377.319 1607.03 377.661 1608.4 377.889C1609.99 378.117 1611.36 378.23 1612.5 378.23C1613.64 378.23 1614.78 378.117 1615.92 377.889C1617.06 377.433 1617.85 376.635 1618.31 375.496C1621.73 375.04 1625.14 374.926 1628.56 375.154C1631.98 375.154 1635.4 375.154 1638.82 375.154C1642.23 375.154 1645.54 375.04 1648.73 374.812C1652.15 374.585 1655.45 374.015 1658.64 373.104C1662.29 372.192 1665.82 371.622 1669.24 371.395C1672.88 371.167 1676.41 370.939 1679.83 370.711C1683.25 370.483 1686.78 370.141 1690.43 369.686C1694.07 369.002 1697.83 367.749 1701.71 365.926C1704.67 367.065 1707.63 367.635 1710.59 367.635C1713.78 367.635 1716.86 367.863 1719.82 368.318C1721.42 369.458 1722.67 370.711 1723.58 372.078C1724.72 373.445 1725.29 375.04 1725.29 376.863C1725.29 380.053 1724.15 383.243 1721.87 386.434C1719.59 389.624 1717.77 392.586 1716.4 395.32H1712.64C1707.18 395.32 1701.82 396.118 1696.58 397.713C1691.57 399.08 1686.44 400.789 1681.2 402.84C1676.19 404.663 1671.06 406.372 1665.82 407.967C1660.81 409.334 1655.56 410.018 1650.1 410.018C1649.18 410.018 1648.61 410.587 1648.39 411.727C1648.39 412.638 1648.16 413.322 1647.7 413.777C1646.56 413.549 1644.85 413.436 1642.58 413.436C1637.34 413.436 1632.32 414.005 1627.54 415.145C1622.75 416.284 1617.85 416.854 1612.84 416.854C1611.47 416.854 1610.11 416.854 1608.74 416.854C1607.37 416.626 1606 416.398 1604.64 416.17C1603.5 417.993 1602.02 419.246 1600.19 419.93C1598.37 420.385 1596.66 421.297 1595.07 422.664C1594.38 424.715 1593.93 427.221 1593.7 430.184C1593.7 433.146 1593.59 436.222 1593.36 439.412C1593.36 442.374 1593.13 445.223 1592.67 447.957C1592.22 450.691 1591.31 452.856 1589.94 454.451C1590.17 455.59 1591.08 456.046 1592.67 455.818C1594.27 455.363 1595.07 456.046 1595.07 457.869C1595.07 459.92 1594.84 462.085 1594.38 464.363C1593.93 466.642 1593.7 468.921 1593.7 471.199C1593.7 475.529 1594.15 480.314 1595.07 485.555C1596.21 490.568 1597.8 495.239 1599.85 499.568C1602.13 503.898 1605.09 507.544 1608.74 510.506C1612.38 513.24 1616.94 514.607 1622.41 514.607C1626.06 514.607 1629.47 513.924 1632.66 512.557C1635.85 511.189 1638.47 508.911 1640.53 505.721L1642.23 505.379C1643.15 505.379 1643.94 505.493 1644.63 505.721C1645.54 505.949 1646.45 506.062 1647.36 506.062C1648.73 506.062 1650.44 505.265 1652.49 503.67C1654.77 501.847 1657.16 499.796 1659.67 497.518C1662.4 495.239 1665.13 493.074 1667.87 491.023C1670.6 488.745 1673.22 487.15 1675.73 486.238C1677.33 483.048 1678.81 479.858 1680.17 476.668C1681.77 473.478 1684.05 470.971 1687.01 469.148V459.236C1689.29 456.73 1691.68 454.451 1694.19 452.4C1696.92 450.35 1698.97 447.729 1700.34 444.539C1701.48 444.995 1702.5 445.337 1703.42 445.564C1704.56 445.792 1705.69 445.906 1706.83 445.906C1707.97 445.906 1709.11 445.792 1710.25 445.564C1711.62 445.337 1712.87 444.995 1714.01 444.539C1715.83 447.046 1717.2 449.894 1718.11 453.084C1719.25 456.046 1720.62 458.895 1722.21 461.629C1720.16 465.73 1717.77 470.63 1715.04 476.326C1712.3 482.023 1709.34 487.719 1706.15 493.416C1702.96 499.113 1699.54 504.581 1695.9 509.822C1692.48 514.835 1689.06 518.709 1685.64 521.443C1684.96 522.127 1683.48 522.924 1681.2 523.836C1678.69 525.659 1676.41 527.368 1674.36 528.963C1672.31 530.786 1670.38 532.837 1668.55 535.115C1661.94 537.166 1655.56 539.9 1649.41 543.318C1643.49 546.736 1637.56 550.04 1631.64 553.23C1628.9 552.547 1625.94 552.205 1622.75 552.205C1620.02 552.205 1617.28 552.319 1614.55 552.547C1611.81 553.003 1608.85 553.23 1605.66 553.23C1604.75 552.091 1603.38 551.294 1601.56 550.838C1599.97 550.61 1599.4 549.471 1599.85 547.42C1592.1 546.964 1585.84 544.799 1581.05 540.926C1576.27 537.28 1572.17 532.723 1568.75 527.254C1565.56 521.785 1562.94 515.861 1560.89 509.48C1558.84 503.1 1556.67 496.948 1554.39 491.023V489.998C1554.39 488.859 1554.85 488.175 1555.76 487.947C1556.67 487.719 1557.13 487.036 1557.13 485.896C1557.13 485.441 1557.01 485.099 1556.79 484.871C1556.1 482.365 1555.53 480.2 1555.08 478.377C1554.62 476.554 1554.39 474.389 1554.39 471.883C1554.39 468.237 1554.62 464.705 1555.08 461.287C1555.53 457.641 1555.76 453.995 1555.76 450.35C1555.76 446.704 1555.3 443.514 1554.39 440.779C1555.3 439.64 1556.1 438.159 1556.79 436.336C1557.24 434.285 1557.58 432.234 1557.81 430.184C1558.04 428.133 1558.15 426.082 1558.15 424.031C1558.38 421.98 1558.72 420.158 1559.18 418.562C1558.27 416.056 1557.47 413.891 1556.79 412.068C1556.1 410.018 1555.76 407.625 1555.76 404.891V402.498C1558.04 398.624 1559.98 394.637 1561.57 390.535C1563.17 386.434 1564.87 382.218 1566.7 377.889V376.863C1566.7 370.255 1566.47 363.647 1566.01 357.039C1565.56 350.431 1565.33 343.823 1565.33 337.215V330.721C1565.33 328.442 1565.44 326.277 1565.67 324.227C1567.49 323.315 1568.86 322.062 1569.77 320.467C1570.68 318.872 1572.05 317.618 1573.88 316.707H1585.15L1587.21 313.289C1587.89 312.15 1588.34 310.896 1588.57 309.529C1591.08 308.846 1593.47 307.934 1595.75 306.795C1598.26 305.428 1600.54 304.061 1602.59 302.693C1605.78 300.87 1608.62 299.275 1611.13 297.908C1613.87 296.313 1616.49 295.06 1618.99 294.148C1621.73 293.009 1624.57 292.098 1627.54 291.414C1630.5 290.73 1633.92 290.161 1637.79 289.705C1639.61 289.705 1640.75 289.363 1641.21 288.68C1641.89 287.996 1642.8 287.199 1643.94 286.287C1646.68 286.743 1649.41 287.199 1652.15 287.654C1654.88 287.882 1657.62 287.996 1660.35 287.996C1665.82 287.996 1670.95 286.971 1675.73 284.92C1682.57 284.92 1689.29 284.806 1695.9 284.578C1702.73 284.35 1709.57 284.236 1716.4 284.236C1722.33 284.236 1728.25 284.464 1734.18 284.92C1740.1 285.376 1745.91 286.173 1751.61 287.312C1753.66 286.629 1755.94 286.287 1758.45 286.287C1761.18 286.287 1763.91 286.629 1766.65 287.312C1769.61 287.768 1772.46 287.768 1775.19 287.312C1775.42 289.819 1775.99 291.984 1776.9 293.807C1778.04 295.402 1778.61 297.339 1778.61 299.617Z" fill="white"/>
<path d="M2098.53 207.674C2098.53 215.649 2097.05 223.396 2094.09 230.916C2091.13 238.208 2088.96 245.727 2087.6 253.475C2082.58 260.083 2077.91 266.919 2073.58 273.982C2069.25 281.046 2064.81 288.11 2060.25 295.174C2055.69 302.238 2050.91 309.074 2045.9 315.682C2040.88 322.062 2035.19 327.872 2028.81 333.113C2029.03 333.341 2029.15 333.797 2029.15 334.48C2029.15 335.848 2028.46 336.987 2027.1 337.898C2025.96 338.582 2025.62 339.493 2026.07 340.633C2020.38 346.557 2014.79 352.368 2009.32 358.064C2003.86 363.761 1998.84 370.141 1994.29 377.205C1989.27 379.712 1985.17 383.813 1981.98 389.51C1980.61 389.51 1979.59 389.852 1978.9 390.535C1978.22 390.991 1977.31 391.447 1976.17 391.902C1968.88 400.789 1961.24 409.22 1953.27 417.195C1945.29 425.171 1936.75 432.462 1927.63 439.07C1924.22 441.577 1920.8 443.855 1917.38 445.906C1913.96 447.957 1910.66 450.122 1907.47 452.4C1905.42 453.768 1903.37 455.363 1901.32 457.186C1899.49 459.008 1897.56 460.717 1895.51 462.312C1888.9 468.009 1882.4 472.794 1876.02 476.668C1869.64 480.314 1862.12 482.82 1853.46 484.188C1852.78 486.694 1852.44 489.428 1852.44 492.391V500.594C1852.44 503.328 1852.33 506.176 1852.1 509.139C1851.87 511.873 1851.07 514.493 1849.71 517V518.025C1849.71 520.304 1850.27 522.469 1851.41 524.52C1852.55 526.798 1853.12 529.077 1853.12 531.355C1853.12 532.951 1852.33 534.318 1850.73 535.457H1859.62C1859.62 538.647 1860.53 541.382 1862.35 543.66C1864.4 545.939 1865.43 547.648 1865.43 548.787C1865.43 552.661 1864.97 556.876 1864.06 561.434C1863.38 566.219 1861.1 569.409 1857.22 571.004V573.055C1857.22 575.333 1857 577.498 1856.54 579.549C1856.09 581.827 1855.06 583.992 1853.46 586.043C1852.1 586.043 1850.73 586.043 1849.36 586.043C1848.22 586.271 1847.08 586.385 1845.95 586.385C1836.38 586.385 1827.83 584.106 1820.31 579.549C1817.8 573.624 1816.1 567.472 1815.18 561.092C1814.5 554.939 1814.16 548.673 1814.16 542.293C1814.16 529.76 1815.07 517.342 1816.89 505.037C1818.72 492.732 1820.2 480.428 1821.34 468.123L1826.46 458.211C1826.92 451.831 1827.72 445.451 1828.86 439.07C1829.99 432.462 1831.13 425.968 1832.27 419.588C1833.41 413.208 1834.32 406.827 1835.01 400.447C1835.92 394.067 1836.26 387.687 1836.03 381.307C1837.86 377.433 1839.11 373.331 1839.79 369.002C1840.7 364.673 1841.16 360.457 1841.16 356.355C1841.16 354.077 1841.05 351.798 1840.82 349.52C1840.59 347.241 1839.91 345.076 1838.77 343.025C1840.13 342.114 1841.05 340.975 1841.5 339.607C1841.96 338.24 1842.64 336.987 1843.55 335.848C1844.24 326.961 1844.81 318.188 1845.26 309.529C1845.72 300.643 1845.95 291.87 1845.95 283.211C1845.95 278.426 1845.83 273.755 1845.6 269.197C1845.38 264.412 1845.03 259.627 1844.58 254.842C1844.35 253.019 1843.89 250.854 1843.21 248.348C1842.76 245.841 1842.53 243.904 1842.53 242.537C1842.53 240.714 1842.64 238.891 1842.87 237.068C1843.1 235.018 1843.21 232.967 1843.21 230.916C1843.21 228.637 1842.98 226.473 1842.53 224.422C1842.07 222.143 1841.27 220.092 1840.13 218.27C1829.2 221.46 1819.4 225.789 1810.74 231.258C1802.08 236.499 1793.31 242.423 1784.42 249.031C1780.78 251.538 1776.79 254.5 1772.46 257.918C1768.13 261.336 1764.03 263.956 1760.15 265.779C1759.47 266.235 1758.67 266.577 1757.76 266.805C1756.62 266.805 1755.71 266.805 1755.03 266.805C1752.52 266.805 1750.24 266.691 1748.19 266.463C1746.14 266.007 1744.09 265.779 1742.04 265.779C1738.85 262.589 1735.09 260.083 1730.76 258.26C1730.08 255.525 1729.73 252.563 1729.73 249.373C1729.73 246.183 1730.08 243.107 1730.76 240.145C1731.22 237.182 1732.01 234.22 1733.15 231.258C1735.89 230.346 1738.85 229.321 1742.04 228.182C1745 227.042 1747.96 225.789 1750.93 224.422C1753.66 222.827 1756.17 221.118 1758.45 219.295C1760.72 217.244 1762.55 214.738 1763.91 211.775C1765.28 212.459 1766.53 212.801 1767.67 212.801C1768.81 212.801 1769.84 212.687 1770.75 212.459C1771.66 212.231 1772.69 212.003 1773.83 211.775C1777.93 209.269 1782.03 206.648 1786.13 203.914C1790.46 201.18 1794.9 198.901 1799.46 197.078C1800.83 196.622 1801.63 196.053 1801.85 195.369C1802.08 194.686 1802.08 193.66 1801.85 192.293C1807.09 190.698 1812.56 188.875 1818.26 186.824C1823.96 184.546 1828.74 181.469 1832.62 177.596H1838.77C1842.19 175.089 1845.83 173.038 1849.71 171.443C1853.58 169.848 1857.45 168.367 1861.33 167C1865.43 165.405 1869.42 163.81 1873.29 162.215C1877.16 160.392 1880.81 158.113 1884.23 155.379C1885.59 154.923 1886.73 154.695 1887.64 154.695C1888.78 154.695 1890.04 154.923 1891.4 155.379C1893.68 154.24 1895.62 152.872 1897.21 151.277L1902.68 145.809C1906.33 145.809 1909.63 145.467 1912.6 144.783C1915.56 144.1 1918.41 143.188 1921.14 142.049C1923.88 140.91 1926.5 139.656 1929 138.289C1931.74 136.694 1934.7 135.099 1937.89 133.504C1939.26 133.96 1940.28 134.529 1940.96 135.213C1941.65 135.669 1942.79 135.896 1944.38 135.896C1946.66 134.301 1949.05 133.162 1951.56 132.479C1954.29 131.567 1957.03 130.883 1959.76 130.428C1962.5 129.972 1965.12 129.402 1967.62 128.719C1970.36 128.035 1972.75 126.782 1974.8 124.959C1982.09 124.959 1989.39 124.845 1996.68 124.617C2004.2 124.161 2011.6 123.934 2018.89 123.934C2029.38 123.934 2039.97 124.731 2050.68 126.326C2061.62 127.921 2071.42 131.909 2080.08 138.289C2083.49 146.492 2088.39 153.442 2094.77 159.139C2095.23 161.645 2095.68 164.038 2096.14 166.316C2096.82 168.367 2097.62 170.418 2098.53 172.469C2096.94 175.887 2096.14 179.646 2096.14 183.748C2096.14 187.85 2096.48 191.951 2097.17 196.053C2098.08 199.926 2098.53 203.8 2098.53 207.674ZM2066.75 199.471C2065.61 197.42 2064.81 195.141 2064.35 192.635C2064.13 189.9 2064.13 187.28 2064.35 184.773C2061.39 182.495 2059.11 179.533 2057.52 175.887C2055.92 172.241 2053.64 169.507 2050.68 167.684C2048.63 166.544 2045.67 165.861 2041.79 165.633C2038.15 165.405 2035.07 164.949 2032.57 164.266C2029.6 163.354 2027.55 162.443 2026.41 161.531C2025.5 160.62 2023.45 160.164 2020.26 160.164C2017.53 160.164 2014.79 160.506 2012.06 161.189C2009.32 161.645 2006.59 161.873 2003.86 161.873C2001.58 161.873 1999.41 161.417 1997.36 160.506C1995.31 159.594 1993.15 159.139 1990.87 159.139C1988.36 159.139 1985.97 159.936 1983.69 161.531C1981.64 163.126 1979.13 163.582 1976.17 162.898C1974.8 164.038 1974.01 164.949 1973.78 165.633C1973.78 166.316 1973.66 166.886 1973.44 167.342C1973.21 167.57 1972.64 167.684 1971.73 167.684H1966.94C1962.16 167.684 1957.26 168.367 1952.24 169.734C1947.46 171.102 1943.13 173.38 1939.26 176.57C1938.57 176.342 1937.89 176.229 1937.21 176.229C1936.75 176.001 1936.18 175.887 1935.5 175.887C1931.62 175.887 1927.86 177.026 1924.22 179.305C1920.8 181.355 1916.93 182.381 1912.6 182.381C1909.86 185.115 1906.56 187.28 1902.68 188.875C1898.81 190.47 1894.82 192.065 1890.72 193.66C1886.85 195.027 1883.2 196.736 1879.78 198.787C1876.37 200.61 1873.74 203.344 1871.92 206.99C1871.69 208.813 1872.26 209.952 1873.63 210.408C1875 210.864 1875.68 212.003 1875.68 213.826C1875.68 215.421 1875.34 217.358 1874.66 219.637C1874.2 221.915 1873.97 224.194 1873.97 226.473C1873.97 231.714 1874.54 236.84 1875.68 241.854C1876.82 246.867 1877.96 251.993 1879.1 257.234C1877.96 257.918 1877.16 258.943 1876.71 260.311C1876.25 261.678 1875.45 262.703 1874.31 263.387C1877.5 272.957 1879.1 282.755 1879.1 292.781C1879.1 300.757 1878.19 308.618 1876.37 316.365C1874.77 323.885 1873.63 331.632 1872.95 339.607V339.949C1872.95 341.316 1873.4 342.228 1874.31 342.684C1875.23 343.139 1875.68 343.937 1875.68 345.076C1875.68 345.76 1875.57 346.329 1875.34 346.785C1872.83 362.28 1870.33 377.775 1867.82 393.27C1865.54 408.764 1863.6 424.373 1862.01 440.096H1864.74C1870.67 440.096 1875.91 438.387 1880.47 434.969C1885.25 431.323 1889.24 427.335 1892.43 423.006H1897.9C1914.3 408.65 1930.03 393.839 1945.07 378.572C1960.33 363.305 1974.8 346.899 1988.47 329.354C1990.3 329.354 1991.55 328.898 1992.23 327.986C1992.92 327.075 1994.06 326.391 1995.65 325.936C2000.44 319.327 2005.45 312.833 2010.69 306.453C2015.93 299.845 2021.63 293.579 2027.78 287.654C2028.01 285.376 2028.58 283.325 2029.49 281.502C2030.63 279.679 2031.77 277.97 2032.91 276.375C2034.05 274.78 2035.07 273.071 2035.98 271.248C2036.9 269.425 2037.35 267.26 2037.35 264.754C2038.49 264.298 2039.74 263.842 2041.11 263.387C2042.48 262.703 2043.73 261.792 2044.87 260.652C2045.33 258.374 2046.12 256.323 2047.26 254.5C2048.4 252.677 2048.97 250.626 2048.97 248.348C2048.97 247.436 2048.74 246.297 2048.29 244.93C2051.93 243.335 2054.78 240.714 2056.83 237.068C2058.88 233.423 2060.48 229.435 2061.62 225.105C2062.76 220.548 2063.56 215.991 2064.01 211.434C2064.7 206.876 2065.61 202.889 2066.75 199.471ZM2318.99 492.049C2318.31 495.239 2316.83 497.859 2314.55 499.91C2312.5 501.733 2309.99 503.214 2307.03 504.354C2304.07 505.493 2300.99 506.29 2297.8 506.746C2294.84 506.974 2292.1 507.088 2289.6 507.088C2288.46 507.088 2287.32 507.088 2286.18 507.088C2285.27 506.86 2284.24 506.746 2283.1 506.746C2281.96 506.746 2281.39 507.316 2281.39 508.455C2281.39 509.594 2280.82 510.392 2279.69 510.848C2278.55 510.392 2277.41 510.05 2276.27 509.822C2275.13 509.594 2273.99 509.48 2272.85 509.48C2271.25 509.48 2269.66 509.594 2268.06 509.822C2266.7 510.05 2265.33 510.164 2263.96 510.164C2262.14 510.164 2260.77 509.936 2259.86 509.48C2259.18 509.025 2258.49 508.569 2257.81 508.113C2257.35 507.43 2256.79 506.746 2256.1 506.062C2255.65 505.379 2254.85 504.809 2253.71 504.354C2252.11 503.67 2250.75 503.556 2249.61 504.012C2248.7 504.467 2247.21 503.784 2245.16 501.961C2242.43 499.682 2240.04 496.948 2237.99 493.758C2236.16 490.34 2234.34 486.808 2232.52 483.162C2230.69 479.516 2228.76 475.87 2226.71 472.225C2224.66 468.579 2222.26 465.389 2219.53 462.654H2216.79C2212.69 462.654 2209.85 464.363 2208.25 467.781C2207.11 467.098 2205.97 466.3 2204.83 465.389C2203.69 464.249 2202.44 463.338 2201.07 462.654C2195.83 464.249 2190.36 465.617 2184.67 466.756C2178.97 467.895 2173.27 468.465 2167.58 468.465H2162.79C2161.42 468.465 2159.94 468.237 2158.35 467.781C2156.07 468.693 2154.02 469.832 2152.2 471.199C2150.37 472.339 2148.32 472.908 2146.04 472.908C2144.68 472.908 2143.08 472.452 2141.26 471.541C2139.89 471.541 2139.21 472.111 2139.21 473.25C2139.43 474.389 2138.75 474.959 2137.16 474.959H2134.08C2130.89 474.959 2127.7 475.073 2124.51 475.301C2121.55 475.529 2118.47 475.643 2115.28 475.643C2110.95 475.643 2106.51 475.073 2101.95 473.934C2100.81 474.617 2099.56 474.959 2098.19 474.959C2097.28 475.415 2096.6 476.212 2096.14 477.352C2095.68 478.263 2095.23 479.174 2094.77 480.086C2094.32 480.77 2093.63 481.453 2092.72 482.137C2092.04 482.592 2091.01 482.706 2089.65 482.479C2089.19 485.213 2088.05 487.378 2086.23 488.973C2084.41 490.568 2083.49 492.96 2083.49 496.15C2080.99 497.518 2078.94 499.227 2077.34 501.277C2075.75 503.328 2074.15 505.493 2072.56 507.771C2070.96 510.05 2069.25 512.215 2067.43 514.266C2065.83 516.316 2063.78 517.911 2061.28 519.051C2060.14 520.418 2059.8 522.583 2060.25 525.545C2057.75 527.596 2054.67 529.419 2051.02 531.014C2047.38 532.609 2043.96 533.406 2040.77 533.406C2034.16 533.406 2029.6 529.874 2027.1 522.811C2027.1 520.532 2027.33 518.139 2027.78 515.633C2028.01 512.898 2028.46 510.392 2029.15 508.113C2029.83 505.607 2030.86 503.442 2032.22 501.619C2033.59 499.568 2035.53 498.087 2038.04 497.176C2038.04 495.125 2037.35 493.758 2035.98 493.074C2034.62 492.163 2034.05 490.682 2034.28 488.631C2040.43 485.669 2045.78 481.795 2050.34 477.01C2054.9 472.225 2059 467.212 2062.64 461.971C2066.52 456.502 2070.39 451.033 2074.27 445.564C2078.14 440.096 2082.47 435.197 2087.25 430.867V423.689C2094.09 416.398 2098.53 408.195 2100.58 399.08C2103.09 398.624 2104.69 397.485 2105.37 395.662C2106.28 393.839 2106.74 391.674 2106.74 389.168C2107.88 389.168 2108.56 388.712 2108.79 387.801C2109.24 386.661 2110.27 386.32 2111.86 386.775C2113.91 381.307 2116.19 376.294 2118.7 371.736C2121.21 367.179 2123.71 362.622 2126.22 358.064C2128.73 353.279 2130.89 348.38 2132.71 343.367C2134.76 338.354 2136.24 332.771 2137.16 326.619C2140.35 326.391 2142.06 324.91 2142.28 322.176C2142.74 319.214 2143.19 316.593 2143.65 314.314C2147.07 311.124 2149.57 307.365 2151.17 303.035C2152.99 298.706 2154.59 294.262 2155.96 289.705C2157.32 284.92 2158.8 280.249 2160.4 275.691C2162.22 270.906 2164.73 266.691 2167.92 263.045V262.02C2167.92 260.88 2167.46 260.197 2166.55 259.969C2165.64 259.513 2165.18 258.715 2165.18 257.576C2165.41 257.348 2165.53 257.12 2165.53 256.893C2168.26 255.753 2170.31 253.93 2171.68 251.424C2173.04 248.689 2175.1 246.753 2177.83 245.613C2182.62 249.487 2186.83 251.88 2190.48 252.791C2194.12 253.475 2198.91 254.044 2204.83 254.5C2207.79 257.69 2209.39 261.564 2209.62 266.121C2210.07 270.451 2210.87 274.78 2212.01 279.109C2213.83 286.401 2215.77 293.579 2217.82 300.643C2220.1 307.479 2221.81 314.542 2222.95 321.834C2223.63 326.163 2224.88 330.265 2226.71 334.139C2228.53 338.012 2229.78 342 2230.47 346.102C2230.92 349.292 2230.92 352.938 2230.47 357.039C2230.01 360.913 2230.47 364.331 2231.83 367.293L2234.23 372.762C2235.37 375.268 2236.28 377.889 2236.96 380.623C2237.87 383.357 2238.67 386.092 2239.35 388.826C2241.18 395.662 2242.77 403.068 2244.14 411.043C2245.73 418.79 2248.13 425.854 2251.32 432.234C2252.46 434.513 2254.16 436.108 2256.44 437.02C2258.95 437.931 2261.68 438.615 2264.65 439.07C2267.61 439.298 2270.46 439.412 2273.19 439.412C2276.15 439.184 2278.66 439.07 2280.71 439.07H2284.13C2285.5 439.07 2286.86 439.298 2288.23 439.754C2289.14 441.577 2289.6 443.172 2289.6 444.539C2289.6 447.273 2288.69 449.438 2286.86 451.033C2285.04 452.628 2284.13 454.451 2284.13 456.502C2284.13 457.641 2284.58 458.895 2285.5 460.262C2284.58 460.034 2283.22 459.92 2281.39 459.92C2276.15 459.92 2271.03 460.831 2266.01 462.654C2267.84 466.528 2270.23 469.832 2273.19 472.566C2276.38 475.073 2279.69 477.465 2283.1 479.744C2285.38 477.921 2287.77 477.01 2290.28 477.01C2293.02 477.01 2295.52 477.693 2297.8 479.061C2300.31 480.2 2302.93 480.77 2305.66 480.77C2307.71 480.77 2309.19 480.428 2310.11 479.744C2311.93 481.795 2313.41 483.96 2314.55 486.238C2315.69 488.289 2317.17 490.226 2318.99 492.049ZM2212.01 437.361C2211.55 433.488 2210.76 430.753 2209.62 429.158C2208.71 427.335 2207.91 425.171 2207.22 422.664C2206.31 419.474 2205.63 416.056 2205.17 412.41C2204.95 408.764 2204.49 405.232 2203.81 401.814C2202.21 394.067 2200.39 386.32 2198.34 378.572C2196.51 370.825 2194.12 363.305 2191.16 356.014C2192.07 354.646 2192.53 353.393 2192.53 352.254V351.229C2190.48 348.95 2189 346.215 2188.08 343.025C2187.17 339.607 2186.26 336.303 2185.35 333.113C2184.67 329.695 2183.64 326.619 2182.27 323.885C2181.13 320.923 2179.2 318.53 2176.46 316.707C2175.78 318.074 2175.44 319.669 2175.44 321.492C2175.44 323.087 2175.55 324.568 2175.78 325.936C2176.24 327.303 2176.46 328.784 2176.46 330.379C2174.18 331.518 2172.48 333.341 2171.34 335.848C2170.42 338.126 2168.83 339.949 2166.55 341.316C2164.73 348.608 2162.11 355.558 2158.69 362.166C2155.27 368.546 2151.63 374.926 2147.75 381.307C2144.11 387.687 2140.57 394.181 2137.16 400.789C2133.74 407.169 2131 413.891 2128.95 420.955C2125.99 423.006 2123.94 425.626 2122.8 428.816C2121.89 432.007 2121.43 435.197 2121.43 438.387C2123.48 439.526 2125.76 440.21 2128.27 440.438C2131 440.438 2133.62 440.438 2136.13 440.438C2138.64 440.438 2141.03 440.665 2143.31 441.121C2145.59 441.577 2147.64 442.716 2149.46 444.539C2152.42 443.628 2155.61 443.058 2159.03 442.83C2162.68 442.374 2165.64 441.349 2167.92 439.754C2172.48 441.349 2177.37 442.146 2182.62 442.146C2185.35 442.146 2187.97 441.919 2190.48 441.463C2193.21 441.007 2195.83 440.438 2198.34 439.754C2200.39 440.21 2201.98 441.007 2203.12 442.146C2204.26 443.058 2205.97 443.4 2208.25 443.172C2209.39 442.26 2210.07 441.349 2210.3 440.438C2210.53 439.298 2211.1 438.273 2212.01 437.361ZM2390.09 470.174C2388.95 471.997 2387.58 473.706 2385.98 475.301C2384.39 476.668 2382.91 478.149 2381.54 479.744C2379.95 480.428 2378.12 480.77 2376.07 480.77C2374.25 480.77 2372.43 480.77 2370.6 480.77C2369.01 480.542 2367.41 480.542 2365.82 480.77C2364.45 480.77 2363.31 481.225 2362.4 482.137C2360.58 481.681 2359.21 480.883 2358.3 479.744C2357.39 478.377 2355.79 477.579 2353.51 477.352C2352.6 477.124 2351.69 477.124 2350.78 477.352C2347.36 473.478 2344.17 469.376 2341.21 465.047C2338.47 460.717 2335.85 456.616 2333.35 452.742C2333.12 444.311 2332.44 435.766 2331.3 427.107C2331.07 425.057 2330.73 423.006 2330.27 420.955C2329.82 418.904 2329.47 416.967 2329.25 415.145C2329.25 412.866 2329.36 410.701 2329.59 408.65C2330.04 406.372 2330.39 404.321 2330.61 402.498C2331.52 395.89 2332.55 389.396 2333.69 383.016C2334.83 376.635 2335.85 370.141 2336.77 363.533C2337.68 357.609 2338.13 351.456 2338.13 345.076C2338.13 338.468 2337.11 332.316 2335.06 326.619L2334.71 324.91C2335.17 323.087 2335.63 321.606 2336.08 320.467C2336.77 319.1 2337.22 317.618 2337.45 316.023C2337.9 313.517 2337.34 311.694 2335.74 310.555C2336.42 308.732 2337.56 307.592 2339.16 307.137C2340.75 306.453 2341.66 305.086 2341.89 303.035C2342.12 302.124 2342.12 301.212 2341.89 300.301C2343.72 299.617 2345.54 299.048 2347.36 298.592C2349.41 297.908 2351.35 297.794 2353.17 298.25C2356.13 298.706 2358.75 299.731 2361.03 301.326C2363.31 302.693 2365.48 304.288 2367.53 306.111C2371.17 317.049 2372.65 328.67 2371.97 340.975C2371.29 353.051 2370.15 365.242 2368.55 377.547C2366.96 389.852 2365.93 401.928 2365.48 413.777C2365.02 425.398 2366.84 436.222 2370.95 446.248L2371.63 446.59C2372.77 446.818 2373.68 446.476 2374.36 445.564C2375.05 444.425 2375.96 443.969 2377.1 444.197C2378.01 444.653 2378.58 444.881 2378.81 444.881C2379.72 449.438 2381.2 453.768 2383.25 457.869C2385.3 461.971 2387.58 466.072 2390.09 470.174ZM2647.46 292.439C2647 295.174 2646.32 297.566 2645.41 299.617C2644.72 301.44 2644.61 303.947 2645.07 307.137C2642.79 307.365 2640.96 308.162 2639.6 309.529C2638.46 310.669 2637.43 312.036 2636.52 313.631C2635.84 315.226 2635.04 316.935 2634.13 318.758C2633.45 320.353 2632.53 321.834 2631.39 323.201C2633.22 331.404 2634.24 339.721 2634.47 348.152C2634.7 356.583 2635.27 364.9 2636.18 373.104C2637.32 383.585 2639.03 393.953 2641.31 404.207C2643.81 414.233 2645.07 424.487 2645.07 434.969C2645.07 438.159 2644.95 441.121 2644.72 443.855C2644.72 446.59 2644.72 449.438 2644.72 452.4C2644.72 454.223 2644.72 456.16 2644.72 458.211C2644.95 460.034 2645.07 461.857 2645.07 463.68C2645.07 470.288 2644.15 476.896 2642.33 483.504C2640.74 490.112 2639.48 496.72 2638.57 503.328C2635.84 505.835 2633.45 508.569 2631.39 511.531C2629.57 514.493 2627.63 517.228 2625.58 519.734C2623.53 522.241 2621.14 524.406 2618.41 526.229C2615.67 528.279 2612.25 529.646 2608.15 530.33C2607.47 532.609 2606.1 534.318 2604.05 535.457C2602.23 536.596 2600.63 538.191 2599.27 540.242H2598.58C2592.89 540.242 2587.99 539.445 2583.88 537.85C2579.78 536.255 2575.91 534.432 2572.26 532.381C2568.85 530.33 2565.31 528.165 2561.67 525.887C2558.02 523.608 2553.81 521.785 2549.02 520.418C2542.64 515.177 2536.83 509.48 2531.59 503.328C2526.35 496.948 2520.42 491.251 2513.82 486.238C2512.22 481.681 2510.06 477.921 2507.32 474.959C2504.82 471.997 2502.31 468.579 2499.8 464.705C2498.66 463.11 2497.75 461.629 2497.07 460.262C2496.61 458.895 2495.93 457.299 2495.02 455.477C2494.33 453.654 2493.19 452.4 2491.6 451.717C2490.23 451.033 2488.98 450.236 2487.84 449.324C2486.02 442.26 2483.4 435.766 2479.98 429.842C2476.56 423.917 2472.57 418.221 2468.02 412.752C2466.65 415.258 2465.51 417.993 2464.6 420.955C2463.91 423.689 2463.23 426.538 2462.55 429.5C2461.86 432.234 2460.95 435.083 2459.81 438.045C2458.9 440.779 2457.65 443.286 2456.05 445.564V446.59C2456.05 447.729 2456.51 448.413 2457.42 448.641C2458.33 448.868 2458.79 449.552 2458.79 450.691C2458.79 450.919 2458.67 451.147 2458.45 451.375C2458.45 451.603 2458.45 451.831 2458.45 452.059C2457.31 452.97 2456.39 454.109 2455.71 455.477C2455.26 456.844 2454.12 457.641 2452.29 457.869C2452.52 459.008 2452.63 460.148 2452.63 461.287V464.363C2452.63 470.971 2451.84 477.579 2450.24 484.188C2448.88 490.796 2448.19 497.518 2448.19 504.354V508.797C2448.19 510.392 2448.31 511.873 2448.53 513.24C2448.99 514.607 2449.67 515.975 2450.58 517.342C2451.5 518.709 2451.95 519.962 2451.95 521.102C2451.95 522.697 2451.27 524.178 2449.9 525.545C2451.5 526.684 2453.32 527.938 2455.37 529.305C2457.42 530.672 2459.24 532.153 2460.84 533.748C2462.66 535.571 2464.14 537.394 2465.28 539.217C2466.42 541.268 2466.99 543.432 2466.99 545.711C2466.99 549.585 2465.74 552.319 2463.23 553.914C2460.72 555.509 2457.65 556.762 2454 557.674C2450.58 558.585 2446.94 559.383 2443.06 560.066C2439.42 560.978 2436.34 562.459 2433.84 564.51H2432.81C2430.08 564.51 2428.03 563.712 2426.66 562.117C2425.29 560.522 2423.24 559.725 2420.51 559.725C2416.18 552.661 2413.21 544.686 2411.62 535.799C2410.02 527.14 2409.23 518.823 2409.23 510.848C2409.23 501.049 2410.14 491.251 2411.96 481.453C2413.56 471.655 2415.61 461.971 2418.11 452.4C2420.39 442.83 2422.9 433.374 2425.63 424.031C2428.6 414.461 2431.33 404.891 2433.84 395.32L2434.18 394.295C2434.18 393.156 2433.84 392.358 2433.15 391.902C2432.7 391.447 2432.47 390.763 2432.47 389.852C2432.47 389.396 2432.58 389.168 2432.81 389.168C2433.49 386.889 2434.18 384.725 2434.86 382.674C2435.77 380.623 2436.46 378.344 2436.91 375.838C2438.28 369.458 2439.19 362.964 2439.65 356.355C2440.33 349.52 2440.67 342.798 2440.67 336.189C2440.9 329.581 2441.13 322.973 2441.36 316.365C2441.81 309.529 2442.61 302.807 2443.75 296.199C2445.57 294.376 2447.28 292.439 2448.88 290.389C2450.47 288.338 2452.52 286.515 2455.03 284.92C2459.58 285.148 2464.14 285.831 2468.7 286.971C2473.26 288.11 2477.59 289.933 2481.69 292.439C2484.42 302.238 2486.24 312.036 2487.16 321.834C2488.3 331.632 2490.12 341.43 2492.62 351.229V352.254C2492.62 353.393 2493.19 353.963 2494.33 353.963C2495.7 353.735 2496.73 354.077 2497.41 354.988C2496.95 355.672 2496.61 356.469 2496.38 357.381C2496.38 358.292 2496.38 359.204 2496.38 360.115V365.926C2496.84 367.749 2497.41 369.686 2498.09 371.736C2498.78 373.787 2500.26 375.04 2502.54 375.496C2503.68 382.788 2505.39 389.51 2507.66 395.662C2509.94 401.814 2512.56 407.739 2515.53 413.436C2518.49 419.132 2521.68 424.829 2525.1 430.525C2528.51 435.994 2532.05 441.805 2535.69 447.957C2541.39 452.286 2546.29 457.299 2550.39 462.996C2554.49 468.465 2558.59 473.82 2562.69 479.061C2567.02 484.074 2571.81 488.517 2577.05 492.391C2582.52 496.264 2589.58 498.657 2598.24 499.568C2599.38 498.657 2600.18 497.404 2600.63 495.809L2602.34 491.023C2603.03 489.428 2603.71 488.061 2604.39 486.922C2605.3 485.555 2606.56 484.529 2608.15 483.846C2608.61 477.465 2609.06 470.971 2609.52 464.363C2610.2 457.755 2611.68 451.489 2613.96 445.564C2612.82 443.514 2612.25 441.007 2612.25 438.045C2612.25 435.766 2612.37 433.602 2612.6 431.551C2613.05 429.5 2613.28 427.449 2613.28 425.398C2613.28 421.069 2612.37 417.537 2610.54 414.803C2610.54 413.208 2610.66 411.613 2610.89 410.018C2611.11 408.195 2611.8 406.486 2612.94 404.891C2611.11 400.333 2609.63 395.548 2608.49 390.535C2607.58 385.522 2607.13 380.395 2607.13 375.154C2607.13 372.192 2607.47 369.116 2608.15 365.926C2606.79 362.508 2605.87 358.52 2605.42 353.963L2604.05 339.949C2603.6 335.164 2602.91 330.721 2602 326.619C2601.09 322.518 2599.38 319.214 2596.87 316.707C2598.24 314.656 2598.92 312.264 2598.92 309.529C2598.92 304.972 2598.24 300.643 2596.87 296.541C2595.51 292.439 2594.82 288.11 2594.82 283.553C2594.82 280.363 2595.51 277.173 2596.87 273.982C2601.89 274.21 2606.79 274.78 2611.57 275.691C2616.58 276.375 2621.48 276.717 2626.27 276.717C2627.63 278.54 2629.23 280.021 2631.05 281.16C2632.88 282.299 2634.81 283.439 2636.86 284.578C2638.91 285.49 2640.85 286.515 2642.67 287.654C2644.72 288.794 2646.32 290.389 2647.46 292.439ZM2975.93 297.225C2975.01 300.187 2973.53 302.921 2971.48 305.428L2965.67 312.605C2963.85 314.884 2962.25 317.391 2960.89 320.125C2959.75 322.632 2959.41 325.594 2959.86 329.012C2959.41 329.012 2958.84 329.012 2958.15 329.012C2957.47 328.784 2956.9 328.67 2956.44 328.67C2952.8 328.67 2949.95 329.581 2947.9 331.404C2946.08 332.999 2943.57 334.367 2940.38 335.506C2939.92 334.139 2939.35 332.885 2938.67 331.746C2937.99 330.379 2936.96 329.467 2935.59 329.012C2930.12 330.151 2924.66 331.062 2919.19 331.746C2913.72 332.202 2908.25 332.885 2902.78 333.797C2900.27 334.253 2897.77 334.936 2895.26 335.848C2892.76 336.531 2890.13 337.215 2887.4 337.898C2886.03 338.354 2884.55 338.582 2882.96 338.582C2881.36 338.354 2879.77 338.354 2878.17 338.582C2872.7 338.81 2866.78 339.266 2860.4 339.949C2854.02 340.405 2848.32 342.114 2843.31 345.076C2841.03 344.62 2838.64 344.279 2836.13 344.051C2833.62 343.823 2831.12 343.709 2828.61 343.709C2823.14 343.709 2817.1 344.279 2810.5 345.418C2804.12 346.329 2798.42 348.266 2793.41 351.229C2792.27 350.773 2791.01 350.431 2789.65 350.203C2788.51 349.975 2787.14 349.861 2785.54 349.861C2785.09 349.861 2784.75 349.975 2784.52 350.203C2784.29 350.203 2783.95 350.203 2783.49 350.203C2783.27 352.254 2783.49 354.305 2784.18 356.355C2785.09 358.178 2786.57 359.66 2788.62 360.799C2787.71 363.305 2787.25 366.04 2787.25 369.002C2787.25 372.876 2787.48 376.749 2787.94 380.623C2788.62 384.497 2788.96 388.37 2788.96 392.244C2788.96 396.574 2788.39 399.992 2787.25 402.498C2789.53 409.334 2790.67 416.626 2790.67 424.373C2790.67 427.107 2790.44 429.842 2789.99 432.576C2789.76 435.083 2789.65 437.817 2789.65 440.779C2789.65 443.286 2790.56 445.337 2792.38 446.932C2794.2 448.299 2795.12 450.236 2795.12 452.742C2795.12 453.654 2794.89 454.565 2794.43 455.477C2797.62 454.793 2800.7 453.882 2803.66 452.742C2806.62 451.375 2809.7 450.691 2812.89 450.691C2814.71 450.691 2816.42 451.033 2818.02 451.717C2819.84 452.4 2821.43 453.312 2822.8 454.451C2822.57 455.59 2822.35 456.844 2822.12 458.211C2822.12 459.578 2822.12 460.945 2822.12 462.312C2822.12 464.819 2822.12 467.212 2822.12 469.49C2822.35 471.541 2822.57 473.82 2822.8 476.326C2820.98 479.516 2818.81 482.365 2816.31 484.871C2814.03 487.378 2812.43 490.568 2811.52 494.441C2808.1 494.441 2805.03 495.239 2802.29 496.834C2799.79 498.201 2797.39 499.796 2795.12 501.619C2792.84 503.214 2790.56 504.809 2788.28 506.404C2786 507.771 2783.49 508.455 2780.76 508.455C2777.34 508.455 2774.95 507.999 2773.58 507.088C2772.21 505.949 2771.19 504.809 2770.51 503.67C2769.82 502.531 2769.14 501.505 2768.46 500.594C2768 499.682 2766.86 499.34 2765.04 499.568C2764.58 496.606 2763.67 493.872 2762.3 491.365C2760.94 488.631 2759.45 486.01 2757.86 483.504C2756.49 480.997 2755.01 478.491 2753.42 475.984C2752.05 473.25 2751.02 470.516 2750.34 467.781C2748.97 461.857 2748.4 455.704 2748.63 449.324C2748.86 442.944 2747.83 436.792 2745.55 430.867C2746.01 427.677 2746.35 424.487 2746.58 421.297C2746.81 417.879 2746.92 414.575 2746.92 411.385C2746.92 405.005 2746.69 398.738 2746.24 392.586C2746.01 386.206 2745.78 379.712 2745.55 373.104C2743.96 371.053 2742.93 368.774 2742.48 366.268C2742.25 363.533 2742.02 360.913 2741.79 358.406C2741.11 357.723 2740.31 357.039 2739.4 356.355C2738.72 355.672 2738.26 354.76 2738.04 353.621C2736.21 353.165 2734.85 352.938 2733.93 352.938C2730.74 352.938 2728.01 353.735 2725.73 355.33C2723.68 356.697 2721.74 357.381 2719.92 357.381C2718.1 357.381 2716.39 357.153 2714.79 356.697C2713.2 356.242 2711.6 356.014 2710.01 356.014C2708.64 356.014 2707.84 356.355 2707.62 357.039C2707.62 357.495 2707.16 357.951 2706.25 358.406C2705.56 358.862 2703.97 359.318 2701.46 359.773C2698.96 360.229 2696.11 360.685 2692.92 361.141C2689.96 361.368 2686.99 361.596 2684.03 361.824C2681.3 362.052 2679.47 362.166 2678.56 362.166C2674.92 362.166 2672.18 361.482 2670.36 360.115C2668.31 358.52 2665.92 356.811 2663.18 354.988C2663.64 353.621 2663.87 352.71 2663.87 352.254C2663.87 349.975 2663.18 348.152 2661.81 346.785C2660.45 345.19 2659.76 343.823 2659.76 342.684C2659.76 340.177 2660.79 338.24 2662.84 336.873C2664.66 335.506 2665.69 333.341 2665.92 330.379C2671.16 328.1 2676.51 326.391 2681.98 325.252C2687.45 324.113 2693.03 323.201 2698.73 322.518C2704.43 321.834 2710.01 321.036 2715.48 320.125C2721.17 319.214 2726.76 317.732 2732.22 315.682C2733.82 315.91 2735.3 316.137 2736.67 316.365C2738.26 316.365 2739.86 316.365 2741.45 316.365C2748.29 316.365 2755.01 315.682 2761.62 314.314C2768.46 312.719 2775.4 311.922 2782.47 311.922C2784.29 311.922 2786.11 312.036 2787.94 312.264C2789.76 312.492 2791.58 312.833 2793.41 313.289C2802.52 311.922 2811.52 310.441 2820.41 308.846C2829.52 307.251 2838.87 305.883 2848.44 304.744C2852.99 304.288 2857.44 303.947 2861.77 303.719C2866.32 303.263 2870.88 302.693 2875.44 302.01C2877.03 301.782 2878.17 301.44 2878.86 300.984C2879.77 300.301 2880.22 299.048 2880.22 297.225C2882.27 298.136 2884.55 298.592 2887.06 298.592C2890.93 298.592 2894.69 297.908 2898.34 296.541C2901.98 295.174 2905.74 294.49 2909.62 294.49C2910.53 294.49 2911.33 294.604 2912.01 294.832C2912.69 294.832 2913.38 294.832 2914.06 294.832C2915.66 294.832 2916.45 294.148 2916.45 292.781C2916.68 291.186 2917.82 290.161 2919.87 289.705C2921.47 289.249 2923.74 288.908 2926.71 288.68C2929.67 288.452 2932.75 288.224 2935.94 287.996C2939.35 287.54 2942.43 287.085 2945.16 286.629C2948.13 285.945 2950.29 285.034 2951.66 283.895L2954.05 280.135C2958.15 280.363 2961.11 282.186 2962.94 285.604C2964.99 288.794 2966.13 292.326 2966.36 296.199C2967.27 297.111 2968.52 297.566 2970.12 297.566C2971.94 297.339 2973.53 297.225 2974.9 297.225H2975.93Z" fill="#FF9500"/>
<path d="M150.5 957.5C135.1 957.5 121.2 954.5 108.8 948.5C96.4 942.5 85.7 934.4 76.7 924.2C67.7 913.8 60.7 902.2 55.7 889.4C50.9 876.4 48.5 863.1 48.5 849.5C48.5 835.3 51.1 821.8 56.3 809C61.5 796 68.7 784.5 77.9 774.5C87.1 764.3 97.9 756.3 110.3 750.5C122.9 744.5 136.5 741.5 151.1 741.5C166.3 741.5 180.1 744.6 192.5 750.8C205.1 757 215.8 765.3 224.6 775.7C233.6 786.1 240.5 797.7 245.3 810.5C250.3 823.3 252.8 836.4 252.8 849.8C252.8 864 250.2 877.6 245 890.6C240 903.4 232.9 914.9 223.7 925.1C214.5 935.1 203.6 943 191 948.8C178.6 954.6 165.1 957.5 150.5 957.5ZM82.7 849.5C82.7 859.5 84.3 869.2 87.5 878.6C90.7 888 95.2 896.4 101 903.8C107 911 114.2 916.7 122.6 920.9C131 925.1 140.4 927.2 150.8 927.2C161.6 927.2 171.2 925 179.6 920.6C188 916.2 195 910.3 200.6 902.9C206.4 895.3 210.8 886.9 213.8 877.7C216.8 868.3 218.3 858.9 218.3 849.5C218.3 839.5 216.7 829.9 213.5 820.7C210.5 811.3 206 803 200 795.8C194 788.4 186.8 782.6 178.4 778.4C170.2 774.2 161 772.1 150.8 772.1C140 772.1 130.4 774.3 122 778.7C113.6 783.1 106.5 789 100.7 796.4C94.9 803.8 90.4 812.1 87.2 821.3C84.2 830.5 82.7 839.9 82.7 849.5ZM370.121 827.6C357.321 827.8 345.921 830.7 335.921 836.3C326.121 841.9 319.121 849.8 314.921 860V956H281.921V799.1H312.521V834.2C317.921 823.4 325.021 814.8 333.821 808.4C342.621 801.8 351.921 798.2 361.721 797.6C363.721 797.6 365.321 797.6 366.521 797.6C367.921 797.6 369.121 797.7 370.121 797.9V827.6ZM453.884 957.5C443.284 957.5 433.584 955.4 424.784 951.2C415.984 946.8 408.384 940.9 401.984 933.5C395.784 926.1 390.884 917.6 387.284 908C383.884 898.4 382.184 888.3 382.184 877.7C382.184 866.5 383.984 856 387.584 846.2C391.184 836.4 396.184 827.8 402.584 820.4C409.184 812.8 416.884 806.9 425.684 802.7C434.484 798.5 444.284 796.4 455.084 796.4C467.684 796.4 478.684 799.4 488.084 805.4C497.684 811.4 505.584 819.2 511.784 828.8V799.1H540.884V951.5C540.884 966.7 537.184 979.6 529.784 990.2C522.584 1000.8 512.684 1008.9 500.084 1014.5C487.484 1020.1 473.284 1022.9 457.484 1022.9C440.084 1022.9 425.684 1019.9 414.284 1013.9C402.884 1007.9 393.184 999.7 385.184 989.3L403.784 971.9C409.784 980.3 417.484 986.7 426.884 991.1C436.484 995.5 446.684 997.7 457.484 997.7C466.484 997.7 474.784 996 482.384 992.6C490.184 989.4 496.384 984.3 500.984 977.3C505.584 970.5 507.884 961.9 507.884 951.5V927.5C502.284 936.9 494.584 944.3 484.784 949.7C474.984 954.9 464.684 957.5 453.884 957.5ZM464.684 930.8C469.684 930.8 474.484 930 479.084 928.4C483.684 926.6 487.884 924.3 491.684 921.5C495.684 918.5 499.084 915.2 501.884 911.6C504.684 907.8 506.684 903.8 507.884 899.6V858.5C505.284 851.7 501.584 845.8 496.784 840.8C491.984 835.6 486.584 831.6 480.584 828.8C474.584 826 468.484 824.6 462.284 824.6C455.084 824.6 448.584 826.2 442.784 829.4C437.184 832.4 432.384 836.5 428.384 841.7C424.384 846.7 421.284 852.4 419.084 858.8C416.884 865.2 415.784 871.8 415.784 878.6C415.784 885.8 416.984 892.5 419.384 898.7C421.984 904.9 425.484 910.5 429.884 915.5C434.284 920.3 439.484 924.1 445.484 926.9C451.484 929.5 457.884 930.8 464.684 930.8ZM569.056 910.1C569.056 900.1 571.856 891.4 577.456 884C583.256 876.4 591.156 870.6 601.156 866.6C611.156 862.4 622.756 860.3 635.956 860.3C642.956 860.3 650.056 860.8 657.256 861.8C664.656 862.8 671.156 864.4 676.756 866.6V856.7C676.756 845.7 673.456 837.1 666.856 830.9C660.256 824.7 650.756 821.6 638.356 821.6C629.556 821.6 621.256 823.2 613.456 826.4C605.656 829.4 597.356 833.7 588.556 839.3L577.456 817.1C587.856 810.1 598.256 804.9 608.656 801.5C619.256 798.1 630.356 796.4 641.956 796.4C662.956 796.4 679.456 802 691.456 813.2C703.656 824.2 709.756 839.9 709.756 860.3V918.8C709.756 922.6 710.356 925.3 711.556 926.9C712.956 928.5 715.256 929.4 718.456 929.6V956C715.456 956.6 712.756 957 710.356 957.2C707.956 957.4 705.956 957.5 704.356 957.5C697.356 957.5 692.056 955.8 688.456 952.4C684.856 949 682.756 945 682.156 940.4L681.256 931.4C674.456 940.2 665.756 947 655.156 951.8C644.556 956.6 633.856 959 623.056 959C612.656 959 603.356 956.9 595.156 952.7C586.956 948.3 580.556 942.4 575.956 935C571.356 927.6 569.056 919.3 569.056 910.1ZM668.956 919.7C671.356 917.1 673.256 914.5 674.656 911.9C676.056 909.3 676.756 907 676.756 905V887C671.156 884.8 665.256 883.2 659.056 882.2C652.856 881 646.756 880.4 640.756 880.4C628.756 880.4 618.956 882.8 611.356 887.6C603.956 892.4 600.256 899 600.256 907.4C600.256 912 601.456 916.4 603.856 920.6C606.456 924.8 610.056 928.2 614.656 930.8C619.456 933.4 625.356 934.7 632.356 934.7C639.556 934.7 646.456 933.3 653.056 930.5C659.656 927.7 664.956 924.1 668.956 919.7ZM890.492 956H857.492V868.1C857.492 853.5 855.092 842.8 850.292 836C845.692 829.2 838.792 825.8 829.592 825.8C823.192 825.8 816.792 827.4 810.392 830.6C804.192 833.8 798.592 838.2 793.592 843.8C788.592 849.2 784.992 855.5 782.792 862.7V956H749.792V799.1H779.792V830.6C783.792 823.6 788.992 817.6 795.392 812.6C801.992 807.4 809.392 803.4 817.592 800.6C825.792 797.8 834.492 796.4 843.692 796.4C853.092 796.4 860.792 798.1 866.792 801.5C872.992 804.9 877.792 809.6 881.192 815.6C884.792 821.4 887.192 828.2 888.392 836C889.792 843.6 890.492 851.7 890.492 860.3V956ZM928.796 956V799.1H961.796V956H928.796ZM928.796 773.3V737H961.796V773.3H928.796ZM990.052 935.3L1083.05 822.5H993.352V799.1H1119.05V819.8L1026.65 932.6H1119.95V956H990.052V935.3ZM1138 910.1C1138 900.1 1140.8 891.4 1146.4 884C1152.2 876.4 1160.1 870.6 1170.1 866.6C1180.1 862.4 1191.7 860.3 1204.9 860.3C1211.9 860.3 1219 860.8 1226.2 861.8C1233.6 862.8 1240.1 864.4 1245.7 866.6V856.7C1245.7 845.7 1242.4 837.1 1235.8 830.9C1229.2 824.7 1219.7 821.6 1207.3 821.6C1198.5 821.6 1190.2 823.2 1182.4 826.4C1174.6 829.4 1166.3 833.7 1157.5 839.3L1146.4 817.1C1156.8 810.1 1167.2 804.9 1177.6 801.5C1188.2 798.1 1199.3 796.4 1210.9 796.4C1231.9 796.4 1248.4 802 1260.4 813.2C1272.6 824.2 1278.7 839.9 1278.7 860.3V918.8C1278.7 922.6 1279.3 925.3 1280.5 926.9C1281.9 928.5 1284.2 929.4 1287.4 929.6V956C1284.4 956.6 1281.7 957 1279.3 957.2C1276.9 957.4 1274.9 957.5 1273.3 957.5C1266.3 957.5 1261 955.8 1257.4 952.4C1253.8 949 1251.7 945 1251.1 940.4L1250.2 931.4C1243.4 940.2 1234.7 947 1224.1 951.8C1213.5 956.6 1202.8 959 1192 959C1181.6 959 1172.3 956.9 1164.1 952.7C1155.9 948.3 1149.5 942.4 1144.9 935C1140.3 927.6 1138 919.3 1138 910.1ZM1237.9 919.7C1240.3 917.1 1242.2 914.5 1243.6 911.9C1245 909.3 1245.7 907 1245.7 905V887C1240.1 884.8 1234.2 883.2 1228 882.2C1221.8 881 1215.7 880.4 1209.7 880.4C1197.7 880.4 1187.9 882.8 1180.3 887.6C1172.9 892.4 1169.2 899 1169.2 907.4C1169.2 912 1170.4 916.4 1172.8 920.6C1175.4 924.8 1179 928.2 1183.6 930.8C1188.4 933.4 1194.3 934.7 1201.3 934.7C1208.5 934.7 1215.4 933.3 1222 930.5C1228.6 927.7 1233.9 924.1 1237.9 919.7ZM1389.84 959C1377.64 959 1366.54 956.9 1356.54 952.7C1346.74 948.3 1338.24 942.3 1331.04 934.7C1323.84 927.1 1318.24 918.4 1314.24 908.6C1310.44 898.8 1308.54 888.4 1308.54 877.4C1308.54 862.6 1311.84 849.1 1318.44 836.9C1325.24 824.7 1334.64 814.9 1346.64 807.5C1358.84 800.1 1373.24 796.4 1389.84 796.4C1405.84 796.4 1419.74 800 1431.54 807.2C1443.54 814.2 1452.34 823.6 1457.94 835.4L1425.84 845.6C1422.24 839 1417.14 833.9 1410.54 830.3C1404.14 826.5 1397.04 824.6 1389.24 824.6C1380.44 824.6 1372.44 826.9 1365.24 831.5C1358.24 835.9 1352.64 842.1 1348.44 850.1C1344.44 857.9 1342.44 867 1342.44 877.4C1342.44 887.4 1344.54 896.5 1348.74 904.7C1352.94 912.7 1358.54 919.1 1365.54 923.9C1372.74 928.5 1380.74 930.8 1389.54 930.8C1394.94 930.8 1400.14 929.9 1405.14 928.1C1410.34 926.1 1414.84 923.5 1418.64 920.3C1422.44 916.9 1425.14 913.2 1426.74 909.2L1459.14 918.8C1455.74 926.6 1450.64 933.5 1443.84 939.5C1437.24 945.5 1429.34 950.3 1420.14 953.9C1411.14 957.3 1401.04 959 1389.84 959ZM1386.24 1013.9C1380.84 1013.9 1375.04 1013.2 1368.84 1011.8C1362.64 1010.4 1356.64 1008.2 1350.84 1005.2L1359.24 987.5C1362.84 989.5 1366.24 991 1369.44 992C1372.84 993.2 1376.54 993.8 1380.54 993.8C1386.14 993.8 1390.54 992.6 1393.74 990.2C1396.94 987.8 1398.54 984.3 1398.54 979.7C1398.54 975.1 1396.94 970.9 1393.74 967.1C1390.54 963.5 1385.94 959.8 1379.94 956L1391.34 948.2C1399.54 953.4 1406.14 958.8 1411.14 964.4C1416.34 970.2 1418.94 977.3 1418.94 985.7C1418.94 994.1 1416.04 1000.9 1410.24 1006.1C1404.64 1011.3 1396.64 1013.9 1386.24 1013.9ZM1474.92 910.1C1474.92 900.1 1477.72 891.4 1483.32 884C1489.12 876.4 1497.02 870.6 1507.02 866.6C1517.02 862.4 1528.62 860.3 1541.82 860.3C1548.82 860.3 1555.92 860.8 1563.12 861.8C1570.52 862.8 1577.02 864.4 1582.62 866.6V856.7C1582.62 845.7 1579.32 837.1 1572.72 830.9C1566.12 824.7 1556.62 821.6 1544.22 821.6C1535.42 821.6 1527.12 823.2 1519.32 826.4C1511.52 829.4 1503.22 833.7 1494.42 839.3L1483.32 817.1C1493.72 810.1 1504.12 804.9 1514.52 801.5C1525.12 798.1 1536.22 796.4 1547.82 796.4C1568.82 796.4 1585.32 802 1597.32 813.2C1609.52 824.2 1615.62 839.9 1615.62 860.3V918.8C1615.62 922.6 1616.22 925.3 1617.42 926.9C1618.82 928.5 1621.12 929.4 1624.32 929.6V956C1621.32 956.6 1618.62 957 1616.22 957.2C1613.82 957.4 1611.82 957.5 1610.22 957.5C1603.22 957.5 1597.92 955.8 1594.32 952.4C1590.72 949 1588.62 945 1588.02 940.4L1587.12 931.4C1580.32 940.2 1571.62 947 1561.02 951.8C1550.42 956.6 1539.72 959 1528.92 959C1518.52 959 1509.22 956.9 1501.02 952.7C1492.82 948.3 1486.42 942.4 1481.82 935C1477.22 927.6 1474.92 919.3 1474.92 910.1ZM1574.82 919.7C1577.22 917.1 1579.12 914.5 1580.52 911.9C1581.92 909.3 1582.62 907 1582.62 905V887C1577.02 884.8 1571.12 883.2 1564.92 882.2C1558.72 881 1552.62 880.4 1546.62 880.4C1534.62 880.4 1524.82 882.8 1517.22 887.6C1509.82 892.4 1506.12 899 1506.12 907.4C1506.12 912 1507.32 916.4 1509.72 920.6C1512.32 924.8 1515.92 928.2 1520.52 930.8C1525.32 933.4 1531.22 934.7 1538.22 934.7C1545.42 934.7 1552.32 933.3 1558.92 930.5C1565.52 927.7 1570.82 924.1 1574.82 919.7ZM1566.42 771.5C1560.42 771.5 1555.22 770.4 1550.82 768.2C1546.62 766 1542.72 763.9 1539.12 761.9C1535.72 759.7 1531.82 758.6 1527.42 758.6C1523.02 758.6 1519.72 759.7 1517.52 761.9C1515.52 764.1 1514.22 766.4 1513.62 768.8C1513.02 771.2 1512.72 772.6 1512.72 773H1494.12C1494.12 771.4 1494.62 768.8 1495.62 765.2C1496.62 761.4 1498.32 757.5 1500.72 753.5C1503.32 749.3 1506.62 745.8 1510.62 743C1514.82 740 1520.02 738.5 1526.22 738.5C1532.22 738.5 1537.22 739.6 1541.22 741.8C1545.22 744 1549.02 746.2 1552.62 748.4C1556.42 750.6 1560.72 751.7 1565.52 751.7C1570.52 751.7 1574.12 750.6 1576.32 748.4C1578.52 746 1579.92 743.6 1580.52 741.2C1581.32 738.8 1581.72 737.4 1581.72 737H1600.62C1600.62 738.4 1600.02 740.9 1598.82 744.5C1597.82 748.1 1596.02 752 1593.42 756.2C1590.82 760.4 1587.32 764 1582.92 767C1578.52 770 1573.02 771.5 1566.42 771.5ZM1726.15 959C1713.75 959 1702.65 956.9 1692.85 952.7C1683.05 948.3 1674.55 942.3 1667.35 934.7C1660.35 927.1 1654.95 918.5 1651.15 908.9C1647.35 899.1 1645.45 888.7 1645.45 877.7C1645.45 866.7 1647.35 856.3 1651.15 846.5C1654.95 836.7 1660.35 828.1 1667.35 820.7C1674.55 813.1 1683.05 807.2 1692.85 803C1702.85 798.6 1713.95 796.4 1726.15 796.4C1738.35 796.4 1749.35 798.6 1759.15 803C1769.15 807.2 1777.65 813.1 1784.65 820.7C1791.85 828.1 1797.35 836.7 1801.15 846.5C1804.95 856.3 1806.85 866.7 1806.85 877.7C1806.85 888.7 1804.95 899.1 1801.15 908.9C1797.35 918.5 1791.85 927.1 1784.65 934.7C1777.65 942.3 1769.15 948.3 1759.15 952.7C1749.35 956.9 1738.35 959 1726.15 959ZM1679.35 878C1679.35 888 1681.45 897 1685.65 905C1689.85 913 1695.45 919.3 1702.45 923.9C1709.45 928.5 1717.35 930.8 1726.15 930.8C1734.75 930.8 1742.55 928.5 1749.55 923.9C1756.75 919.1 1762.45 912.7 1766.65 904.7C1770.85 896.5 1772.95 887.5 1772.95 877.7C1772.95 867.7 1770.85 858.7 1766.65 850.7C1762.45 842.7 1756.75 836.4 1749.55 831.8C1742.55 827 1734.75 824.6 1726.15 824.6C1717.35 824.6 1709.45 827 1702.45 831.8C1695.45 836.6 1689.85 843 1685.65 851C1681.45 858.8 1679.35 867.8 1679.35 878ZM1900.34 877.7C1900.34 862.7 1903.34 849.1 1909.34 836.9C1915.54 824.5 1923.94 814.7 1934.54 807.5C1945.14 800.1 1957.34 796.4 1971.14 796.4C1983.14 796.4 1993.94 799.5 2003.54 805.7C2013.34 811.9 2020.94 819.6 2026.34 828.8V737H2059.34V918.8C2059.34 922.6 2060.04 925.3 2061.44 926.9C2062.84 928.5 2065.14 929.4 2068.34 929.6V956C2062.14 957 2057.34 957.5 2053.94 957.5C2047.74 957.5 2042.44 955.7 2038.04 952.1C2033.84 948.5 2031.64 944.2 2031.44 939.2L2031.14 927.5C2025.14 937.5 2017.04 945.3 2006.84 950.9C1996.64 956.3 1986.04 959 1975.04 959C1964.24 959 1954.24 956.9 1945.04 952.7C1936.04 948.5 1928.14 942.6 1921.34 935C1914.74 927.4 1909.54 918.7 1905.74 908.9C1902.14 899.1 1900.34 888.7 1900.34 877.7ZM2026.34 899.6V858.5C2024.14 852.1 2020.54 846.4 2015.54 841.4C2010.74 836.2 2005.24 832.1 1999.04 829.1C1993.04 826.1 1987.04 824.6 1981.04 824.6C1974.04 824.6 1967.64 826.1 1961.84 829.1C1956.24 832.1 1951.34 836.1 1947.14 841.1C1943.14 846.1 1940.04 851.8 1937.84 858.2C1935.64 864.6 1934.54 871.3 1934.54 878.3C1934.54 885.5 1935.74 892.3 1938.14 898.7C1940.54 904.9 1943.94 910.5 1948.34 915.5C1952.94 920.3 1958.14 924.1 1963.94 926.9C1969.94 929.5 1976.44 930.8 1983.44 930.8C1987.84 930.8 1992.24 930 1996.64 928.4C2001.24 926.8 2005.54 924.6 2009.54 921.8C2013.74 919 2017.24 915.7 2020.04 911.9C2023.04 908.1 2025.14 904 2026.34 899.6ZM2172.36 959C2160.16 959 2149.06 956.9 2139.06 952.7C2129.26 948.3 2120.76 942.4 2113.56 935C2106.36 927.4 2100.76 918.8 2096.76 909.2C2092.96 899.4 2091.06 889 2091.06 878C2091.06 863.2 2094.46 849.7 2101.26 837.5C2108.06 825.1 2117.56 815.2 2129.76 807.8C2141.96 800.2 2156.26 796.4 2172.66 796.4C2189.06 796.4 2203.16 800.2 2214.96 807.8C2226.96 815.2 2236.26 825 2242.86 837.2C2249.46 849.4 2252.76 862.5 2252.76 876.5C2252.76 878.9 2252.66 881.2 2252.46 883.4C2252.26 885.4 2252.06 887.1 2251.86 888.5H2126.16C2126.76 897.7 2129.26 905.8 2133.66 912.8C2138.26 919.6 2144.06 925 2151.06 929C2158.06 932.8 2165.56 934.7 2173.56 934.7C2182.36 934.7 2190.66 932.5 2198.46 928.1C2206.46 923.7 2211.86 917.9 2214.66 910.7L2242.86 918.8C2239.46 926.4 2234.26 933.3 2227.26 939.5C2220.46 945.5 2212.36 950.3 2202.96 953.9C2193.56 957.3 2183.36 959 2172.36 959ZM2125.26 866.6H2220.06C2219.46 857.6 2216.86 849.7 2212.26 842.9C2207.86 835.9 2202.16 830.5 2195.16 826.7C2188.36 822.7 2180.76 820.7 2172.36 820.7C2164.16 820.7 2156.56 822.7 2149.56 826.7C2142.76 830.5 2137.16 835.9 2132.76 842.9C2128.36 849.7 2125.86 857.6 2125.26 866.6ZM2504.1 926.3V956H2358V743H2501.4V772.7H2391.6V833.3H2486.7V861.2H2391.6V926.3H2504.1ZM2574.84 956L2515.14 799.1H2549.34L2594.04 925.4L2638.74 799.1H2670.54L2610.84 956H2574.84ZM2760.05 959C2747.85 959 2736.75 956.9 2726.75 952.7C2716.95 948.3 2708.45 942.4 2701.25 935C2694.05 927.4 2688.45 918.8 2684.45 909.2C2680.65 899.4 2678.75 889 2678.75 878C2678.75 863.2 2682.15 849.7 2688.95 837.5C2695.75 825.1 2705.25 815.2 2717.45 807.8C2729.65 800.2 2743.95 796.4 2760.35 796.4C2776.75 796.4 2790.85 800.2 2802.65 807.8C2814.65 815.2 2823.95 825 2830.55 837.2C2837.15 849.4 2840.45 862.5 2840.45 876.5C2840.45 878.9 2840.35 881.2 2840.15 883.4C2839.95 885.4 2839.75 887.1 2839.55 888.5H2713.85C2714.45 897.7 2716.95 905.8 2721.35 912.8C2725.95 919.6 2731.75 925 2738.75 929C2745.75 932.8 2753.25 934.7 2761.25 934.7C2770.05 934.7 2778.35 932.5 2786.15 928.1C2794.15 923.7 2799.55 917.9 2802.35 910.7L2830.55 918.8C2827.15 926.4 2821.95 933.3 2814.95 939.5C2808.15 945.5 2800.05 950.3 2790.65 953.9C2781.25 957.3 2771.05 959 2760.05 959ZM2712.95 866.6H2807.75C2807.15 857.6 2804.55 849.7 2799.95 842.9C2795.55 835.9 2789.85 830.5 2782.85 826.7C2776.05 822.7 2768.45 820.7 2760.05 820.7C2751.85 820.7 2744.25 822.7 2737.25 826.7C2730.45 830.5 2724.85 835.9 2720.45 842.9C2716.05 849.7 2713.55 857.6 2712.95 866.6ZM3008.07 956H2975.07V868.1C2975.07 853.5 2972.67 842.8 2967.87 836C2963.27 829.2 2956.37 825.8 2947.17 825.8C2940.77 825.8 2934.37 827.4 2927.97 830.6C2921.77 833.8 2916.17 838.2 2911.17 843.8C2906.17 849.2 2902.57 855.5 2900.37 862.7V956H2867.37V799.1H2897.37V830.6C2901.37 823.6 2906.57 817.6 2912.97 812.6C2919.57 807.4 2926.97 803.4 2935.17 800.6C2943.37 797.8 2952.07 796.4 2961.27 796.4C2970.67 796.4 2978.37 798.1 2984.37 801.5C2990.57 804.9 2995.37 809.6 2998.77 815.6C3002.37 821.4 3004.77 828.2 3005.97 836C3007.37 843.6 3008.07 851.7 3008.07 860.3V956ZM3132.5 947.9C3129.7 949.3 3126.2 950.8 3122 952.4C3117.8 954 3113 955.4 3107.6 956.6C3102.4 957.8 3097 958.4 3091.4 958.4C3084.6 958.4 3078.3 957.2 3072.5 954.8C3066.7 952.4 3062 948.6 3058.4 943.4C3055 938 3053.3 931.1 3053.3 922.7V824.6H3032.6V799.1H3053.3V747.5H3086.3V799.1H3120.5V824.6H3086.3V912.2C3086.7 917.6 3088.4 921.6 3091.4 924.2C3094.6 926.8 3098.5 928.1 3103.1 928.1C3107.7 928.1 3112.1 927.3 3116.3 925.7C3120.5 924.1 3123.6 922.8 3125.6 921.8L3132.5 947.9ZM3223.81 959C3211.41 959 3200.31 956.9 3190.51 952.7C3180.71 948.3 3172.21 942.3 3165.01 934.7C3158.01 927.1 3152.61 918.5 3148.81 908.9C3145.01 899.1 3143.11 888.7 3143.11 877.7C3143.11 866.7 3145.01 856.3 3148.81 846.5C3152.61 836.7 3158.01 828.1 3165.01 820.7C3172.21 813.1 3180.71 807.2 3190.51 803C3200.51 798.6 3211.61 796.4 3223.81 796.4C3236.01 796.4 3247.01 798.6 3256.81 803C3266.81 807.2 3275.31 813.1 3282.31 820.7C3289.51 828.1 3295.01 836.7 3298.81 846.5C3302.61 856.3 3304.51 866.7 3304.51 877.7C3304.51 888.7 3302.61 899.1 3298.81 908.9C3295.01 918.5 3289.51 927.1 3282.31 934.7C3275.31 942.3 3266.81 948.3 3256.81 952.7C3247.01 956.9 3236.01 959 3223.81 959ZM3177.01 878C3177.01 888 3179.11 897 3183.31 905C3187.51 913 3193.11 919.3 3200.11 923.9C3207.11 928.5 3215.01 930.8 3223.81 930.8C3232.41 930.8 3240.21 928.5 3247.21 923.9C3254.41 919.1 3260.11 912.7 3264.31 904.7C3268.51 896.5 3270.61 887.5 3270.61 877.7C3270.61 867.7 3268.51 858.7 3264.31 850.7C3260.11 842.7 3254.41 836.4 3247.21 831.8C3240.21 827 3232.41 824.6 3223.81 824.6C3215.01 824.6 3207.11 827 3200.11 831.8C3193.11 836.6 3187.51 843 3183.31 851C3179.11 858.8 3177.01 867.8 3177.01 878ZM3389.58 959C3376.38 959 3363.88 956.9 3352.08 952.7C3340.28 948.3 3330.18 941.8 3321.78 933.2L3334.08 911C3343.08 919 3352.08 924.8 3361.08 928.4C3370.28 932 3379.38 933.8 3388.38 933.8C3397.58 933.8 3405.08 932.1 3410.88 928.7C3416.68 925.1 3419.58 919.9 3419.58 913.1C3419.58 908.1 3418.08 904.4 3415.08 902C3412.08 899.6 3407.68 897.5 3401.88 895.7C3396.28 893.9 3389.48 891.9 3381.48 889.7C3370.28 886.3 3360.88 882.8 3353.28 879.2C3345.68 875.4 3339.98 870.8 3336.18 865.4C3332.38 860 3330.48 853.1 3330.48 844.7C3330.48 834.5 3333.08 825.8 3338.28 818.6C3343.48 811.4 3350.68 805.9 3359.88 802.1C3369.28 798.3 3380.08 796.4 3392.28 796.4C3403.68 796.4 3414.18 798.2 3423.78 801.8C3433.58 805.2 3442.18 810.6 3449.58 818L3435.48 839.9C3428.48 833.5 3421.28 828.8 3413.88 825.8C3406.68 822.8 3398.88 821.3 3390.48 821.3C3385.68 821.3 3381.08 821.9 3376.68 823.1C3372.28 824.1 3368.58 826.1 3365.58 829.1C3362.78 831.9 3361.38 835.9 3361.38 841.1C3361.38 845.3 3362.58 848.7 3364.98 851.3C3367.38 853.9 3370.98 856.1 3375.78 857.9C3380.58 859.7 3386.48 861.7 3393.48 863.9C3405.68 867.5 3416.08 871.1 3424.68 874.7C3433.28 878.1 3439.88 882.6 3444.48 888.2C3449.28 893.6 3451.68 901.1 3451.68 910.7C3451.68 925.9 3445.98 937.8 3434.58 946.4C3423.38 954.8 3408.38 959 3389.58 959Z" fill="white"/>
</g>
<defs>
<clipPath id="clip0_34_6">
<rect width="3783" height="1026" fill="white"/>
</clipPath>
</defs>
</svg>
