<svg width="681" height="58" viewBox="0 0 681 58" fill="none" xmlns="http://www.w3.org/2000/svg">
<path d="M20.5 44.3C17.42 44.3 14.64 43.7 12.16 42.5C9.68 41.3 7.54 39.68 5.74 37.64C3.94 35.56 2.54 33.24 1.54 30.68C0.58 28.08 0.1 25.42 0.1 22.7C0.1 19.86 0.62 17.16 1.66 14.6C2.7 12 4.14 9.7 5.98 7.7C7.82 5.66 9.98 4.06 12.46 2.9C14.98 1.7 17.7 1.1 20.62 1.1C23.66 1.1 26.42 1.72 28.9 2.96C31.42 4.2 33.56 5.86 35.32 7.94C37.12 10.02 38.5 12.34 39.46 14.9C40.46 17.46 40.96 20.08 40.96 22.76C40.96 25.6 40.44 28.32 39.4 30.92C38.4 33.48 36.98 35.78 35.14 37.82C33.3 39.82 31.12 41.4 28.6 42.56C26.12 43.72 23.42 44.3 20.5 44.3ZM6.94 22.7C6.94 24.7 7.26 26.64 7.9 28.52C8.54 30.4 9.44 32.08 10.6 33.56C11.8 35 13.24 36.14 14.92 36.98C16.6 37.82 18.48 38.24 20.56 38.24C22.72 38.24 24.64 37.8 26.32 36.92C28 36.04 29.4 34.86 30.52 33.38C31.68 31.86 32.56 30.18 33.16 28.34C33.76 26.46 34.06 24.58 34.06 22.7C34.06 20.7 33.74 18.78 33.1 16.94C32.5 15.06 31.6 13.4 30.4 11.96C29.2 10.48 27.76 9.32 26.08 8.48C24.44 7.64 22.6 7.22 20.56 7.22C18.4 7.22 16.48 7.66 14.8 8.54C13.12 9.42 11.7 10.6 10.54 12.08C9.38 13.56 8.48 15.22 7.84 17.06C7.24 18.9 6.94 20.78 6.94 22.7ZM64.4242 18.32C61.8642 18.36 59.5842 18.94 57.5842 20.06C55.6242 21.18 54.2242 22.76 53.3842 24.8V44H46.7842V12.62H52.9042V19.64C53.9842 17.48 55.4042 15.76 57.1642 14.48C58.9242 13.16 60.7842 12.44 62.7442 12.32C63.1442 12.32 63.4642 12.32 63.7042 12.32C63.9842 12.32 64.2242 12.34 64.4242 12.38V18.32ZM81.1769 44.3C79.0569 44.3 77.1169 43.88 75.3569 43.04C73.5969 42.16 72.0769 40.98 70.7969 39.5C69.5569 38.02 68.5769 36.32 67.8569 34.4C67.1769 32.48 66.8369 30.46 66.8369 28.34C66.8369 26.1 67.1969 24 67.9169 22.04C68.6369 20.08 69.6369 18.36 70.9169 16.88C72.2369 15.36 73.7769 14.18 75.5369 13.34C77.2969 12.5 79.2569 12.08 81.4169 12.08C83.9369 12.08 86.1369 12.68 88.0169 13.88C89.9369 15.08 91.5169 16.64 92.7569 18.56V12.62H98.5769V43.1C98.5769 46.14 97.8369 48.72 96.3569 50.84C94.9169 52.96 92.9369 54.58 90.4169 55.7C87.8969 56.82 85.0569 57.38 81.8969 57.38C78.4169 57.38 75.5369 56.78 73.2569 55.58C70.9769 54.38 69.0369 52.74 67.4369 50.66L71.1569 47.18C72.3569 48.86 73.8969 50.14 75.7769 51.02C77.6969 51.9 79.7369 52.34 81.8969 52.34C83.6969 52.34 85.3569 52 86.8769 51.32C88.4369 50.68 89.6769 49.66 90.5969 48.26C91.5169 46.9 91.9769 45.18 91.9769 43.1V38.3C90.8569 40.18 89.3169 41.66 87.3569 42.74C85.3969 43.78 83.3369 44.3 81.1769 44.3ZM83.3369 38.96C84.3369 38.96 85.2969 38.8 86.2169 38.48C87.1369 38.12 87.9769 37.66 88.7369 37.1C89.5369 36.5 90.2169 35.84 90.7769 35.12C91.3369 34.36 91.7369 33.56 91.9769 32.72V24.5C91.4569 23.14 90.7169 21.96 89.7569 20.96C88.7969 19.92 87.7169 19.12 86.5169 18.56C85.3169 18 84.0969 17.72 82.8569 17.72C81.4169 17.72 80.1169 18.04 78.9569 18.68C77.8369 19.28 76.8769 20.1 76.0769 21.14C75.2769 22.14 74.6569 23.28 74.2169 24.56C73.7769 25.84 73.5569 27.16 73.5569 28.52C73.5569 29.96 73.7969 31.3 74.2769 32.54C74.7969 33.78 75.4969 34.9 76.3769 35.9C77.2569 36.86 78.2969 37.62 79.4969 38.18C80.6969 38.7 81.9769 38.96 83.3369 38.96ZM104.211 34.82C104.211 32.82 104.771 31.08 105.891 29.6C107.051 28.08 108.631 26.92 110.631 26.12C112.631 25.28 114.951 24.86 117.591 24.86C118.991 24.86 120.411 24.96 121.851 25.16C123.331 25.36 124.631 25.68 125.751 26.12V24.14C125.751 21.94 125.091 20.22 123.771 18.98C122.451 17.74 120.551 17.12 118.071 17.12C116.311 17.12 114.651 17.44 113.091 18.08C111.531 18.68 109.871 19.54 108.111 20.66L105.891 16.22C107.971 14.82 110.051 13.78 112.131 13.1C114.251 12.42 116.471 12.08 118.791 12.08C122.991 12.08 126.291 13.2 128.691 15.44C131.131 17.64 132.351 20.78 132.351 24.86V36.56C132.351 37.32 132.471 37.86 132.711 38.18C132.991 38.5 133.451 38.68 134.091 38.72V44C133.491 44.12 132.951 44.2 132.471 44.24C131.991 44.28 131.591 44.3 131.271 44.3C129.871 44.3 128.811 43.96 128.091 43.28C127.371 42.6 126.951 41.8 126.831 40.88L126.651 39.08C125.291 40.84 123.551 42.2 121.431 43.16C119.311 44.12 117.171 44.6 115.011 44.6C112.931 44.6 111.071 44.18 109.431 43.34C107.791 42.46 106.511 41.28 105.591 39.8C104.671 38.32 104.211 36.66 104.211 34.82ZM124.191 36.74C124.671 36.22 125.051 35.7 125.331 35.18C125.611 34.66 125.751 34.2 125.751 33.8V30.2C124.631 29.76 123.451 29.44 122.211 29.24C120.971 29 119.751 28.88 118.551 28.88C116.151 28.88 114.191 29.36 112.671 30.32C111.191 31.28 110.451 32.6 110.451 34.28C110.451 35.2 110.691 36.08 111.171 36.92C111.691 37.76 112.411 38.44 113.331 38.96C114.291 39.48 115.471 39.74 116.871 39.74C118.311 39.74 119.691 39.46 121.011 38.9C122.331 38.34 123.391 37.62 124.191 36.74ZM168.498 44H161.898V26.42C161.898 23.5 161.418 21.36 160.458 20C159.538 18.64 158.158 17.96 156.318 17.96C155.038 17.96 153.758 18.28 152.478 18.92C151.238 19.56 150.118 20.44 149.118 21.56C148.118 22.64 147.398 23.9 146.958 25.34V44H140.358V12.62H146.358V18.92C147.158 17.52 148.198 16.32 149.478 15.32C150.798 14.28 152.278 13.48 153.918 12.92C155.558 12.36 157.298 12.08 159.138 12.08C161.018 12.08 162.558 12.42 163.758 13.1C164.998 13.78 165.958 14.72 166.638 15.92C167.358 17.08 167.838 18.44 168.078 20C168.358 21.52 168.498 23.14 168.498 24.86V44ZM176.159 44V12.62H182.759V44H176.159ZM176.159 7.46V0.199999H182.759V7.46H176.159ZM188.41 39.86L207.01 17.3H189.07V12.62H214.21V16.76L195.73 39.32H214.39V44H188.41V39.86ZM218 34.82C218 32.82 218.56 31.08 219.68 29.6C220.84 28.08 222.42 26.92 224.42 26.12C226.42 25.28 228.74 24.86 231.38 24.86C232.78 24.86 234.2 24.96 235.64 25.16C237.12 25.36 238.42 25.68 239.54 26.12V24.14C239.54 21.94 238.88 20.22 237.56 18.98C236.24 17.74 234.34 17.12 231.86 17.12C230.1 17.12 228.44 17.44 226.88 18.08C225.32 18.68 223.66 19.54 221.9 20.66L219.68 16.22C221.76 14.82 223.84 13.78 225.92 13.1C228.04 12.42 230.26 12.08 232.58 12.08C236.78 12.08 240.08 13.2 242.48 15.44C244.92 17.64 246.14 20.78 246.14 24.86V36.56C246.14 37.32 246.26 37.86 246.5 38.18C246.78 38.5 247.24 38.68 247.88 38.72V44C247.28 44.12 246.74 44.2 246.26 44.24C245.78 44.28 245.38 44.3 245.06 44.3C243.66 44.3 242.6 43.96 241.88 43.28C241.16 42.6 240.74 41.8 240.62 40.88L240.44 39.08C239.08 40.84 237.34 42.2 235.22 43.16C233.1 44.12 230.96 44.6 228.8 44.6C226.72 44.6 224.86 44.18 223.22 43.34C221.58 42.46 220.3 41.28 219.38 39.8C218.46 38.32 218 36.66 218 34.82ZM237.98 36.74C238.46 36.22 238.84 35.7 239.12 35.18C239.4 34.66 239.54 34.2 239.54 33.8V30.2C238.42 29.76 237.24 29.44 236 29.24C234.76 29 233.54 28.88 232.34 28.88C229.94 28.88 227.98 29.36 226.46 30.32C224.98 31.28 224.24 32.6 224.24 34.28C224.24 35.2 224.48 36.08 224.96 36.92C225.48 37.76 226.2 38.44 227.12 38.96C228.08 39.48 229.26 39.74 230.66 39.74C232.1 39.74 233.48 39.46 234.8 38.9C236.12 38.34 237.18 37.62 237.98 36.74ZM268.368 44.6C265.928 44.6 263.708 44.18 261.708 43.34C259.748 42.46 258.048 41.26 256.608 39.74C255.168 38.22 254.048 36.48 253.248 34.52C252.488 32.56 252.108 30.48 252.108 28.28C252.108 25.32 252.768 22.62 254.088 20.18C255.448 17.74 257.328 15.78 259.728 14.3C262.168 12.82 265.048 12.08 268.368 12.08C271.568 12.08 274.348 12.8 276.708 14.24C279.108 15.64 280.868 17.52 281.988 19.88L275.568 21.92C274.848 20.6 273.828 19.58 272.508 18.86C271.228 18.1 269.808 17.72 268.248 17.72C266.488 17.72 264.888 18.18 263.448 19.1C262.048 19.98 260.928 21.22 260.088 22.82C259.288 24.38 258.888 26.2 258.888 28.28C258.888 30.28 259.308 32.1 260.148 33.74C260.988 35.34 262.108 36.62 263.508 37.58C264.948 38.5 266.548 38.96 268.308 38.96C269.388 38.96 270.428 38.78 271.428 38.42C272.468 38.02 273.368 37.5 274.128 36.86C274.888 36.18 275.428 35.44 275.748 34.64L282.228 36.56C281.548 38.12 280.528 39.5 279.168 40.7C277.848 41.9 276.268 42.86 274.428 43.58C272.628 44.26 270.608 44.6 268.368 44.6ZM267.648 55.58C266.568 55.58 265.408 55.44 264.168 55.16C262.928 54.88 261.728 54.44 260.568 53.84L262.248 50.3C262.968 50.7 263.648 51 264.288 51.2C264.968 51.44 265.708 51.56 266.508 51.56C267.628 51.56 268.508 51.32 269.148 50.84C269.788 50.36 270.108 49.66 270.108 48.74C270.108 47.82 269.788 46.98 269.148 46.22C268.508 45.5 267.588 44.76 266.388 44L268.668 42.44C270.308 43.48 271.628 44.56 272.628 45.68C273.668 46.84 274.188 48.26 274.188 49.94C274.188 51.62 273.608 52.98 272.448 54.02C271.328 55.06 269.728 55.58 267.648 55.58ZM285.383 34.82C285.383 32.82 285.943 31.08 287.063 29.6C288.223 28.08 289.803 26.92 291.803 26.12C293.803 25.28 296.123 24.86 298.763 24.86C300.163 24.86 301.583 24.96 303.023 25.16C304.503 25.36 305.803 25.68 306.923 26.12V24.14C306.923 21.94 306.263 20.22 304.943 18.98C303.623 17.74 301.723 17.12 299.243 17.12C297.483 17.12 295.823 17.44 294.263 18.08C292.703 18.68 291.043 19.54 289.283 20.66L287.063 16.22C289.143 14.82 291.223 13.78 293.303 13.1C295.423 12.42 297.643 12.08 299.963 12.08C304.163 12.08 307.463 13.2 309.863 15.44C312.303 17.64 313.523 20.78 313.523 24.86V36.56C313.523 37.32 313.643 37.86 313.883 38.18C314.163 38.5 314.623 38.68 315.263 38.72V44C314.663 44.12 314.123 44.2 313.643 44.24C313.163 44.28 312.763 44.3 312.443 44.3C311.043 44.3 309.983 43.96 309.263 43.28C308.543 42.6 308.123 41.8 308.003 40.88L307.823 39.08C306.463 40.84 304.723 42.2 302.603 43.16C300.483 44.12 298.343 44.6 296.183 44.6C294.103 44.6 292.243 44.18 290.603 43.34C288.963 42.46 287.683 41.28 286.763 39.8C285.843 38.32 285.383 36.66 285.383 34.82ZM305.363 36.74C305.843 36.22 306.223 35.7 306.503 35.18C306.783 34.66 306.923 34.2 306.923 33.8V30.2C305.803 29.76 304.623 29.44 303.383 29.24C302.143 29 300.923 28.88 299.723 28.88C297.323 28.88 295.363 29.36 293.843 30.32C292.363 31.28 291.623 32.6 291.623 34.28C291.623 35.2 291.863 36.08 292.343 36.92C292.863 37.76 293.583 38.44 294.503 38.96C295.463 39.48 296.643 39.74 298.043 39.74C299.483 39.74 300.863 39.46 302.183 38.9C303.503 38.34 304.563 37.62 305.363 36.74ZM303.683 7.1C302.483 7.1 301.443 6.88 300.563 6.44C299.723 6 298.943 5.58 298.223 5.18C297.543 4.74 296.763 4.52 295.883 4.52C295.003 4.52 294.343 4.74 293.903 5.18C293.503 5.62 293.243 6.08 293.123 6.56C293.003 7.04 292.943 7.32 292.943 7.4H289.223C289.223 7.08 289.323 6.56 289.523 5.84C289.723 5.08 290.063 4.3 290.543 3.5C291.063 2.66 291.723 1.96 292.523 1.4C293.363 0.799998 294.403 0.499999 295.643 0.499999C296.843 0.499999 297.843 0.719998 298.643 1.16C299.443 1.6 300.203 2.04 300.923 2.48C301.683 2.92 302.543 3.14 303.503 3.14C304.503 3.14 305.223 2.92 305.663 2.48C306.103 2 306.383 1.52 306.503 1.04C306.663 0.559998 306.743 0.279998 306.743 0.199999H310.523C310.523 0.479998 310.403 0.979997 310.163 1.7C309.963 2.42 309.603 3.2 309.083 4.04C308.563 4.88 307.863 5.6 306.983 6.2C306.103 6.8 305.003 7.1 303.683 7.1ZM335.63 44.6C333.15 44.6 330.93 44.18 328.97 43.34C327.01 42.46 325.31 41.26 323.87 39.74C322.47 38.22 321.39 36.5 320.63 34.58C319.87 32.62 319.49 30.54 319.49 28.34C319.49 26.14 319.87 24.06 320.63 22.1C321.39 20.14 322.47 18.42 323.87 16.94C325.31 15.42 327.01 14.24 328.97 13.4C330.97 12.52 333.19 12.08 335.63 12.08C338.07 12.08 340.27 12.52 342.23 13.4C344.23 14.24 345.93 15.42 347.33 16.94C348.77 18.42 349.87 20.14 350.63 22.1C351.39 24.06 351.77 26.14 351.77 28.34C351.77 30.54 351.39 32.62 350.63 34.58C349.87 36.5 348.77 38.22 347.33 39.74C345.93 41.26 344.23 42.46 342.23 43.34C340.27 44.18 338.07 44.6 335.63 44.6ZM326.27 28.4C326.27 30.4 326.69 32.2 327.53 33.8C328.37 35.4 329.49 36.66 330.89 37.58C332.29 38.5 333.87 38.96 335.63 38.96C337.35 38.96 338.91 38.5 340.31 37.58C341.75 36.62 342.89 35.34 343.73 33.74C344.57 32.1 344.99 30.3 344.99 28.34C344.99 26.34 344.57 24.54 343.73 22.94C342.89 21.34 341.75 20.08 340.31 19.16C338.91 18.2 337.35 17.72 335.63 17.72C333.87 17.72 332.29 18.2 330.89 19.16C329.49 20.12 328.37 21.4 327.53 23C326.69 24.56 326.27 26.36 326.27 28.4ZM370.468 28.34C370.468 25.34 371.068 22.62 372.268 20.18C373.508 17.7 375.188 15.74 377.308 14.3C379.428 12.82 381.868 12.08 384.628 12.08C387.028 12.08 389.188 12.7 391.108 13.94C393.068 15.18 394.588 16.72 395.668 18.56V0.199999H402.268V36.56C402.268 37.32 402.408 37.86 402.688 38.18C402.968 38.5 403.428 38.68 404.068 38.72V44C402.828 44.2 401.868 44.3 401.188 44.3C399.948 44.3 398.888 43.94 398.008 43.22C397.168 42.5 396.728 41.64 396.688 40.64L396.628 38.3C395.428 40.3 393.808 41.86 391.768 42.98C389.728 44.06 387.608 44.6 385.408 44.6C383.248 44.6 381.248 44.18 379.408 43.34C377.608 42.5 376.028 41.32 374.668 39.8C373.348 38.28 372.308 36.54 371.548 34.58C370.828 32.62 370.468 30.54 370.468 28.34ZM395.668 32.72V24.5C395.228 23.22 394.508 22.08 393.508 21.08C392.548 20.04 391.448 19.22 390.208 18.62C389.008 18.02 387.808 17.72 386.608 17.72C385.208 17.72 383.928 18.02 382.768 18.62C381.648 19.22 380.668 20.02 379.828 21.02C379.028 22.02 378.408 23.16 377.968 24.44C377.528 25.72 377.308 27.06 377.308 28.46C377.308 29.9 377.548 31.26 378.028 32.54C378.508 33.78 379.188 34.9 380.068 35.9C380.988 36.86 382.028 37.62 383.188 38.18C384.388 38.7 385.688 38.96 387.088 38.96C387.968 38.96 388.848 38.8 389.728 38.48C390.648 38.16 391.508 37.72 392.308 37.16C393.148 36.6 393.848 35.94 394.408 35.18C395.008 34.42 395.428 33.6 395.668 32.72ZM424.871 44.6C422.431 44.6 420.211 44.18 418.211 43.34C416.251 42.46 414.551 41.28 413.111 39.8C411.671 38.28 410.551 36.56 409.751 34.64C408.991 32.68 408.611 30.6 408.611 28.4C408.611 25.44 409.291 22.74 410.651 20.3C412.011 17.82 413.911 15.84 416.351 14.36C418.791 12.84 421.651 12.08 424.931 12.08C428.211 12.08 431.031 12.84 433.391 14.36C435.791 15.84 437.651 17.8 438.971 20.24C440.291 22.68 440.951 25.3 440.951 28.1C440.951 28.58 440.931 29.04 440.891 29.48C440.851 29.88 440.811 30.22 440.771 30.5H415.631C415.751 32.34 416.251 33.96 417.131 35.36C418.051 36.72 419.211 37.8 420.611 38.6C422.011 39.36 423.511 39.74 425.111 39.74C426.871 39.74 428.531 39.3 430.091 38.42C431.691 37.54 432.771 36.38 433.331 34.94L438.971 36.56C438.291 38.08 437.251 39.46 435.851 40.7C434.491 41.9 432.871 42.86 430.991 43.58C429.111 44.26 427.071 44.6 424.871 44.6ZM415.451 26.12H434.411C434.291 24.32 433.771 22.74 432.851 21.38C431.971 19.98 430.831 18.9 429.431 18.14C428.071 17.34 426.551 16.94 424.871 16.94C423.231 16.94 421.711 17.34 420.311 18.14C418.951 18.9 417.831 19.98 416.951 21.38C416.071 22.74 415.571 24.32 415.451 26.12ZM491.219 38.06V44H461.999V1.4H490.679V7.34H468.719V19.46H487.739V25.04H468.719V38.06H491.219ZM505.368 44L493.428 12.62H500.268L509.208 37.88L518.148 12.62H524.508L512.568 44H505.368ZM542.41 44.6C539.97 44.6 537.75 44.18 535.75 43.34C533.79 42.46 532.09 41.28 530.65 39.8C529.21 38.28 528.09 36.56 527.29 34.64C526.53 32.68 526.15 30.6 526.15 28.4C526.15 25.44 526.83 22.74 528.19 20.3C529.55 17.82 531.45 15.84 533.89 14.36C536.33 12.84 539.19 12.08 542.47 12.08C545.75 12.08 548.57 12.84 550.93 14.36C553.33 15.84 555.19 17.8 556.51 20.24C557.83 22.68 558.49 25.3 558.49 28.1C558.49 28.58 558.47 29.04 558.43 29.48C558.39 29.88 558.35 30.22 558.31 30.5H533.17C533.29 32.34 533.79 33.96 534.67 35.36C535.59 36.72 536.75 37.8 538.15 38.6C539.55 39.36 541.05 39.74 542.65 39.74C544.41 39.74 546.07 39.3 547.63 38.42C549.23 37.54 550.31 36.38 550.87 34.94L556.51 36.56C555.83 38.08 554.79 39.46 553.39 40.7C552.03 41.9 550.41 42.86 548.53 43.58C546.65 44.26 544.61 44.6 542.41 44.6ZM532.99 26.12H551.95C551.83 24.32 551.31 22.74 550.39 21.38C549.51 19.98 548.37 18.9 546.97 18.14C545.61 17.34 544.09 16.94 542.41 16.94C540.77 16.94 539.25 17.34 537.85 18.14C536.49 18.9 535.37 19.98 534.49 21.38C533.61 22.74 533.11 24.32 532.99 26.12ZM592.014 44H585.414V26.42C585.414 23.5 584.934 21.36 583.974 20C583.054 18.64 581.674 17.96 579.834 17.96C578.554 17.96 577.274 18.28 575.994 18.92C574.754 19.56 573.634 20.44 572.634 21.56C571.634 22.64 570.914 23.9 570.474 25.34V44H563.874V12.62H569.874V18.92C570.674 17.52 571.714 16.32 572.994 15.32C574.314 14.28 575.794 13.48 577.434 12.92C579.074 12.36 580.814 12.08 582.654 12.08C584.534 12.08 586.074 12.42 587.274 13.1C588.514 13.78 589.474 14.72 590.154 15.92C590.874 17.08 591.354 18.44 591.594 20C591.874 21.52 592.014 23.14 592.014 24.86V44ZM616.9 42.38C616.34 42.66 615.64 42.96 614.8 43.28C613.96 43.6 613 43.88 611.92 44.12C610.88 44.36 609.8 44.48 608.68 44.48C607.32 44.48 606.06 44.24 604.9 43.76C603.74 43.28 602.8 42.52 602.08 41.48C601.4 40.4 601.06 39.02 601.06 37.34V17.72H596.92V12.62H601.06V2.3H607.66V12.62H614.5V17.72H607.66V35.24C607.74 36.32 608.08 37.12 608.68 37.64C609.32 38.16 610.1 38.42 611.02 38.42C611.94 38.42 612.82 38.26 613.66 37.94C614.5 37.62 615.12 37.36 615.52 37.16L616.9 42.38ZM635.162 44.6C632.682 44.6 630.462 44.18 628.502 43.34C626.542 42.46 624.842 41.26 623.402 39.74C622.002 38.22 620.922 36.5 620.162 34.58C619.402 32.62 619.022 30.54 619.022 28.34C619.022 26.14 619.402 24.06 620.162 22.1C620.922 20.14 622.002 18.42 623.402 16.94C624.842 15.42 626.542 14.24 628.502 13.4C630.502 12.52 632.722 12.08 635.162 12.08C637.602 12.08 639.802 12.52 641.762 13.4C643.762 14.24 645.462 15.42 646.862 16.94C648.302 18.42 649.402 20.14 650.162 22.1C650.922 24.06 651.302 26.14 651.302 28.34C651.302 30.54 650.922 32.62 650.162 34.58C649.402 36.5 648.302 38.22 646.862 39.74C645.462 41.26 643.762 42.46 641.762 43.34C639.802 44.18 637.602 44.6 635.162 44.6ZM625.802 28.4C625.802 30.4 626.222 32.2 627.062 33.8C627.902 35.4 629.022 36.66 630.422 37.58C631.822 38.5 633.402 38.96 635.162 38.96C636.882 38.96 638.442 38.5 639.842 37.58C641.282 36.62 642.422 35.34 643.262 33.74C644.102 32.1 644.522 30.3 644.522 28.34C644.522 26.34 644.102 24.54 643.262 22.94C642.422 21.34 641.282 20.08 639.842 19.16C638.442 18.2 636.882 17.72 635.162 17.72C633.402 17.72 631.822 18.2 630.422 19.16C629.022 20.12 627.902 21.4 627.062 23C626.222 24.56 625.802 26.36 625.802 28.4ZM668.315 44.6C665.675 44.6 663.175 44.18 660.815 43.34C658.455 42.46 656.435 41.16 654.755 39.44L657.215 35C659.015 36.6 660.815 37.76 662.615 38.48C664.455 39.2 666.275 39.56 668.075 39.56C669.915 39.56 671.415 39.22 672.575 38.54C673.735 37.82 674.315 36.78 674.315 35.42C674.315 34.42 674.015 33.68 673.415 33.2C672.815 32.72 671.935 32.3 670.775 31.94C669.655 31.58 668.295 31.18 666.695 30.74C664.455 30.06 662.575 29.36 661.055 28.64C659.535 27.88 658.395 26.96 657.635 25.88C656.875 24.8 656.495 23.42 656.495 21.74C656.495 19.7 657.015 17.96 658.055 16.52C659.095 15.08 660.535 13.98 662.375 13.22C664.255 12.46 666.415 12.08 668.855 12.08C671.135 12.08 673.235 12.44 675.155 13.16C677.115 13.84 678.835 14.92 680.315 16.4L677.495 20.78C676.095 19.5 674.655 18.56 673.175 17.96C671.735 17.36 670.175 17.06 668.495 17.06C667.535 17.06 666.615 17.18 665.735 17.42C664.855 17.62 664.115 18.02 663.515 18.62C662.955 19.18 662.675 19.98 662.675 21.02C662.675 21.86 662.915 22.54 663.395 23.06C663.875 23.58 664.595 24.02 665.555 24.38C666.515 24.74 667.695 25.14 669.095 25.58C671.535 26.3 673.615 27.02 675.335 27.74C677.055 28.42 678.375 29.32 679.295 30.44C680.255 31.52 680.735 33.02 680.735 34.94C680.735 37.98 679.595 40.36 677.315 42.08C675.075 43.76 672.075 44.6 668.315 44.6Z" fill="white"/>
</svg>
